<?xml version="1.0" standalone="no"?>
<!DOCTYPE svg PUBLIC "-//W3C//DTD SVG 1.1//EN" "http://www.w3.org/Graphics/SVG/1.1/DTD/svg11.dtd" >
<svg>
<metadata>
Created by FontForge 20090622 at Wed Sep 20 18:50:04 2017
 By deploy user
Copyright (c) 2001, 2003, 2006 Parachute?, www.parachute.gr.  All rights reserved.
</metadata>
<defs>
<font id="PFLiberaPro-Liberissima" horiz-adv-x="610" >
  <font-face 
    font-family="PF Libera Pro Liberissima"
    font-weight="400"
    font-stretch="normal"
    units-per-em="1000"
    panose-1="2 0 5 6 2 0 0 2 0 3"
    ascent="750"
    descent="-250"
    x-height="354"
    cap-height="705"
    bbox="-315 -620 1169 1053"
    underline-thickness="19"
    underline-position="-123"
    unicode-range="U+0020-U+2122"
  />
<missing-glyph horiz-adv-x="471" 
d="M436 -16q-12 -3 -23.5 -5t-23.5 -2q-5 0 -10 0.5t-10 1.5q-59 10 -109 10q-52 0 -96 -6t-96 -6q-23 0 -41 18.5t-18 40.5q0 13 5.5 24t13 22.5l15.5 23t13 26.5q28 88 40.5 179.5t20.5 182.5q2 30 16.5 39t33.5 9q12 0 26 -2t28 -2q26 0 60.5 11.5l72.5 25t76.5 25
t71.5 11.5q17 0 29.5 -5t12.5 -17q0 -5 -3 -12q-29 -42 -51 -92.5t-36.5 -105.5t-22 -112t-7.5 -112q0 -91 20 -165q-1 -4 -5 -6h-3zM330 63q-8 24 -14 45t-12.5 40.5t-14.5 39t-19 42.5q-5 8 -9 17t-7 18q-45 -50 -81 -108.5t-68 -121.5l-3 -4v-1zM207 496q-6 -1 -14 -7
l69 -155l45.5 54.5l49 57.5l48.5 58l45 56q-3 1 -11 1q-17 0 -37 -5t-29 -7q-40 -11 -77.5 -25t-88.5 -28zM110 203q-5 -23 -7.5 -46t-3.5 -47q29 51 65 100.5t73 94.5l-37.5 91.5t-40.5 87.5q-5 -7 -7.5 -21t-3.5 -30.5t-1.5 -33t-2.5 -28.5q-7 -43 -16.5 -84.5
t-17.5 -83.5zM349 373l-34.5 -39.5l-34.5 -39.5l17.5 -43.5l20.5 -48.5l17.5 -39t10.5 -16q-2 11 -2 21.5v20.5q0 41 8.5 79.5t22 75t31 72.5l35.5 72l5 10q-23 -35 -49.5 -67z" />
    <glyph glyph-name=".notdef" horiz-adv-x="471" 
d="M436 -16q-12 -3 -23.5 -5t-23.5 -2q-5 0 -10 0.5t-10 1.5q-59 10 -109 10q-52 0 -96 -6t-96 -6q-23 0 -41 18.5t-18 40.5q0 13 5.5 24t13 22.5l15.5 23t13 26.5q28 88 40.5 179.5t20.5 182.5q2 30 16.5 39t33.5 9q12 0 26 -2t28 -2q26 0 60.5 11.5l72.5 25t76.5 25
t71.5 11.5q17 0 29.5 -5t12.5 -17q0 -5 -3 -12q-29 -42 -51 -92.5t-36.5 -105.5t-22 -112t-7.5 -112q0 -91 20 -165q-1 -4 -5 -6h-3zM330 63q-8 24 -14 45t-12.5 40.5t-14.5 39t-19 42.5q-5 8 -9 17t-7 18q-45 -50 -81 -108.5t-68 -121.5l-3 -4v-1zM207 496q-6 -1 -14 -7
l69 -155l45.5 54.5l49 57.5l48.5 58l45 56q-3 1 -11 1q-17 0 -37 -5t-29 -7q-40 -11 -77.5 -25t-88.5 -28zM110 203q-5 -23 -7.5 -46t-3.5 -47q29 51 65 100.5t73 94.5l-37.5 91.5t-40.5 87.5q-5 -7 -7.5 -21t-3.5 -30.5t-1.5 -33t-2.5 -28.5q-7 -43 -16.5 -84.5
t-17.5 -83.5zM349 373l-34.5 -39.5l-34.5 -39.5l17.5 -43.5l20.5 -48.5l17.5 -39t10.5 -16q-2 11 -2 21.5v20.5q0 41 8.5 79.5t22 75t31 72.5l35.5 72l5 10q-23 -35 -49.5 -67z" />
    <glyph glyph-name="exclam" unicode="!" horiz-adv-x="142" 
d="M127 715q12 -63 5 -118t-23 -107.5t-36 -103t-34 -104.5l-7 14q5 54 4.5 108l-1 107.5t2.5 106.5t15 104q6 15 17.5 19.5t23.5 2t21.5 -10.5t11.5 -18zM73 46q0 -15 -10 -29t-25 -22q-16 0 -33.5 11t-17.5 30q0 15 12.5 31t27.5 20q16 -4 29 -15t17 -26z" />
    <glyph glyph-name="quotedbl" unicode="&#x22;" horiz-adv-x="302" 
d="M142 813q7 -18 7.5 -35t-4 -33.5t-12 -33t-16.5 -32.5q-13 -27 -24 -56.5l-21.5 -59t-21.5 -57.5t-25 -52q-13 36 -13 75q0 29 4 58.5t9.5 59.5t10 60t6.5 60q5 23 26.5 41t44.5 18q16 0 29 -13zM272 813q14 -35 2.5 -68t-27.5 -66q-13 -27 -24 -56.5l-21.5 -59
t-21.5 -57.5t-25 -52q-13 36 -13 75q0 29 4 58.5t9 59.5l10 60t7 60q5 23 26.5 41t44.5 18q16 0 29 -13z" />
    <glyph glyph-name="numbersign" unicode="#" horiz-adv-x="576" 
d="M545 244q-42 -14 -86.5 -23.5t-89.5 -17.5q-5 -26 -8.5 -50.5t-4.5 -50.5q5 -46 -0.5 -91.5t-22.5 -83.5q-13 -17 -30.5 -14t-28.5 17q-12 24 -17.5 51t4.5 53l61 161l-67 -12t-65 -14q-4 -19 -5.5 -37.5t-2.5 -37.5q5 -45 -0.5 -91t-22.5 -84q-13 -17 -30.5 -14
t-29.5 18q-11 23 -16.5 50t4.5 53l48 127q-8 -2 -16 -5l-16 -6q-32 -3 -58 5.5t-40 26.5q0 15 9.5 25t23.5 17t31.5 12t33.5 9q17 1 33 3l33 4l34 90q11 29 18 58.5t12 59.5q-23 -2 -46.5 -3.5t-46.5 -3.5q-9 3 -14 7t-5 13q29 5 58 11l59 12q10 66 21.5 129.5t44.5 123.5
q13 8 29 7.5t27 -12.5q19 -29 13 -59t-16 -58l-22.5 -59.5l-23.5 -59.5q26 4 52 7.5t52 5.5q8 61 20 120.5t43 114.5q13 8 29 7.5t27 -11.5q20 -30 13.5 -60t-16.5 -58q-9 -27 -20 -54l-22 -55q31 1 62 0t62 -5l-25 -20q-59 -3 -114 -9l-45.5 -105t-39.5 -105q39 3 78.5 1
t77.5 -10v-20zM210 250l70 10.5t70 9.5l27 72q12 32 19.5 65.5t12.5 67.5l-116 -16l-45 -103.5t-38 -105.5z" />
    <glyph glyph-name="dollar" unicode="$" horiz-adv-x="457" 
d="M489 639q3 -16 -4.5 -27.5t-20.5 -17.5h-35q-26 0 -48.5 -10t-30.5 -39q-4 -40 -19.5 -79.5t-27.5 -79.5t-14 -80t21 -82q10 -18 22.5 -35.5t22 -36t13 -39t-4.5 -44.5q-12 -20 -31.5 -31t-39 -20.5t-35 -23t-20.5 -39.5q-5 -11 -8 -22.5t-7.5 -22.5t-11 -20.5
t-18.5 -15.5q-16 0 -28 8t-17 20q-6 15 -2.5 32.5t5.5 33.5t-2 29t-25 19q-15 8 -32.5 13t-33.5 12t-29 18t-19 31q-3 24 6 44.5t30 32.5q12 -4 20 -14t15 -20.5t16 -20.5t23 -14q18 -5 32 1t25.5 17.5t21 25.5t18.5 25q23 34 24 63.5t-10.5 57t-30 54t-35.5 54t-26.5 57.5
t-2.5 64q-6 27 1 51.5t19 45.5q14 12 29 18.5l30 13.5t29 16t26 26q9 22 5.5 48.5t-5.5 51.5t4 46t33 33q25 -4 37 -17t16.5 -31.5t6 -39.5t5.5 -40.5t14.5 -35.5t34.5 -24q21 -3 40.5 -12.5t28.5 -27.5zM232 427q15 2 22 9.5t10 18.5t3.5 24t1.5 25q-6 13 -13.5 23
t-23.5 10q-21 -9 -28 -31t-4 -46q0 -13 11.5 -23t20.5 -10z" />
    <glyph glyph-name="percent" unicode="%" horiz-adv-x="490" 
d="M523 699q3 -11 3 -21q0 -27 -15.5 -48l-30.5 -41q-43 -54 -93.5 -105.5l-98.5 -103.5t-88 -107.5t-63 -116.5q-12 -45 -32.5 -86t-49.5 -70q-11 -6 -20 -6q-12 0 -21 8t-14 21q-1 6 -1 12v12q0 22 5 42t19 36l215 250q34 40 59.5 86l50.5 92.5t54 90t70 78.5q3 1 10 1
q13 0 24.5 -6t16.5 -18zM298 724q11 -19 11 -41q0 -20 -5.5 -39.5t-7.5 -40.5q-15 -27 -29 -56.5t-31.5 -56.5t-41 -49.5t-57.5 -34.5h-2q-6 -1 -12 -1.5t-12 -0.5q-13 0 -25 2.5t-22 10.5q-22 15 -22 39q0 16 8 33.5t18 34.5l20 32.5t14 26.5q8 20 18.5 41t24.5 39t31.5 32
t40.5 20q10 9 22.5 14.5t26.5 5.5q20 0 32 -11zM267 570q2 20 8.5 41t6.5 41q0 22 -12 37l-3 -1q-4 0 -8 3q-27 -13 -52.5 -28.5t-48.5 -38.5q-31 -29 -52 -63t-21 -75l1 -12q3 -11 12 -17t20 -6q7 0 15 3q18 12 37.5 23.5t37.5 25t33.5 30t25.5 37.5zM437 316
q11 -18 11 -39q0 -20 -5.5 -41t-7.5 -41q-15 -27 -29 -56.5t-31.5 -56.5t-41 -49.5t-57.5 -34.5h-2q-6 -1 -12 -1.5t-12 -0.5q-13 0 -25 2.5t-22 10.5q-8 5 -14.5 17t-6.5 21l-1 2q1 19 8.5 35t17 31l19 29.5t15.5 30.5q8 20 18.5 41t24.5 39t31.5 32t40.5 20
q10 9 22.5 14.5t26.5 5.5q20 0 32 -11zM406 163q2 20 8.5 40.5t6.5 40.5q0 22 -12 37l-3 -1q-4 0 -8 3q-27 -12 -52.5 -28t-48.5 -39q-31 -29 -52 -63t-21 -75l1 -12q3 -11 12 -17t20 -6q7 0 15 3l37 23.5t37 25t33.5 30t26.5 38.5z" />
    <glyph glyph-name="ampersand" unicode="&#x26;" horiz-adv-x="466" 
d="M475 288q3 -19 -7.5 -34.5t-24.5 -30t-26 -30t-12 -34.5q-1 -11 2.5 -21t6.5 -20t4 -19.5t-6 -20.5q-11 -14 -22 -14q-8 0 -16 3.5l-16 7t-17 6t-18 0.5q-36 -15 -70 -38t-69 -43t-72 -32t-80 -5q-20 8 -29.5 25.5t-11.5 37.5q-2 32 8.5 59.5t27 52.5t36 48.5t35.5 48.5
t25 52.5t5 59.5l-39.5 50.5t-35 53.5t-19 58.5t8.5 66.5q10 28 27.5 55t40 49.5t49.5 38.5t56 23h41q32 0 60.5 -5.5t53.5 -23.5q20 -28 27 -60t-1 -66q-16 -35 -38 -66.5t-46 -62l-47 -60.5t-42 -62q-4 -17 -1.5 -31t9.5 -26.5t17.5 -23.5t22.5 -22q7 -12 18 -18.5t24 -8
t27 0t27 4.5q14 8 27 19.5l25.5 23t26 21t28.5 13.5zM109 432q8 -20 26.5 -35.5t43.5 -12.5q29 22 49 50t34 59t23 64.5t16 66.5q-28 24 -54.5 21t-50.5 -20t-45 -41.5l-38 -44.5l-6.5 -25.5t-5 -28t-0.5 -28t8 -25.5zM198 115q10 7 23.5 14.5t24 18t14 24t-6.5 31.5
q-4 14 -13.5 23t-22 14.5t-26.5 7t-26 0.5q-27 -21 -37.5 -49.5t-10.5 -58.5q0 -21 3 -40q20 -6 40.5 0.5t37.5 14.5z" />
    <glyph glyph-name="quotesingle" unicode="'" horiz-adv-x="165" 
d="M170 813q14 -35 2.5 -68t-27.5 -66q-13 -27 -24 -56.5l-21.5 -59t-21.5 -57.5t-25 -52q-13 36 -13 75q0 29 4 58.5t9 59.5l10 60t7 60q5 23 26.5 41t44.5 18q16 0 29 -13z" />
    <glyph glyph-name="parenleft" unicode="(" horiz-adv-x="434" 
d="M164 671q12 2 34 12l25.5 10.5l29.5 11.5q32 12 68.5 24t74.5 18q20 4 39 -2.5t30 -17.5q2 -13 -2 -20t-12 -12q-8 -4 -18 -6.5t-17 -6.5q-23 -10 -49 -18.5t-53 -19.5l-30 -12t-34 -15.5t-32.5 -18.5t-26.5 -22q-22 -40 -35.5 -60.5t-18.5 -38.5q-3 -15 -7.5 -28l-9 -27
t-8.5 -31t-6 -40q-3 -32 0 -54t8.5 -40.5t12 -37.5t11.5 -44q20 -34 39 -47.5t39 -23.5q10 -5 19 -10t17 -13q18 -13 34 -43q0 -16 -8 -30.5t-22 -20.5q-25 -11 -43.5 -11.5t-47.5 1.5q-17 1 -26.5 3t-17 5t-14.5 7t-19 8q-8 6 -17 15t-19 24.5t-20 39t-18 58.5
q-5 72 -2.5 121t8 84t11 59.5t6.5 47.5q5 29 20.5 63.5t34.5 66.5t38.5 57t33.5 35z" />
    <glyph glyph-name="parenright" unicode=")" horiz-adv-x="393" 
d="M300 613q11 -13 23.5 -42.5t22 -65.5t15.5 -73.5t4 -66.5q-4 -22 -5 -47t-5 -60t-14.5 -83t-33.5 -116q-17 -32 -32.5 -52t-29.5 -32.5t-25.5 -19t-20.5 -10.5q-12 -1 -20 -2.5t-15.5 -2.5t-17.5 -0.5t-27 3.5q-28 6 -46 11t-39 22q-12 9 -16 25.5t0 31.5q23 25 44 33
q10 5 20 7.5t21 4.5q21 5 43.5 13.5t50.5 35.5q11 23 22.5 39.5l22 33t18.5 37t13 52.5q4 22 5 39.5t0.5 32.5t-1.5 29t-1 29q0 19 -8.5 42.5t-18.5 67.5q-8 15 -20.5 28.5t-26.5 26t-28 23l-26 19.5q-23 18 -46 33t-43 30l-15 10l-15 12q-6 6 -8.5 14.5t2.5 19.5q14 8 34 9
t39 -7q35 -16 67 -37t59 -41l25.5 -18.5l22.5 -16.5q19 -17 30 -21z" />
    <glyph glyph-name="asterisk" unicode="*" horiz-adv-x="393" 
d="M293 656q4 -17 7.5 -34t23.5 -28q14 0 27.5 3t26.5 3.5t24 -4t20 -19.5q0 -17 -9 -29t-22 -22t-27 -19.5t-24 -20.5t-13 -25.5t6 -34.5q14 -14 29.5 -27.5t19.5 -30.5q-11 -4 -25.5 -4.5t-29.5 -0.5t-29.5 -1.5t-27.5 -6.5q-14 -6 -21 -19t-11.5 -29.5t-7.5 -34t-8 -32.5
q-5 5 -7 13.5t-3.5 18.5t-4 20.5t-7.5 18.5q-10 13 -22 18.5t-25 5.5q-12 0 -25 -4.5t-25 -10.5q-11 0 -20 -6.5t-16 -2.5q8 18 24.5 33.5t31.5 31.5t23.5 34t0.5 42q-15 20 -38 33.5t-44.5 27.5t-35.5 32.5t-11 48.5q14 20 38.5 23.5t41.5 -9.5q12 -5 21.5 -13l19 -15.5
t19.5 -12.5t24 -4q7 8 13 24.5l12.5 34.5t13.5 34t17 24t23.5 3.5t31.5 -27.5z" />
    <glyph glyph-name="plus" unicode="+" horiz-adv-x="280" 
d="M248 635q8 -17 3 -34l-10 -33.5t-2 -31t27 -25.5q10 -5 20 -6t15 -12q-4 -15 -14 -21t-22.5 -9t-25.5 -5t-22 -9q-44 -46 -60 -104.5t-22 -121t-11 -125.5t-28 -119q-6 -11 -12.5 -26.5t-21.5 -17.5q-14 0 -26 8.5t-17 22.5q0 58 15 110t35.5 102l41 100t31.5 103
q5 23 -4.5 45t-32.5 30q-5 5 -10.5 6t-7.5 6q-4 8 -2 13.5t7 9.5t11.5 6.5l11.5 4.5q16 0 29.5 13t22.5 24q2 35 8.5 66t32.5 52q14 5 24.5 -3t15.5 -19z" />
    <glyph glyph-name="comma" unicode="," horiz-adv-x="184" 
d="M83 109q16 -18 22.5 -42t6 -50t-7 -51.5t-16.5 -45.5q-6 -6 -12 -15.5t-13 -17t-16 -12t-21 -1.5q-12 13 -10.5 27.5t8.5 29t15 29t9 29.5q12 19 6.5 36.5t-13.5 34t-10 32t17 30.5q11 3 20 -1.5t15 -11.5z" />
    <glyph glyph-name="hyphen" unicode="-" horiz-adv-x="428" 
d="M413 274q-49 -4 -94.5 -12.5l-89.5 -17.5l-88.5 -17.5t-91.5 -12.5q-8 4 -11.5 9t-3.5 16l96 29.5t99.5 24.5t101.5 12.5t102 -6.5z" />
    <glyph glyph-name="period" unicode="." horiz-adv-x="214" 
d="M129 74q10 -10 11 -28.5t-4 -30.5q-18 -15 -42 -26t-51 -1q-15 8 -24 24t1 36q5 15 20 26.5t30 16.5q17 2 31.5 -3.5t27.5 -13.5z" />
    <glyph glyph-name="slash" unicode="/" horiz-adv-x="534" 
d="M523 699q5 -18 2 -33t-10 -28t-16.5 -25l-18.5 -24q-43 -54 -93.5 -105.5l-98.5 -103.5t-88 -107.5t-63 -116.5q-12 -45 -32.5 -86t-49.5 -70q-18 -12 -33.5 -3t-21.5 26q-3 27 1.5 54.5t21.5 47.5l215 250q34 40 59.5 86l50.5 92.5t54 90t70 78.5q15 3 30 -3t21 -20z
" />
    <glyph glyph-name="zero" unicode="0" 
d="M611 767q24 -36 27 -73t-3.5 -75.5t-16.5 -77t-12 -75.5q-37 -68 -72.5 -142t-79.5 -142t-102.5 -123t-142.5 -86q-23 -2 -48.5 -3t-50 1.5t-46.5 9t-38 20.5q-27 21 -37 46.5t-17 53.5q1 46 19 86t42 77.5l49 74.5t40 77q19 50 45 102t61.5 97t80 79.5t101.5 50.5
q19 19 44 31t52.5 16t54.5 -2t50 -23zM533 384q3 36 14 74t18 76t4 75t-27 72q-7 -4 -13.5 -1.5t-13.5 5.5q-69 -31 -134 -70.5t-122 -93.5q-41 -40 -76 -83.5t-59 -91t-36 -98.5t-7 -106q8 -29 32 -42t51 -13q18 0 36 5q44 29 92.5 58t94 63.5t84 76t62.5 94.5z" />
    <glyph glyph-name="one" unicode="1" 
d="M530 571q-27 -53 -62 -104.5t-66.5 -104.5t-52.5 -109.5t-20 -119.5q3 -15 17.5 -24.5t33 -15.5t35.5 -11t25 -12t2.5 -17.5t-32.5 -27.5l-113 -47q-19 9 -43.5 7t-49.5 -7l-49 -10t-42 -2.5t-28.5 16t-8.5 46.5q20 18 45.5 25.5l50.5 15t46 20.5t31 41l36.5 57.5
t33.5 60t24 62.5t7 66q-13 16 -34 20t-39 -10q-16 -5 -29.5 -17.5l-27 -26t-28.5 -24t-35 -11.5v29q84 73 154 152.5l143 158.5q9 10 21 13t23.5 0.5t21.5 -10t14 -18.5z" />
    <glyph glyph-name="two" unicode="2" 
d="M454 680q30 -35 31.5 -70t-12 -70.5t-34.5 -69.5t-35 -66q-52 -69 -86 -148t-36 -169q8 -17 25.5 -16t31.5 4q49 23 103 38.5t111 7.5q12 -6 13 -20t-5 -22q-72 -41 -148 -71l-154 -63q-17 -8 -38.5 -3.5t-38.5 18.5q-17 32 -17.5 61.5t10 56t28.5 51.5l37 49.5l37 49
t28 50.5q14 37 30 73.5t29 74t21.5 76.5t7.5 82q-9 16 -21 21.5t-26 5.5q-13 0 -26 -5t-23 -10q-23 -12 -48 -22.5t-48.5 -23t-43.5 -30t-32 -43.5q-5 -10 3.5 -20l16 -18.5t7 -15t-23.5 -7.5q-12 2 -24 3.5t-23.5 4.5t-21 8.5t-15.5 17.5q6 58 36.5 97.5t74 67.5t93.5 48.5
l95 39.5q14 0 29.5 1t30 -0.5t28 -6.5t23.5 -17z" />
    <glyph glyph-name="three" unicode="3" 
d="M508 646q10 -29 8.5 -57.5t-11 -54.5t-25.5 -50t-35 -45q-6 -24 3.5 -41.5t23 -34l26.5 -34t14 -39.5q12 -50 11 -106t-27 -101q-31 -28 -65 -54t-71.5 -43t-78 -21t-82.5 12q-15 10 -22.5 23.5t-10.5 29t-2.5 31.5t3.5 30q8 12 18 22.5t22 17.5t25.5 8.5t28.5 -5.5
q12 -15 14.5 -31t17.5 -28q27 4 52.5 12t49 21t43.5 31.5t35 45.5q8 26 9.5 56.5t-9.5 56.5q-21 26 -46.5 38.5t-53 20t-55.5 14t-53 21.5q5 18 16.5 28t26 16.5t30 12.5t29.5 17q10 11 23.5 23.5t23.5 27t13.5 31t-5.5 36.5q-12 24 -31.5 33.5t-41.5 11t-45.5 -2.5
l-42.5 -7q-16 1 -31.5 -8.5t-30.5 -22l-29.5 -24.5t-28 -15.5t-27 5t-25.5 37.5q-6 21 3 34.5t21 28.5q25 16 58.5 30.5t70.5 24.5t75.5 13t74 -3t65.5 -23.5t51 -49.5z" />
    <glyph glyph-name="four" unicode="4" 
d="M465 687q-8 -62 -38 -116t-70 -105l-82.5 -101t-75.5 -104q-8 -23 -2.5 -44.5t28.5 -31.5q28 -8 55 -1t52 17q20 15 32.5 34t19 40.5t9 44t2.5 43.5q0 31 3 58q6 2 15 6.5t15 -3.5q11 -14 11.5 -31t-2.5 -34.5t-6.5 -35t-1.5 -33t13 -28.5t38 -21q0 -16 -12 -25.5
t-27.5 -18t-29 -18.5t-16.5 -27l-30 -197q-11 -15 -26.5 -18t-32.5 2q-24 17 -28 37.5t0.5 43t11.5 45t5 43.5q-12 12 -31.5 16.5t-40.5 7t-41.5 5.5t-33.5 10.5t-16.5 23.5t8.5 44q35 58 64.5 118.5l58.5 120.5l59.5 120t68.5 117q7 9 17.5 14.5t21 5.5t20 -5.5t15.5 -18.5
z" />
    <glyph glyph-name="five" unicode="5" 
d="M605 587q2 -14 -3.5 -24.5t-14 -17.5t-19 -11.5t-18.5 -6.5q-38 -5 -76.5 -6.5t-76.5 -4t-75.5 -7.5t-72.5 -16q-18 -12 -30 -30.5t-24.5 -35.5t-29 -27.5t-43.5 -6.5q-12 -11 -18 -28t1 -32q28 -30 59 -54.5l61 -50t56.5 -54t44.5 -66.5q3 -15 8 -30.5t7.5 -31.5
t0 -30.5t-14.5 -26.5q-28 -27 -60 -49t-67 -35t-73 -15.5t-79 9.5q-5 5 -12 8.5t-13 7.5t-11 10t-6 16q-4 18 7.5 26t22.5 10q69 -9 128 13.5t101 73.5q10 16 10 33q0 25 -15 50t-33 46q-14 20 -34.5 35t-43 28l-44 26t-37 29.5t-22 38.5t0.5 53q14 26 36.5 41l44 28.5
t38.5 31t20 48.5q37 21 77.5 31t82.5 15t85 7.5t85 8.5q11 -2 25 -1t26.5 0.5t23 -6t14.5 -20.5z" />
    <glyph glyph-name="six" unicode="6" 
d="M296 268q24 3 51 16t53.5 20.5t51 3t44.5 -35.5q9 -24 9 -48q0 -35 -14 -68.5t-35 -63.5q-27 -25 -57 -47.5t-63 -38t-69 -22t-75 -0.5q-18 6 -36.5 17t-33.5 26.5t-25 34.5t-12 42q5 69 20 133t37.5 124.5t51.5 118.5t62 115q25 27 54.5 49.5t61 37t65 20t67.5 -2.5
l20 -28q6 -18 -4 -31.5t-16 -28.5q-24 -16 -52 -22.5l-56 -13.5t-54 -19.5t-46 -40.5q-25 -35 -54.5 -68.5t-52.5 -69.5t-35 -76.5t-2 -88.5q21 -21 39 -17t34.5 18t33.5 31.5t37 23.5zM384 148q10 12 24 22.5t25.5 21.5t17.5 24.5t1 31.5q-15 21 -31 23.5t-32.5 -5
t-33 -20.5t-31.5 -22q-11 -15 -25 -30.5t-26.5 -31t-21 -33t-7.5 -37.5q21 0 39 6t34.5 15l32.5 18.5t34 16.5z" />
    <glyph glyph-name="seven" unicode="7" 
d="M347 848q24 -25 38.5 -57t19.5 -67.5t0.5 -71t-18.5 -68.5q-3 -21 4.5 -44t31.5 -29q14 -7 31 -6.5t34 0.5t32 -5t24 -25q-7 -13 -20.5 -16.5t-29 -3l-32.5 1t-30 -5.5q-24 -1 -46 -10.5t-39 -27t-28 -41.5t-13 -54q-3 -27 -2.5 -57t1.5 -60t0.5 -60.5t-6.5 -58.5
q-7 -39 -10 -81.5t-7 -84.5t-11.5 -82.5t-23.5 -76.5q-11 -23 -33.5 -33.5t-46.5 1.5q-17 4 -22.5 16.5t-6 28.5t2 32t2.5 28q18 55 29 114.5l23 119.5t29 118t47 109q3 13 4 28.5t-1.5 29t-9.5 25t-21 17.5q-22 8 -42.5 5t-40.5 -9.5t-40 -14t-41 -9.5l-12 8q19 20 46 32.5
t56 22.5t57 21t50 28t34 43t9 66q-4 22 -4 46t-2 46.5t-9 43t-25 36.5q-18 3 -31.5 -5.5l-26.5 -17.5t-27.5 -13t-34.5 8q-15 6 -30.5 14t-17.5 26q-4 27 11 46t37 30q19 10 43 17t49.5 8.5t50 -3t45.5 -18.5z" />
    <glyph glyph-name="eight" unicode="8" 
d="M517 676q10 -42 1.5 -76t-28.5 -63.5t-47.5 -56.5l-54.5 -54t-50 -56.5t-35 -63.5q4 -33 18 -67t23.5 -67.5t7 -66.5t-30.5 -63q-34 -37 -76.5 -56t-93.5 -2q-23 8 -41.5 23.5t-20.5 37.5q-3 30 6.5 56t25.5 49t34 45t33 45t22.5 48t1.5 55q-20 26 -37.5 55t-27.5 60
t-11 64t11 67q26 18 55.5 42.5t61 47.5t64 40.5t65 21t64 -10.5t60.5 -54zM256 107q42 36 36 94q-4 18 -15 26t-25 8q-13 0 -26 -7.5t-21 -19.5q-7 -15 -16 -31.5t-14 -34t-4.5 -35t12.5 -33.5q12 -3 22 -0.5t19 8t16.5 12.5t15.5 13zM292 386q48 55 87 115t58 132
q-13 12 -30 13.5t-34 -4t-32.5 -16t-26.5 -22.5q8 -27 0 -43t-23.5 -26t-34.5 -17.5t-33 -18.5q-7 -8 -8 -17.5t0.5 -19.5t4 -20.5t3.5 -19.5q3 -9 10.5 -17.5t17.5 -14t21 -7t20 2.5z" />
    <glyph glyph-name="nine" unicode="9" 
d="M517 582q0 -61 -18 -117t-43.5 -110l-53 -107t-46.5 -108q-6 -65 -19.5 -110l-26.5 -86.5t-20 -88.5t0 -116q-11 -21 -32.5 -30t-43.5 2q-21 21 -27.5 47t-5 53.5t8 56t10.5 55.5q11 43 28.5 76t37.5 61.5l39 55.5t33 57.5t20.5 67.5t0.5 86q-12 14 -26 16t-28.5 -1
t-30 -7.5t-30.5 -4.5q-9 1 -18 1h-18q-26 0 -51.5 5t-45.5 23q-14 13 -17 33t3 39q70 69 153 115t177 57q8 11 23 15.5t30 2.5t26 -11.5t11 -27.5zM255 398q18 10 39.5 17.5t42 18t37 25t25.5 37.5q-6 8 -15 10.5t-19 2t-19 -3.5t-16 -6q-15 -11 -32.5 -20t-34 -19
t-29.5 -22.5t-19 -31.5q5 -11 17 -9.5t23 1.5z" />
    <glyph glyph-name="colon" unicode=":" horiz-adv-x="212" 
d="M220 425q5 -17 -3.5 -29l-16.5 -24q-17 -16 -39 -24t-48 -3q-7 2 -9.5 8t-2.5 12q0 7 2 14.5t3 12.5q6 9 11.5 18.5t13 18t16 15t20.5 8.5q17 3 34 -3t19 -24zM153 164q11 -11 11.5 -29.5t-4.5 -31.5q-17 -15 -41.5 -25.5t-52.5 -0.5q-15 8 -24.5 24t1.5 36q5 15 20 26.5
t30 16.5q18 3 33 -2.5t27 -13.5z" />
    <glyph glyph-name="semicolon" unicode=";" horiz-adv-x="259" 
d="M150 255q27 -27 38 -63t9.5 -74t-12.5 -75t-28 -67q-10 -10 -19.5 -23.5t-21 -25.5t-26.5 -18.5t-36 -1.5q-20 21 -17 42t14.5 42t25 42.5t14.5 44.5q13 19 12 36.5t-8 34.5t-16.5 33t-14 32t0.5 31t26 30q20 5 34 -2t25 -18zM220 425q5 -17 -3.5 -29l-16.5 -24
q-17 -16 -39 -24t-48 -3q-7 2 -9.5 8t-2.5 12q0 7 2 14.5t3 12.5q6 9 11.5 18.5t13 18t16 15t20.5 8.5q17 3 34 -3t19 -24z" />
    <glyph glyph-name="less" unicode="&#x3c;" horiz-adv-x="380" 
d="M241 572q-1 -35 -16 -64t-36 -55t-44.5 -51.5t-41.5 -52.5q-9 -11 -20 -21t-19.5 -21t-11.5 -23.5t3 -27.5q28 -32 61 -53t69 -37.5t73 -30.5t73 -32q14 -7 16.5 -20.5t-1.5 -24.5q-11 -13 -28 -15.5t-30 5.5q-24 15 -54 28.5l-60.5 27.5t-59 30.5t-50 38t-34.5 50
t-12 66.5q19 28 43 55t44 55l44 90l42 91q6 8 14 10.5t15.5 0.5t13 -7t7.5 -12z" />
    <glyph glyph-name="equal" unicode="=" horiz-adv-x="384" 
d="M395 446q-38 -3 -74 -9.5t-71 -14t-70 -14t-72 -9.5q-11 5 -11 19l75.5 23.5t78.5 19.5t80 10t80 -5zM368 198q-34 -18 -70.5 -29l-73 -21t-72 -21.5t-67.5 -30.5q-44 -6 -63 31q0 15 6 25t15 17t20 12t22 9q33 5 68.5 14.5t71.5 16.5t72 8t71 -11v-20z" />
    <glyph glyph-name="greater" unicode="&#x3e;" horiz-adv-x="334" 
d="M33 558q1 6 6 12.5t12 10t15 2.5t15 -9l56.5 -81.5l58.5 -81.5q26 -24 54 -46.5t52 -46.5q12 -56 -9.5 -96.5t-59 -72.5t-81 -59t-75.5 -56q-11 -11 -28 -11t-31 11q-5 12 -5 24q0 14 12 23q32 24 66 44.5t66.5 42.5t61.5 48.5t51 62.5q4 16 -1 28t-15.5 21t-23 17
t-23.5 17q-22 24 -49.5 45t-52.5 43t-45 48t-27 60z" />
    <glyph glyph-name="question" unicode="?" horiz-adv-x="365" 
d="M340 729q30 -30 44 -67t3 -82q-31 -45 -71.5 -81t-83.5 -70l-85 -68t-76 -75q-8 -8 -6 -18.5t-1 -21.5q7 -13 18 -17t23 -5t24.5 -3t21.5 -11q-4 -10 -11 -14.5t-15.5 -6t-18 -2t-17.5 -3.5q-19 0 -39 12.5t-26 31.5q-8 22 2 43.5t27 39.5l133.5 145t113.5 149
q8 22 -3.5 35t-25.5 27q-35 3 -73 -4t-65 -29q-9 -9 -13 -19t-8.5 -19t-11 -16.5t-18.5 -10.5q-17 -5 -38 -3t-34 14q-8 7 -9.5 14t0.5 14.5t5 15t4 14.5q30 33 69 58.5t83 39.5t90 13.5t88 -20.5zM162 32q0 -11 -6 -25.5t-23 -14.5q-17 -6 -28 2.5t-19 19.5q-5 19 6 33.5
t30 16.5q11 -2 25.5 -9t14.5 -23z" />
    <glyph glyph-name="at" unicode="@" horiz-adv-x="506" 
d="M525 512q6 -45 -2 -84.5t-14 -81.5l-32.5 -62.5t-40.5 -63.5t-52.5 -52.5t-68.5 -28.5q-23 -8 -51.5 -12t-54.5 10q-15 7 -19.5 18t-3.5 24t5.5 25.5t9.5 22.5q11 24 29 43.5t44 24.5q11 2 22.5 2.5t22 3.5t18.5 9t12 18q0 23 -5.5 45t-28.5 38q-15 4 -31.5 0t-27.5 -18
q-8 -4 -11 -12.5t-15 -8.5q-6 16 1 31t15 26q7 10 17 14.5t20.5 6t21.5 1t21 -0.5q29 -16 35.5 -40.5t4 -52.5t-6 -57.5t5.5 -56.5q5 -10 17.5 -15.5t26.5 -0.5q54 45 74.5 106t10.5 130q-6 17 -16.5 32t-27.5 25q-34 6 -66.5 3t-64.5 -11t-63 -18.5l-62 -20.5
q-38 -20 -65.5 -50t-45 -65.5t-26.5 -75.5t-10 -80q2 -13 3 -26t4.5 -25t11 -22.5t22.5 -17.5q11 -9 28.5 -8.5t33.5 0t25 -7t3 -28.5q-9 -13 -22.5 -17.5t-28.5 -4t-30 3.5t-27 5q-30 6 -46.5 32t-20.5 53q2 31 9.5 60t17 57.5l19 57t16.5 58.5q6 25 18 51t30 48t41.5 38.5
t52.5 23.5q23 5 51 13t58 15t60 10.5t57.5 -0.5t51 -17.5t40.5 -41.5zM243 186q27 -8 52.5 -1.5t45.5 22.5q-2 10 0 21.5t-2 19.5q-6 16 -20 24.5t-29 6.5q-20 -4 -33.5 -16t-21.5 -28q-4 -11 -3.5 -26t11.5 -23z" />
    <glyph glyph-name="A" unicode="A" horiz-adv-x="537" 
d="M433 296q-1 -7 -1 -13.5v-13.5q0 -48 8 -92.5t17 -89t17 -89t8 -90.5q0 -20 -14 -35.5t-31 -22.5q-43 0 -62 40q-5 28 -7 54t-2 52q0 38 3.5 75t7.5 74t7.5 74.5t3.5 76.5q-7 20 -25 27t-39 7q-22 0 -38 -3q-31 -10 -58.5 -27.5t-44.5 -43.5q-17 -33 -25 -71.5t-18 -75.5
t-27.5 -69t-54.5 -52q-30 0 -49 13q-10 20 -10 39q0 30 20.5 54.5t44.5 48.5t44.5 50t20.5 60v7q-9 17 -23 22t-30 5l-34 -1q-12 0 -22 2.5t-16 11.5q25 14 56 17t60 8.5t53.5 21.5t36.5 56l29.5 92.5t36.5 91t50 84t71 71.5q5 2 9 2h8q17 0 30 -9.5t20 -23.5q13 -30 13 -64
q0 -39 -10.5 -77.5t-10.5 -74.5q0 -23 8 -45.5t31 -42.5q-3 -14 -13 -26l-21 -24t-19.5 -25.5t-8.5 -29.5v-6zM384 403q6 10 8.5 22t2.5 26q0 15 -2 29.5t-4 27.5q0 2 -0.5 3.5t-0.5 3.5l-2.5 12t-3.5 13.5t-6.5 11t-11.5 4.5q-4 0 -7 -1l-85 -125q-1 -7 -3 -15t-2 -16
q0 -9 4 -18t15 -14q12 0 25.5 0.5t27 4t25.5 10.5t20 21z" />
    <glyph glyph-name="B" unicode="B" horiz-adv-x="543" 
d="M406 424q45 -53 70 -111.5t25 -127.5q0 -14 -1 -27t-3 -27q-14 -25 -32 -51.5t-40.5 -50t-49 -41t-56.5 -23.5q-33 -3 -69 -3t-72.5 4.5t-68.5 15.5t-59.5 31t-45.5 51q-2 5 -2 9v9q0 19 9 33t21 26.5l24.5 24.5t19.5 27q28 60 39 127t11 137q0 59 -6 116
q-9 9 -21.5 12.5t-24 5.5t-21.5 6.5t-15 16.5q10 30 30 50t45.5 33.5t54.5 21.5t57 14l23 5h37q23 0 43 -3t36 -17q17 -14 27 -32t10 -38q0 -13 -4 -25q-12 -19 -28 -34.5t-33.5 -29.5l-35 -27.5t-31.5 -28.5q12 -16 30 -24.5t37.5 -15t38 -15t31.5 -24.5zM372 110
q32 34 57.5 74t25.5 86q0 11 -1.5 23t-6.5 24q-19 34 -46 62.5t-62 44.5l-14 2q-20 3 -39.5 5.5t-39.5 2.5t-39.5 -3.5t-36.5 -14.5q-19 -41 -27 -85.5t-8 -90.5q0 -38 5 -76.5t13 -74.5l25 -29q30 -8 57 -8q39 0 74.5 14.5t62.5 43.5zM207 623q0 -2 -0.5 -2.5t-0.5 -2.5
q0 -1 -0.5 -1.5t-0.5 -1.5q-2 -6 -3 -12t-1 -12q0 -15 10 -22q22 3 43.5 21.5t31.5 40.5q-5 8 -13 11t-17 3q-14 0 -27.5 -6t-21.5 -16z" />
    <glyph glyph-name="C" unicode="C" horiz-adv-x="480" 
d="M457 615q1 -4 1.5 -7t0.5 -6q0 -18 -11.5 -27t-27 -13.5t-33 -7.5t-29.5 -10q-48 -34 -93.5 -74.5t-85 -87t-70 -97.5t-48.5 -106q-2 -8 -2 -14.5v-14.5q0 -42 20.5 -77t56.5 -56q36 -10 71 -10q57 0 108.5 21t101.5 44q15 -2 30 -7.5t18 -23.5q-9 -41 -42 -67t-73 -41.5
t-79.5 -21.5t-61.5 -6q-37 0 -75.5 9t-70 30.5t-51.5 56t-20 85.5q0 46 16 89.5t38.5 85.5l46 82.5t39.5 81.5q15 37 39.5 72.5t56 65.5t67.5 53t75 35q13 0 26.5 -0.5t26 -4t21.5 -11t13 -20.5z" />
    <glyph glyph-name="D" unicode="D" horiz-adv-x="581" 
d="M549 560q20 -35 29 -68t9 -65q0 -57 -24 -110t-58.5 -104t-74.5 -99.5t-71 -96.5l-89 -62t-90.5 -55.5t-97 -40t-107.5 -15.5q-13 0 -25.5 5t-22 13t-15.5 18.5t-6 21.5q0 12 3 24.5t10 22.5t18 16.5t26 6.5q21 0 42 -10.5t43 -10.5q9 0 20 4t21 11t17 16.5t7 20.5
q0 13 -4.5 27.5t-7.5 27.5q9 52 20.5 105t22 107t18 109.5t7.5 113.5q0 19 -1 38t-3 39q-12 12 -31 15t-39 3q-9 0 -18 -0.5t-17 -0.5q-23 0 -40.5 7t-17.5 34q0 18 6 29t16 17t21.5 8t23.5 2q11 0 23 -0.5t24 -0.5t23 1.5t21 7.5q11 1 23 1h23q50 0 98.5 -5.5t92.5 -20
t83 -40.5t69 -67zM490 244q19 27 30 61t11 69q0 44 -20 82.5t-51 66.5t-70 44t-76 16q-36 -42 -60 -90.5t-41 -101t-29 -107l-24 -108.5q4 -34 15 -64t48 -54q75 20 145.5 66.5t121.5 119.5z" />
    <glyph glyph-name="E" unicode="E" horiz-adv-x="542" 
d="M542 675q-4 -32 -23.5 -43t-46 -13t-54.5 -1.5t-50 -8.5q-31 -6 -61 -17t-55.5 -28.5t-44 -42t-26.5 -56.5q-5 -20 -16 -38.5t-11 -37.5q0 -13 6.5 -21t16.5 -12t21 -5.5t20 -1.5q33 0 68 10.5t73 10.5q6 0 12 -0.5t12 -1.5l12 -15l-16 -16q-23 -8 -55 -11.5l-65.5 -7.5
t-66.5 -10.5t-59 -20.5t-42 -36.5t-16 -58.5q0 -20 5.5 -41.5t17.5 -40.5t30.5 -31t44.5 -12q43 0 82 12.5t76.5 30l75 35.5t77.5 29q2 1 6 1q8 0 15.5 -4.5t9.5 -11.5q-7 -22 -22.5 -38t-34.5 -29.5t-39 -26t-36 -27.5q-22 -13 -47.5 -26t-53 -23t-56 -16.5t-56.5 -6.5
q-39 0 -70.5 13t-54.5 34.5t-35.5 49.5t-12.5 59q0 29 8 58t22 56q14 29 30.5 58.5t30 60t22.5 62.5t9 67v9q3 18 2.5 36t0.5 36t6 35t18 32q66 34 138.5 60t150.5 26q14 0 30 -0.5t30.5 -4t26.5 -12.5t20 -26z" />
    <glyph glyph-name="F" unicode="F" horiz-adv-x="489" 
d="M507 692q18 -18 18 -43q0 -26 -12.5 -38t-26.5 -12q-17 0 -36 7t-35 7h-4q-30 -9 -62 -15.5t-63 -16.5t-57.5 -25.5t-44.5 -42.5q0 -17 -5 -35l-10.5 -36l-10.5 -36t-5 -34q0 -17 6.5 -31.5t24.5 -26.5q32 2 61.5 10l58.5 16.5t57.5 15.5t58.5 7h9.5t9.5 -1v-8
q-37 -15 -77.5 -26t-80.5 -24.5t-76 -33t-64 -52.5v-9q0 -26 4 -51.5t9.5 -50.5t9.5 -49.5t4 -49.5q0 -24 -7 -39.5t-35 -15.5q-18 0 -30 14t-18.5 33t-9 38.5t-2.5 30.5q0 31 4.5 63.5t4.5 64.5q0 17 -2 33t-8 32q9 23 10 48.5l2 51t7 49.5t25 42q3 15 3 29q0 15 -15 27
q-5 -1 -14 -1q-13 0 -27 4t-26 11t-19.5 17.5t-7.5 23.5q0 12 10 21q15 9 51 21.5t81 26.5l94.5 28t93 25t75 18t41.5 7q15 0 29.5 -4t28.5 -15z" />
    <glyph glyph-name="G" unicode="G" horiz-adv-x="578" 
d="M560 699q11 -11 19.5 -25t8.5 -30q0 -14 -7 -25q-14 -17 -33 -17q-10 0 -18 4q-16 14 -31.5 19t-30.5 5q-24 0 -47.5 -11t-46.5 -25l-46.5 -27.5t-47.5 -19.5q-34 -35 -72.5 -70.5t-71.5 -73.5t-55 -79t-22 -86q0 -37 18 -77q19 -28 44.5 -37.5t54.5 -9.5q14 0 28.5 1.5
t28.5 3.5q67 26 129 66.5t113 94.5q2 5 13 5q5 0 9 -0.5t7 -0.5q20 -26 25 -59t5 -68v-60q-4 -39 -6.5 -70l-4.5 -56.5t-3 -47t-1 -42.5q0 -22 0.5 -44t2 -48.5t3.5 -57.5t4 -71v-1q0 -18 -15.5 -31t-31.5 -23q-5 -2 -9.5 -2h-9.5q-20 0 -36.5 11t-24.5 33q-10 44 -10 94
q0 72 11.5 144t19.5 144q4 8 9 26q5 15 12 40.5l18 65.5q-10 6 -17 9.5t-17 3.5q-24 -32 -53 -60t-61 -49t-68 -33t-74 -12q-20 0 -45 5q-19 4 -38 14.5t-35 26t-27 34.5t-14 40q3 115 44 216t104 195l66.5 58t74 54.5t80 40.5t85.5 16q46 0 93 -21z" />
    <glyph glyph-name="H" unicode="H" horiz-adv-x="492" 
d="M158 747q44 -96 44 -209q0 -51 -9 -102v-5q0 -16 14.5 -26.5t25.5 -15.5q21 3 43 4t41.5 6t35.5 15.5t25 33.5q3 16 3 35l-5 91q0 29 8.5 52.5t37.5 37.5q20 0 31 -12.5t20 -26.5q3 -17 3 -33q0 -28 -4 -54t-4 -51q0 -20 5 -40t20 -39q1 -3 1 -8q0 -12 -7 -22.5t-16 -20
l-18 -19t-12 -20.5q-13 -44 -16 -95t-3 -102v-83q-3 -18 -18 -31.5t-29 -19.5q-8 -2 -11 -2q-17 0 -28.5 12.5t-16.5 24.5q8 30 19.5 59.5t22 59.5t18 60.5t7.5 63.5q0 25 -4 45q-13 20 -30 27.5t-37 7.5q-31 0 -64.5 -11t-61.5 -16q-29 -32 -39 -71.5t-10 -82.5
q0 -40 4.5 -80t5.5 -77v-2q0 -20 -11.5 -38t-31.5 -23q-10 -2 -15 -2q-16 0 -27.5 9t-16.5 24q-3 11 -4 20.5t-1 19.5l70 226q0 20 -6 41q-6 20 -20.5 25.5t-30 8t-29.5 7t-19 22.5q13 8 27.5 13.5t28.5 11.5t26 14.5t21 23.5l1 75q0 26 -2 52t-8 51t-18 47.5t-32 42.5
q-1 4 -1 11q0 17 7 32t17 28q16 14 40 14t43 -14z" />
    <glyph glyph-name="I" unicode="I" horiz-adv-x="209" 
d="M180 709q-7 -56 -19 -112t-23 -113t-19.5 -113.5t-8.5 -112.5q0 -50 8.5 -98.5t28.5 -96.5q-5 -29 -18 -54t-38 -35q-9 -4 -20 -4q-22 0 -36.5 16t-21.5 33l32.5 213.5t16.5 221.5q0 91 -16 177q0 17 2.5 35t8.5 34.5t17 29t28 18.5q10 3 21 3q20 0 36 -11t21 -31z" />
    <glyph glyph-name="J" unicode="J" horiz-adv-x="373" 
d="M316 625q1 -20 1.5 -40t0.5 -40q0 -117 -10 -240.5t-10 -243.5v-32t1 -32q-14 -45 -36 -91.5t-53 -87.5t-71 -73t-90 -47q-81 3 -162.5 15t-156.5 47q-22 15 -32 37.5t-13 44.5q0 24 8 46.5t33 34.5q5 6 12 8t15 2q9 0 17.5 -1.5t15.5 -3.5h1l49 -99q16 -1 34 -5l37 -8
t38 -7t38 -3q22 0 42 5.5t37 21.5q42 37 78.5 78.5t63.5 88t42.5 98t15.5 108.5q2 11 2 21.5v21.5q0 39 -6 78.5t-13.5 78.5t-13.5 78t-6 77q0 39 9 77q4 14 13.5 20t20.5 6q17 0 31.5 -11t16.5 -28z" />
    <glyph glyph-name="K" unicode="K" horiz-adv-x="608" 
d="M230 685q10 -30 10 -64q0 -33 -5 -68.5t-5 -71.5q15 -17 28 -17q10 0 21 9l16 17l50 51t52.5 45t57.5 32t64 12q6 0 12.5 -0.5t13.5 -1.5q13 -5 22.5 -16t9.5 -25q0 -7 -5 -17q-20 -15 -41.5 -26.5t-42.5 -21.5l-41.5 -20.5t-38.5 -24.5q-33 -25 -68 -47.5t-68 -47.5
t-62.5 -54.5t-50.5 -67.5q-7 -13 -7 -26q0 -20 13.5 -39.5t33.5 -32.5q45 -12 93.5 -14t97 -3t96 -5.5t90.5 -21.5q8 -5 10.5 -11.5t2.5 -14.5q0 -9 -2.5 -18t-5.5 -18q-31 -14 -67 -14l-139 15h-10t-10 -1q-51 3 -95.5 8.5t-95.5 9.5q-13 -12 -19 -28t-11 -31.5t-13 -29.5
t-24 -22q-7 -2 -13.5 -3t-14.5 -1q-19 0 -35 8.5t-21 30.5q-3 15 -3 29q0 34 13 63.5t29 59t30 60.5t15 67q14 42 26 92t12 100q0 32 -7.5 62.5t-25.5 56.5q0 20 3 40t10 38t19 32t30 23q4 2 8 2h8q18 0 31.5 -10.5t18.5 -27.5z" />
    <glyph glyph-name="L" unicode="L" horiz-adv-x="423" 
d="M276 637q0 -50 -13 -103.5t-32 -106.5t-40 -103.5t-37 -95.5q-17 -50 -32.5 -108.5t-15.5 -117.5q0 -37 8 -72t28 -66q14 -24 38 -45t54 -21q16 0 31 7l258 118q3 1 10 1q12 0 21 -7t12 -21q-14 -44 -44 -75t-67.5 -56t-77.5 -47t-74 -48q-23 -8 -48 -14t-51 -6
q-24 0 -46.5 6t-42.5 20q-48 43 -65 93t-17 106q0 42 6.5 85t15 87.5t15 88.5t6.5 87q0 14 -1 27t-3 27q14 44 21.5 100.5t19 113.5t31 109t57.5 86q4 1 7 1.5t7 0.5q23 0 38 -17t23 -34z" />
    <glyph glyph-name="M" unicode="M" horiz-adv-x="777" 
d="M707 682q39 -45 53.5 -95t14.5 -104q0 -46 -7.5 -93t-17.5 -93.5l-19.5 -91.5t-13.5 -87q-6 -70 -21.5 -135.5t-58.5 -116.5q-17 0 -33.5 7.5t-19.5 27.5v13q0 37 9.5 71t23.5 66.5t30.5 64t30.5 64t23.5 67t9.5 72.5q0 39 -1 78t-8 75t-21 69t-41 61q-10 2 -15 2
q-19 0 -35 -9.5t-31 -23t-29.5 -28.5t-30.5 -25q-25 -24 -40 -52.5t-22.5 -60t-10 -65t-2.5 -67.5l1 -85v-21t-1 -20q-3 -5 -10 -10t-15 -5q-7 0 -11 6q-7 35 -7 78l2 88v9q0 36 -7.5 70t-27.5 64l-30.5 42.5t-39.5 33.5q-47 -2 -79 -25t-54 -57.5t-36 -75t-24 -77.5
q-3 -21 -3 -41q0 -24 4 -46.5t10 -48t14 -54.5t16 -65q-2 -39 -13 -55t-29 -28q-7 -5 -16.5 -9t-18.5 -4q-8 0 -13 4q-17 21 -24 43.5t-7 45.5q0 25 6 51.5t13.5 52l14.5 50t9 47.5l2 17q4 51 10.5 103t22 99.5t43.5 86.5t76 65q34 14 64 14q50 0 91 -36q7 -8 12 -18t11 -19
t13.5 -15t18.5 -6l7 1q23 43 56.5 86.5t80.5 72.5q18 11 38.5 17t41.5 6q39 0 71 -23z" />
    <glyph glyph-name="N" unicode="N" horiz-adv-x="804" 
d="M842 1026q18 -7 25 -21t7 -30t-5.5 -32t-13.5 -27q-30 -57 -58 -100l-51.5 -79.5t-41 -70.5t-26.5 -72q-22 -41 -43.5 -94t-39 -110t-28 -112.5t-10.5 -101.5q0 -37 7 -61q6 -21 6 -40q0 -38 -19 -66t-51 -39q-8 -3 -14 -3q-11 0 -19.5 5.5t-15 13.5t-11 18t-7.5 18
q-3 31 -3 75t1.5 94t1.5 102q0 76 -7 145t-31 112q-10 9 -19.5 12.5t-19.5 3.5q-11 0 -22.5 -3.5t-23.5 -8.5q-43 -18 -71 -58.5t-45.5 -89.5t-27 -99t-15.5 -89l-3 -16q5 -17 6.5 -36t1.5 -38q0 -38 -6 -76.5t-13.5 -71.5l-13.5 -57.5t-7 -36.5q-7 -15 -21 -23t-29 -8
q-10 0 -22 5q-21 20 -29 44t-8 50q0 43 13.5 87t23.5 81q23 36 39.5 82l33 96t35.5 101t47.5 98t69 86.5t100.5 65.5q10 0 21 -4t22 -9.5t21 -12l18 -11.5q12 -12 17.5 -37t7.5 -56t2.5 -65t2 -64.5t6 -55.5t15.5 -38q2 -1 6 -1q9 0 15.5 11t11 25.5t7 29.5t4.5 24
q0 2 0.5 3t0.5 2q9 105 38 194t62 158t62.5 116t40.5 67z" />
    <glyph glyph-name="O" unicode="O" horiz-adv-x="755" 
d="M653 635q42 -51 60 -117t18 -136q0 -63 -13.5 -124.5t-38.5 -112.5q-26 -54 -65 -92.5t-86.5 -62.5t-100 -35t-106.5 -11l-87 16t-85.5 23.5t-72 43.5t-45.5 75q-22 56 -22 114q0 45 12.5 88.5t34 84.5t50.5 78.5t63 71.5q70 71 163.5 100t193.5 29q14 0 28 -0.5t28 -1.5
h3zM500 81q30 10 60 28t56 43t44.5 55t24.5 64q2 15 3.5 29.5t1.5 28.5q0 55 -19 103.5t-60 86.5q-28 27 -58.5 38.5t-62.5 11.5q-35 0 -71 -11.5t-70.5 -28t-67 -35l-60.5 -33.5l-52 -50.5t-52 -55t-39.5 -60t-15.5 -67.5q0 -14 2.5 -28t8.5 -29q21 -32 47.5 -52.5
t57 -32.5t64.5 -16.5t70 -4.5q38 0 76.5 3.5t75.5 8.5z" />
    <glyph glyph-name="P" unicode="P" horiz-adv-x="592" 
d="M632 634q3 -18 3 -36q0 -69 -36.5 -128t-99.5 -97q-78 -46 -159.5 -80t-169.5 -57q-27 -20 -34.5 -47t-7.5 -56l2 -65v-7q0 -27 -8 -50.5t-34 -40.5l-8 -1q-17 0 -31.5 10t-20.5 26q-2 10 -3.5 19t-1.5 18q0 25 7.5 47.5t17.5 44t21 42.5t19 43q12 37 18 77.5t6 82.5
q0 58 -11 113q3 14 8 23t18 16q24 -4 32 -17t8 -30q0 -21 -6 -46t-6 -47q0 -5 0.5 -9t1.5 -9q-10 -21 -10 -48q0 -10 1 -19.5t4 -18.5q7 -14 17.5 -19t22.5 -5q13 0 26 3t24 4q40 24 84 47t83.5 51t72.5 63t51 83l1 38q0 23 -6.5 42t-32.5 27q-29 9 -57 12.5t-56 3.5
q-41 0 -80.5 -7t-78 -17.5t-75.5 -24.5l-73 -27q-3 -1 -10 -1q-15 0 -26 7.5t-19 19.5q-3 9 -3 16q0 20 14.5 35t31.5 26q69 29 152.5 50.5t168.5 21.5q54 0 106 -11t99 -36z" />
    <glyph glyph-name="Q" unicode="Q" horiz-adv-x="725" 
d="M765 572q12 -26 12 -50q0 -23 -7.5 -44.5t-17 -42.5l-18.5 -41.5t-13 -40.5q-51 -79 -114.5 -149.5l-126.5 -139.5v-15q0 -78 26 -148.5t70 -133.5l-2 -26t-4 -24.5t-9.5 -20t-19.5 -13.5h-10q-37 0 -58.5 18t-35 45t-23 57.5t-22.5 54.5q-9 16 -11.5 34t-6 35
t-10.5 33.5t-24 29.5q-24 -5 -48.5 -8.5t-50.5 -3.5q-48 0 -94 13.5t-83 46.5q-32 45 -46.5 100.5t-14.5 115.5q0 52 11 102t33 93q36 72 95.5 122t131.5 66q25 9 52 9q42 0 80 -9.5t76 -9.5q22 0 43.5 6t42.5 22q7 1 13.5 1h12.5q54 0 96 -23t75 -61zM498 160
q48 24 85 60.5t62 80.5t37.5 93t12.5 98v14l-22 33.5t-31 23.5h-9l-83 5q-26 0 -50 -9.5t-42 -39.5q-17 3 -33 3q-23 0 -44.5 -6t-42 -12.5t-41.5 -12.5t-43 -6q-8 0 -16 1t-16 3q-30 -13 -57 -33.5t-48.5 -46t-37.5 -54.5t-23 -59q-6 -26 -6 -53q0 -38 16.5 -73t50.5 -58
q23 -19 52 -26.5t59 -7.5q23 0 44.5 3.5t41.5 8.5q23 11 29.5 32.5t6.5 45.5q0 13 -1 26t-1 25l1 16q15 15 25 15t16 -12t12 -28t15 -30.5t24 -19.5q12 -5 23 -5q8 0 17 1.5t17 3.5z" />
    <glyph glyph-name="R" unicode="R" horiz-adv-x="531" 
d="M460 646q15 -24 17.5 -56.5t2.5 -58.5q-19 -40 -45.5 -69t-58 -51t-66 -39.5l-69 -35t-67 -37.5t-60.5 -47q-5 -12 -5 -21q0 -21 15 -38t33 -24q43 -16 89 -26l92 -21t90 -26.5t84 -42.5q16 -16 16 -39q0 -12 -4 -21q-22 -15 -48 -15q-20 0 -39.5 8t-39 19t-39.5 21
t-41 15q-48 11 -93 27t-90 36q-11 -11 -11 -21l25 -73q0 -9 -6.5 -17.5t-23.5 -15.5l-8 -1q-22 0 -41 13.5t-27 35.5q-10 18 -14 35t-4 34q0 23 5.5 46t13 46l14.5 46.5t9 47.5q29 41 38.5 94.5t9.5 106.5v73q6 11 16.5 16t21.5 5q13 0 25 -5q18 -20 18 -40q0 -14 -3.5 -28
t-8 -29t-8 -30.5t-3.5 -30.5v-8.5t1 -8.5q6 -11 16 -15t21 -4q17 0 27 7l47 33.5t46.5 38t35.5 45.5t14 55v11l1 6q0 15 -12.5 27t-19.5 23q-19 8 -37.5 10.5t-38.5 2.5l-173 -17q-23 0 -42 4q-11 5 -15.5 14t-4.5 19q0 14 8 27q42 20 96 33t111 13q61 0 116.5 -18.5
t90.5 -63.5z" />
    <glyph glyph-name="S" unicode="S" horiz-adv-x="501" 
d="M433 706q16 -10 23.5 -25.5t7.5 -33.5q0 -17 -6 -33q-5 -12 -14 -17t-20 -5q-12 0 -25 5q-11 23 -29.5 34t-39.5 11q-8 0 -17.5 -1.5t-17.5 -5.5q-23 -8 -48 -14.5t-49 -16t-45.5 -25t-36.5 -40.5q-3 -10 -4 -18.5t-1 -17.5q0 -30 13.5 -57.5t34.5 -51t46 -44t48 -36.5
q28 -26 66 -49t71.5 -50t57 -59.5t23.5 -76.5v-9.5t-1 -9.5q-40 -50 -98 -68.5t-123 -18.5q-53 0 -105.5 8.5t-98.5 19.5l-25.5 20.5t-12.5 29.5q4 13 10.5 24t19.5 14q48 -2 100.5 -11.5t106.5 -9.5q28 0 55.5 4.5t53.5 16.5q11 9 18 22t7 27q0 11 -4 18q-21 43 -55.5 74.5
t-73.5 58.5l-78.5 52.5t-71.5 55.5t-52 68.5t-20 92.5v11.5t1 11.5q26 39 61.5 67t76.5 46.5t86 27t92 8.5q30 0 59 -3z" />
    <glyph glyph-name="T" unicode="T" horiz-adv-x="533" 
d="M664 733q3 -9 3 -16q0 -20 -14.5 -34t-30.5 -19l-240 -47l-26 -26q-16 -53 -34 -107t-33.5 -109t-26 -110.5t-10.5 -112.5q0 -25 2.5 -50t7.5 -50q0 -12 -0.5 -25.5t-4 -25.5t-11.5 -21t-22 -13q-2 0 -4 -0.5t-4 -0.5q-23 0 -37 17.5t-19 38.5l-1 16q0 39 11.5 73t25 67
t25 67t11.5 72q0 51 7 102t7 101q0 16 -1 31.5t-4 31.5l-26 13q-50 -5 -97 -15.5t-95 -10.5q-17 0 -34 2t-35 7q-8 6 -14 16.5t-6 21.5q0 14 12 26l42 25q149 23 293 43t289 52h27q20 0 39 -5.5t28 -24.5z" />
    <glyph glyph-name="U" unicode="U" horiz-adv-x="679" 
d="M726 671q1 -5 1 -8.5v-8.5q0 -33 -12.5 -61.5t-28.5 -56l-31 -55.5t-19 -60q-48 -94 -65.5 -202t-17.5 -218v-28t1 -28q-8 -17 -22 -25.5t-29 -8.5t-26 7q-22 12 -29 33t-7 46q0 17 2.5 35t4.5 34l2 10q-12 11 -25 11q-12 0 -23 -9t-21.5 -20t-21.5 -21t-23 -11
l-74 -31.5t-79 -16.5q-34 0 -65 17q-35 15 -56 39.5t-32 55.5t-15 65.5t-4 70.5q0 19 0.5 37.5t1.5 36.5q0 5 0.5 9t0.5 8l6 33q9 50 20.5 101t32.5 96.5t55.5 82.5t89.5 59q4 1 11 1q18 0 34 -10t19 -27q-10 -32 -33 -59t-49 -53.5l-51 -54t-40 -60.5l-4 -10
q-17 -39 -33.5 -83.5t-16.5 -89.5q0 -20 4 -38.5t14 -37.5q17 -20 35 -39t42 -33q9 -2 18.5 -2h18.5q52 0 101.5 17t92.5 46.5t79 69.5t62 86q17 31 27 65.5t16.5 70.5l12.5 71.5t16 69.5t26 65.5t43 57.5q7 3 15 3q19 0 32.5 -15t15.5 -29z" />
    <glyph glyph-name="V" unicode="V" 
d="M707 787q-9 -34 -27.5 -65t-40.5 -60.5l-46 -59t-43 -60.5q-99 -112 -164 -237.5t-100 -263.5q-14 -28 -39 -49.5t-54 -29.5q-18 -8 -32 -8q-20 0 -36.5 9.5t-28.5 21.5q-23 24 -31 54t-10 62.5t-1 66t-4 63.5q-2 27 -9.5 55t-16.5 56.5t-16 56.5t-7 55q0 23 6.5 43.5
t23.5 40.5q4 1 12 1q10 0 18 -4.5t10 -15.5q0 -8 -0.5 -15t-0.5 -15q-1 -19 -1 -37.5v-37.5q0 -44 3 -86.5t12 -83t26 -78t46 -69.5q10 -2 15 -2q21 0 40.5 13t36.5 31q55 78 93 163.5l74.5 171t80 168t109.5 155.5q10 11 25 17t30 6q16 0 29 -7.5t18 -25.5z" />
    <glyph glyph-name="W" unicode="W" horiz-adv-x="857" 
d="M1168 1053l1 -12q0 -30 -15 -52.5t-34.5 -42.5l-40 -41.5t-30.5 -48.5q-57 -62 -91.5 -119t-62 -114l-55 -117t-70.5 -127q-27 -33 -43.5 -77t-31 -90.5t-30.5 -91.5t-40.5 -80.5t-62 -57t-95.5 -21.5l-19 1q-36 15 -55 38t-28 51t-10.5 59.5t-2 64t-4 63.5t-15.5 59
q-13 15 -33 15q-12 0 -22 -6q-23 -20 -36.5 -45t-22 -52t-14 -55.5t-13 -55.5t-19.5 -51.5t-32 -43.5q-13 -7 -28 -7q-23 0 -42 14t-27 35q-7 41 -11.5 83.5t-10 85t-14 84.5t-23.5 82v19q0 14 3.5 24.5t19.5 15.5q33 -8 41.5 -33t8.5 -56l-1 -40q0 -14 1 -26.5t5 -23.5
q4 -14 7.5 -28.5t8.5 -28.5t14 -26.5t25 -21.5q26 0 41 12t24.5 30t17.5 40t20 42q18 39 30.5 62.5t25 37.5t26.5 23t35 19q3 1 7 1q14 0 25 -11.5t14 -26.5q-2 -23 -3 -45t-1 -44q0 -59 16 -112.5t66 -91.5q19 -8 35 -8q28 0 50 16t43 34l5 4q34 49 55 96t35 92t25.5 89
t25.5 88.5t34.5 90t53.5 93.5q52 97 114 186.5t134 180.5h96z" />
    <glyph glyph-name="X" unicode="X" horiz-adv-x="623" 
d="M725 652q-10 -31 -30 -55t-44.5 -44.5t-50.5 -39.5t-48 -40q-21 -26 -51.5 -52t-58 -55t-47 -61t-19.5 -69q0 -21 7 -41q10 -43 33 -83.5t54 -76.5t67.5 -67.5t73.5 -56.5q23 -16 23 -44q0 -12 -5 -25q-9 -13 -21.5 -18.5t-25.5 -5.5t-26 5q-43 22 -76 55t-58 73
t-43 83.5t-30 86.5q-11 18 -23 29t-27 11q-11 0 -21 -5q-46 -28 -71 -66.5t-45 -79.5t-42.5 -81t-63.5 -71h-6q-19 0 -34.5 14.5t-24.5 39.5q-3 13 -3 26q0 30 16 54t39 46t48 43t43 47q11 16 34.5 37t47 46.5t41 55.5t17.5 64q0 24 -10 47q-8 19 -22.5 36l-29 34.5
t-25 35.5t-10.5 39q0 15 5 28q9 12 23.5 20.5t30.5 8.5q15 0 28 -10q22 -11 30 -33.5t13.5 -45t15.5 -39t36 -16.5h10t10 2q54 75 126.5 140.5t151.5 110.5q4 1 12 1q19 0 36 -9t20 -29z" />
    <glyph glyph-name="Y" unicode="Y" horiz-adv-x="506" 
d="M542 654q-1 -35 -17 -63.5t-37.5 -55l-44 -52.5t-37.5 -56q-17 -23 -24 -49.5t-18 -52.5q-47 -31 -69 -72.5t-34.5 -87.5t-22.5 -92.5t-33 -87.5q-10 -34 -15 -71t-9 -74.5t-9 -73.5t-16 -69q-15 -19 -38 -19q-11 0 -19 4q-21 17 -28.5 38.5t-7.5 45.5q0 35 8.5 72
t8.5 72v10q20 100 66.5 187.5t115.5 168.5q2 8 3 16.5t1 17.5t-1.5 17t-6.5 13l-68.5 50.5t-68 51t-64 56t-56.5 65.5q-7 8 -7 19q0 12 8.5 22t21.5 12q36 0 59.5 -18.5t41.5 -44.5t35.5 -54.5t41.5 -48.5q11 -8 21 -18l20 -20t21 -16.5t24 -6.5q10 0 19 4q32 33 50.5 72.5
l36.5 78.5t41.5 74t64.5 59q3 1 10 1q12 0 22 -6t10 -18z" />
    <glyph glyph-name="Z" unicode="Z" horiz-adv-x="596" 
d="M513 540q8 -29 8 -51q0 -44 -19.5 -82.5t-44.5 -75.5l-49.5 -74.5t-33.5 -78.5q-38 -18 -75 -47t-68 -64.5t-53 -76t-29 -81.5l33 -20q29 1 58.5 1h58.5l515 -7q14 -9 14 -21q0 -7 -9 -13q-38 -26 -84.5 -36t-94.5 -12q-83 -22 -162.5 -34.5t-164.5 -12.5q-111 0 -232 25
q-21 11 -41 26t-24 41q-4 12 -4 25q0 21 11 40t27.5 35.5t36 32t36 30.5t27.5 31t11 33q0 15 -10 31.5t-34 35.5q5 18 18.5 25.5t31.5 10.5t37.5 4.5t36.5 7.5q34 19 62 49t48 66t31 75.5t11 77.5v12q-14 22 -38 29.5t-52 7.5q-27 0 -54 -4t-49 -5q-4 1 -11 1
q-18 0 -36.5 -8t-36 -18t-34 -18t-32.5 -8q-14 0 -27 9t-25 33l-1 10q0 18 8 34.5t21 32.5q51 35 117 46t135 11q28 0 55.5 -1l53.5 -2q9 -1 17.5 -1h16.5l9 -5q23 -13 46.5 -29.5t36.5 -42.5z" />
    <glyph glyph-name="bracketleft" unicode="[" horiz-adv-x="436" 
d="M466 727q1 -3 1 -8q0 -10 -5.5 -16t-13.5 -10t-16.5 -6.5t-14.5 -5.5q-21 -10 -51 -10h-37q-32 0 -61 -6.5t-46 -33.5q-20 -83 -53 -161.5t-61 -159.5q-5 -22 -5 -40v-8l5 -97q0 -18 -2.5 -36.5t-9.5 -37.5q10 -22 23 -29.5t30 -7.5l89 14q14 0 27 -6.5t22 -23.5
q0 -17 -8.5 -31.5t-22.5 -20.5q-25 -11 -52.5 -16t-57 -7.5t-58.5 -3.5t-57 -4q-14 2 -26.5 11t-17.5 23q8 67 26.5 129.5t51.5 120.5q17 42 26 87t14.5 92t10.5 94.5t14 94.5q1 5 1.5 9t0.5 9l-2 40q0 15 4.5 27.5t19.5 19.5q61 14 121 20t120 17q5 1 14 1q17 0 32 -6.5
t25 -16.5z" />
    <glyph glyph-name="backslash" unicode="\" horiz-adv-x="558" 
d="M9 699q5 12 16.5 18t24.5 6q7 0 10 -1q41 -35 70 -78.5t54 -90l50.5 -92.5t59.5 -86l215 -250q14 -16 19 -36t5 -42v-12t-1 -12q-5 -13 -14 -21t-21 -8q-10 0 -19 6q-29 29 -50 70t-32 86q-24 61 -64 116t-87.5 107.5l-98 104.5t-93.5 106l-31 40.5t-15 48.5v10t2 10z
" />
    <glyph glyph-name="bracketright" unicode="]" horiz-adv-x="380" 
d="M407 729q-3 -56 -25 -103t-47 -92.5t-45.5 -93.5t-20.5 -105q-2 -8 -2 -15v-15l31 -201q0 -19 -3.5 -37.5t-12.5 -38.5q-18 -16 -39 -23t-43.5 -11l-45 -8t-42.5 -13q-19 -9 -38.5 -15.5t-39.5 -6.5q-12 0 -24 3q-13 5 -18 15t-5 21q0 6 1 11.5t3 10.5q18 21 41.5 33.5
t49 21t51.5 14.5t50 14l32 32q18 61 22 127.5t7.5 133.5t12 131t35.5 120q2 6 2 7q0 7 -5 12l-10 10q-12 3 -27 3l-77 -4q-24 0 -44.5 7t-31.5 30q4 26 17.5 34t33.5 8q14 0 29.5 -2t31.5 -2q19 0 36 6q17 5 40 9.5t46 4.5t42.5 -7t31.5 -26z" />
    <glyph glyph-name="underscore" unicode="_" horiz-adv-x="548" 
d="M471 -57q10 -6 19.5 -14t1.5 -22l-15 -11q-111 2 -217 -1t-212 -1q-14 4 -17 17t1 24q3 9 9 13t13.5 6t16 2.5t16.5 2.5q100 0 193.5 -1t190.5 -15z" />
    <glyph glyph-name="grave" unicode="`" horiz-adv-x="566" 
d="M124 758q30 5 54 -10t47 -34q19 -15 40.5 -28.5l43 -27t41.5 -28t36 -30.5q-32 -3 -62.5 4.5t-60.5 19t-60 25t-61 22.5q-11 5 -20 16.5t-13 25t-1 26t16 19.5z" />
    <glyph glyph-name="a" unicode="a" horiz-adv-x="566" 
d="M489 544q14 -26 19.5 -52.5t5.5 -53.5q0 -29 -4.5 -58t-10.5 -58.5t-10.5 -59t-4.5 -59.5q0 -24 4 -48.5t15 -49.5q-6 -33 -26.5 -52.5t-47 -31.5t-55.5 -19t-52 -16l-71 -10t-73 -5t-69.5 7.5t-61.5 28.5q-20 16 -32 34t-12 38q0 6 1 12.5t4 13.5q39 47 87.5 79
t103 52.5t114 31.5t120.5 15q23 19 31.5 44.5t8.5 54.5q0 32 -8 64q-22 38 -60 38q-14 0 -27 -6l-27 -16.5t-28 -8.5h-5q-8 4 -11 9.5t-3 13.5q0 5 1 10l2 10q0 1 0.5 1.5t0.5 1.5q19 30 50.5 48t66.5 18t64 -21zM423 133q5 20 5 38q0 14 -3.5 26t-11.5 23
q-12 16 -28.5 20.5t-34.5 4.5l-39 -1q-27 -12 -60 -21.5t-62.5 -24.5t-50.5 -39t-25 -65q13 -20 33 -25.5t44 -5.5l73 3q21 7 43 10.5t43.5 9.5t40.5 16.5t33 30.5z" />
    <glyph glyph-name="b" unicode="b" horiz-adv-x="528" 
d="M202 706q-10 -63 -24.5 -122.5t-42.5 -113.5q-6 -15 -6 -35t9 -32q22 -16 49.5 -19.5t55.5 -6t54.5 -8.5t46.5 -27q39 -42 63.5 -96t24.5 -117q0 -11 -1 -22.5t-3 -23.5q-15 -34 -39 -62.5t-53 -52t-61.5 -41t-65.5 -29.5q-11 0 -24.5 -1.5t-26.5 -1.5t-24 3.5t-19 13.5
t-13 24t3 26q9 13 22 21t28 12t31 5.5t30 2.5q28 9 56 26t52 39.5t42.5 49.5t27.5 56q-3 21 -7.5 42.5t-13.5 41t-23.5 35.5t-36.5 26q-24 12 -54.5 19.5t-62.5 7.5q-23 0 -44.5 -4.5t-39.5 -15.5q-31 -29 -38.5 -65.5t-7.5 -75.5q0 -17 0.5 -33t0.5 -33q0 -30 -4.5 -58.5
t-18.5 -54.5q-13 -8 -24 -10t-26 0q-12 12 -17 24t-5 24q0 15 5.5 29.5t12.5 29.5l14 29.5t10 28.5q13 70 23.5 141t23.5 140t31 136.5t46 130.5q5 11 15 16.5t20 5.5q11 0 19.5 -6.5t9.5 -18.5z" />
    <glyph glyph-name="c" unicode="c" horiz-adv-x="543" 
d="M401 380q-32 -13 -71 -26t-76.5 -30.5t-69.5 -42.5t-50 -61q-17 -19 -23.5 -44.5t-6.5 -51.5q0 -30 6 -54q14 -22 30 -44.5t38 -33.5q15 -5 29 -6.5t28 -1.5q33 0 63 8.5t60 18.5t60 18.5t63 8.5h15.5t15.5 -2q8 -6 11.5 -15.5t3.5 -20.5q0 -19 -10 -32
q-30 -21 -65.5 -40t-73.5 -33t-77.5 -22t-78.5 -8q-42 0 -81.5 10.5t-74.5 34.5q-29 26 -39.5 55t-18.5 61q4 52 24.5 110t61.5 111.5t103.5 97.5t150.5 68q7 -3 16.5 -4t17.5 -3.5t13.5 -8t5.5 -17.5z" />
    <glyph glyph-name="d" unicode="d" horiz-adv-x="620" 
d="M597 744q-6 -65 -26 -122.5t-46 -112l-53.5 -108.5t-48.5 -111q-7 -19 -8.5 -40.5t-2 -43t-3.5 -42t-13 -37.5q-21 2 -28.5 14.5t-10.5 29t-5 33.5t-11 28q-5 15 -15 29.5t-24 26.5t-30 19t-33 7q-51 2 -91 -28t-66 -71q-8 -13 -11.5 -26t-3.5 -27q0 -28 11.5 -54.5
t27.5 -49.5q18 -20 39 -34t50 -17q52 3 97.5 23.5t89.5 44t89.5 41.5t98.5 17q6 -4 7.5 -8.5t0 -9t-4 -9.5t-3.5 -10q-42 -22 -87 -52.5t-91.5 -58t-95 -47t-97.5 -19.5q-32 0 -63.5 9.5t-63.5 31.5l-24 31.5t-22 33.5t-16.5 34.5t-6.5 36.5q0 26 14 51q12 29 29 62
t40.5 61.5t53 49t65.5 25.5q16 8 29 8q18 0 34.5 -9t31.5 -20t29 -20t28 -9q11 0 22.5 8.5t23.5 30.5q11 55 26 108t31.5 105.5t31.5 105.5t26 108q4 10 12.5 14.5t19.5 4.5q16 0 30.5 -9.5t16.5 -26.5z" />
    <glyph glyph-name="e" unicode="e" horiz-adv-x="461" 
d="M415 126q6 -15 3 -26.5t-11.5 -21t-19 -16.5l-19.5 -13q-41 -26 -90 -48.5t-100 -22.5q-25 0 -48 7t-45 24q-28 22 -44 48.5t-21 53.5q3 43 16.5 82.5t33.5 76t44.5 71t50.5 67.5q32 42 73 75.5t90 44.5q25 0 46.5 -14.5t29.5 -36.5q4 -15 4 -31q0 -34 -17.5 -60.5
t-43 -47.5t-54.5 -38t-52 -33q-16 -15 -38.5 -18.5l-44.5 -7t-41 -12.5t-28 -35q-7 -19 -3 -34.5t14 -28t23 -23.5t24 -22q12 -5 23.5 -6.5t22.5 -1.5q29 0 56 10l54 20.5t54.5 17.5t57.5 0zM176 350q-1 -5 -4 -11.5t-4.5 -13.5t0 -13.5t8.5 -11.5q5 -5 12 -7t15 -2
q9 0 18 1.5t17 3.5q19 9 40 22.5t38 31.5t28 39t10 45l-18 18q-26 0 -48 -9t-41.5 -23t-37 -32.5t-33.5 -37.5z" />
    <glyph glyph-name="f" unicode="f" horiz-adv-x="547" 
d="M799 822q5 -13 0.5 -25.5t-17.5 -17.5l-74.5 28.5t-79.5 11.5q-78 -5 -144.5 -43t-121 -94.5t-98.5 -124t-77 -130.5q-13 -32 -24 -65.5t-6 -71.5q12 -25 36 -31.5t47 1.5q29 4 56.5 13l54.5 18t54 16t56 7l10 -11q-14 -11 -31 -17.5t-35 -10.5t-35.5 -7t-32.5 -8
q-23 -11 -48 -16.5t-49.5 -12t-47 -18t-39.5 -33.5q3 -63 14.5 -129t19.5 -132q-5 -15 -15.5 -30t-28.5 -17q-23 -3 -36.5 12t-16.5 35q-4 23 -5 47t-1 49v94q0 17 -1 32.5t-3 31.5q-9 20 -25.5 24.5t-34 5t-32 3.5t-19.5 21q13 10 30 10.5l35 1t34.5 4.5t27.5 20
q18 25 25.5 55.5t11 63t8 65t16.5 61.5q27 64 69 130t97 121t121.5 91.5t143.5 41.5q11 1 21.5 1h21.5q51 0 94.5 -14t73.5 -57z" />
    <glyph glyph-name="g" unicode="g" horiz-adv-x="337" 
d="M231 413q19 6 35.5 -5t26.5 -28q0 -21 -8.5 -43t-19.5 -44.5l-22 -44t-16 -41.5l16 -157t12.5 -125t8.5 -115.5t3 -129.5q0 -28 -0.5 -58.5t-1.5 -65.5q-7 -22 -19.5 -46t-29.5 -45t-38 -36t-44 -20q-12 -2 -23 -3.5t-22 -1.5q-51 0 -94 23t-80 60q-41 32 -58 78t-17 96
q0 17 1 34t3 34q16 36 38.5 74.5t52.5 72t67.5 57t82.5 28.5q49 4 88 -30q8 20 8 36q0 14 -3.5 30t-5.5 46q-2 29 -4 37t-4 12.5t-2.5 13.5t0.5 39q-12 13 -28 23.5t-30.5 22t-25 24t-10.5 30.5q0 13 6 28q6 27 22 49t37.5 39.5t47 30.5t50.5 21zM75 -438q33 29 48.5 68
t22.5 83t9 89.5t8 88.5q-13 -9 -35 -9q-18 0 -37 4t-36 4q-19 -10 -38 -25.5t-35 -34t-27.5 -39t-16.5 -41.5q-6 -19 -9.5 -34t-3.5 -28q0 -22 11.5 -39t38.5 -36q9 -5 21.5 -14.5t26.5 -18.5t27.5 -15t24.5 -3zM175 243q22 13 34.5 33t4.5 49q-8 14 -24 17.5t-28 -4.5
q-10 -6 -19.5 -14t-16.5 -18t-9 -21.5t3 -24.5q7 -18 23.5 -20t31.5 3z" />
    <glyph glyph-name="h" unicode="h" horiz-adv-x="470" 
d="M250 595q-18 -48 -39 -94.5l-40.5 -93.5t-34.5 -96t-21 -101q7 -14 18 -20.5t24 -6.5q8 0 15.5 2t15.5 5q16 10 31.5 25t32 27t35 17.5t40.5 -3.5q22 -23 30 -50.5t8 -58.5q0 -42 -7.5 -85t-3.5 -80q10 -12 27 -15.5t35.5 -4l36.5 -1t31 -5.5t18 -17.5t-2 -37.5
q-27 -27 -64 -41t-77 -14q-12 0 -24 1.5t-24 3.5q-16 3 -27 12t-18.5 20.5t-13 24.5l-10.5 24q-3 19 -3 39q0 48 15.5 87.5t37.5 77.5q8 15 0 30.5t-19 23.5q-15 2 -25.5 -3.5t-19 -14.5t-16 -19.5t-16.5 -19.5l-20.5 -37t-22.5 -37t-27 -33t-34 -25q-12 -6 -24.5 -5.5
t-23.5 5.5t-19 14t-11 21q-3 36 5.5 68.5t22 63.5t28.5 61.5t25 61.5q14 45 22.5 92.5t15.5 95.5t13 97t15 97q6 14 15 30.5t27 19.5q20 3 34 -11t17 -28z" />
    <glyph glyph-name="i" unicode="i" horiz-adv-x="254" 
d="M213 568q0 -23 -1.5 -35.5t-6 -21t-12.5 -17l-22 -24.5q-16 -19 -29 -29.5t-33 -10.5q-8 0 -17 2t-20 5q-7 2 -11 8.5t-4.5 14t1 15t4.5 12.5l31 37.5t21.5 22.5t25.5 17t43 21q10 2 18.5 -1t11.5 -16zM101 125q5 -13 7 -26.5t2 -27.5q0 -30 -6 -55q-8 -12 -22.5 -18
t-26.5 2q-14 15 -20 34.5t-6 41.5q0 25 6.5 52.5t17 54t22.5 50t23 41.5q5 2 9.5 6t9.5 -6z" />
    <glyph glyph-name="j" unicode="j" horiz-adv-x="271" 
d="M150 189l-9 -120q1 -34 7 -63t12.5 -57.5t12 -59t5.5 -66.5q-6 -42 -19 -85t-34.5 -80.5t-53.5 -66t-76 -42.5q-27 -8 -50 -8q-45 0 -84 23t-69 63q-14 19 -21.5 42.5t-7.5 49.5q0 23 6 46q10 41 35 75.5t58 62.5t71.5 49.5t74.5 35.5q12 0 24.5 -6t17.5 -20
q-3 -26 -20 -40.5t-39 -24.5t-45.5 -19.5t-39.5 -25.5q-15 -15 -36 -28.5t-38.5 -28.5t-27.5 -32.5t-3 -39.5l6.5 -20.5t11.5 -23.5t21 -22t35 -16q23 -6 49.5 1.5t52 22t47 33t33.5 35.5q12 28 19.5 62t12 71.5t6.5 76t2 76.5t2 75.5t9.5 73t21 67.5t36.5 59l7 -10z
M201 526q0 -21 1.5 -30.5t1.5 -14.5q0 -6 -5 -11.5l-20 -22.5q-8 -4 -14 -11.5t-24 -7.5q-12 0 -31 6q-7 2 -11 8.5t-4.5 14t1 15t4.5 12.5l16.5 19.5t15.5 15t17 12.5t22 12q10 2 18.5 -1t11.5 -16z" />
    <glyph glyph-name="k" unicode="k" horiz-adv-x="333" 
d="M325 826q3 -29 -6.5 -53.5t-24 -47.5l-30 -46t-24.5 -49q-11 -33 -26.5 -64.5l-30.5 -63t-28 -64.5t-19 -69q24 -21 48 -21q18 0 35.5 10t34.5 22.5t34.5 24t36.5 14.5q9 -3 17 -1.5t13 -9.5q-4 -15 -12.5 -23t-19 -14t-22 -11t-21.5 -14q-26 -17 -61.5 -31.5t-67 -34
t-52 -47.5t-16.5 -71q14 -39 41.5 -55t59.5 -25t63.5 -20.5t52.5 -41.5q8 -18 -1 -37t-25 -21q-20 -3 -40 3.5t-40.5 15l-40 16.5t-37.5 8q-17 0 -33 -9.5t-30 -33.5q-23 -2 -34.5 11.5t-16.5 30.5q2 57 13 107t20 105q23 79 41.5 160t41 160.5t53 156t76.5 145.5
q8 8 19 12.5t22 4.5q12 0 22 -7t15 -22z" />
    <glyph glyph-name="l" unicode="l" horiz-adv-x="282" 
d="M341 800q-5 -35 -17.5 -66.5t-27.5 -62l-29.5 -60.5t-24.5 -62q-25 -38 -44.5 -78t-36.5 -80.5l-33 -81t-34 -80.5q-16 -33 -16 -74q0 -28 2.5 -57.5t2.5 -58.5t-5 -56.5t-21 -50.5q-14 -2 -26 4t-18 20q-3 22 -3 43q0 36 8 70.5t19.5 68l23 66.5t18.5 67
q4 70 21.5 135.5t41.5 128t52 123.5t53 123q8 14 20.5 28t26.5 18q16 5 27.5 -4t19.5 -23z" />
    <glyph glyph-name="m" unicode="m" horiz-adv-x="717" 
d="M224 358q3 -15 3.5 -31.5t3.5 -31.5t11.5 -27.5t26.5 -20.5q7 -3 15 -3l53 11q13 0 24 -8q11 -6 19.5 -17l17 -21.5t18 -18t22.5 -7.5q14 0 27 8q14 8 27 20l26.5 23.5t28 19.5t31.5 8h6.5t6.5 -1q23 -41 32 -74t9 -63t-7.5 -59t-17 -59l-20 -64t-16.5 -75
q-14 -22 -16.5 -53.5t-7.5 -61t-19 -50t-50 -20.5q-20 11 -27 30t-7 41q0 17 2.5 34.5l4.5 31.5q9 55 20.5 92t25 69t30.5 67t38 88q1 3 1 9q0 13 -6.5 21.5t-16.5 18.5q-23 -2 -36.5 -12t-20.5 -24t-11 -31t-9.5 -34t-14.5 -31.5t-27 -23.5q-5 -2 -10 -3t-10 -1
q-18 0 -34 10.5t-23 30.5q-3 9 -3 18q0 14 3.5 30t3.5 31q0 14 -5 26t-22 21q-28 -5 -43.5 -19t-25 -33t-15 -40.5t-13 -42t-19 -38t-32.5 -27.5h-6q-18 0 -31 12t-15 25q-2 6 -2 12v12l66 202q0 8 -1 16.5t-3 16.5q-17 27 -41 27q-9 0 -19 -5q-22 -15 -40.5 -34.5
t-34.5 -41t-30 -43.5l-28 -43q-5 0 -14 1.5t-12 9.5q10 28 27.5 53.5t39 49.5l45 48t44.5 49q11 14 27.5 23t33.5 9q14 0 25 -7.5t17 -24.5z" />
    <glyph glyph-name="n" unicode="n" horiz-adv-x="569" 
d="M343 269l49 37t53 19q8 0 12 -1q11 -23 14.5 -48t3.5 -52q0 -29 -2 -58.5t-4 -55.5q-14 -47 -25.5 -81l-20.5 -62l-16.5 -53t-13 -54t-9.5 -66t-7 -88q-1 -11 -13.5 -21.5t-20.5 -15.5q-5 -2 -13 -2q-17 0 -28.5 11.5t-20.5 23.5q-2 25 -3.5 47.5t-1.5 42.5
q0 64 11.5 110t32.5 88t50.5 88.5t64.5 113.5q0 2 0.5 2.5t0.5 2.5q0 1 0.5 1.5t0.5 1.5q2 7 3 14t1 14q0 17 -9 26q-7 10 -16 13.5t-20 3.5q-8 0 -15.5 -2l-15.5 -4q-30 -17 -52 -40.5t-38 -50.5t-28 -57t-22 -58l-7 -19q-6 -15 -19 -22.5t-27 -7.5q-12 0 -24 5
q-19 28 -19 53q0 24 12 47t27 44.5t27 43.5t12 45q0 15 -6.5 30t-23.5 32q-32 -3 -60 -19t-51 -39.5t-41 -52t-29 -55.5q-6 0 -10.5 -4t-8.5 -4q-3 0 -6 4q-6 12 -6 23q0 12 6.5 22.5t15.5 20.5t18.5 19t16.5 18q21 16 42 36.5t43.5 39t46 31t50.5 12.5l10 -1
q12 -10 21.5 -27t20 -33.5t24 -28.5t31.5 -12q14 0 32 9z" />
    <glyph glyph-name="o" unicode="o" horiz-adv-x="371" 
d="M309 319q3 -16 5 -32t2 -31q0 -57 -22 -107t-65 -88q-25 -11 -52.5 -18.5t-55.5 -7.5q-21 0 -41.5 5t-40.5 17q-16 14 -22 32.5t-6 38.5q0 12 2 24l4 23q9 36 32 65.5t54 52t67 37.5t71 22q5 1 9 1.5t8 0.5q36 0 51 -35zM195 137q17 8 34.5 24.5t17.5 37.5q0 11 -6 22
q-10 20 -26.5 27.5t-36.5 7.5h-8t-9 -1q-22 -6 -42.5 -21t-33.5 -38q-9 -12 -9 -27q0 -19 13 -32q9 -9 18 -12.5t20 -3.5q17 0 34 6t34 10z" />
    <glyph glyph-name="p" unicode="p" horiz-adv-x="553" 
d="M408 401q33 -12 61 -38.5t46 -56.5v-11q0 -40 -14 -75.5t-37 -67t-53.5 -58t-64 -49t-68 -41t-65.5 -32.5l-36 -48q-4 -21 -13 -59.5t-19 -89.5t-20 -112t-16 -128q-8 -11 -17 -25t-26 -18q-10 -2 -16 -2q-20 0 -35.5 10.5t-20.5 27.5q-1 11 -1 20v18q0 50 6.5 85.5
t15.5 68.5l18.5 70t16.5 90q-11 9 -29 9q-20 0 -42.5 -5.5t-41.5 -5.5q-15 0 -24.5 6.5t-9.5 26.5q0 13 4 29q22 24 51 36t58 22.5t55 26t42 46.5q5 14 12.5 27.5l14.5 26.5t12 26.5t5 27.5q0 12 -4 23q-5 8 -12 15l-14 13.5t-12 13.5t-5 15q0 9 7 19q43 63 102.5 95.5
t131.5 32.5q14 0 28.5 -1.5t28.5 -3.5zM436 195q16 17 28.5 36.5t12.5 45.5q0 5 -0.5 8.5t-1.5 8.5q-22 32 -57 46t-73 14q-39 0 -72 -12q-20 -10 -32.5 -25t-20 -33t-10.5 -38.5t-3 -41.5t2 -41l4 -40q3 -9 11.5 -18.5t20.5 -9.5q51 15 100 38t91 62z" />
    <glyph glyph-name="q" unicode="q" horiz-adv-x="384" 
d="M174 402q13 4 27.5 11t29.5 13t30 10.5t30 4.5q14 0 28 -6q3 -14 4 -27.5t1 -27.5q0 -33 -6 -65t-13.5 -63.5t-16 -63t-12.5 -63.5q-9 -68 -19 -114t-19 -80t-17 -61t-14 -58t-9.5 -70.5t-3.5 -97.5v-35.5t1 -39.5q-1 -7 -9 -18.5t-18 -23.5t-20.5 -22t-16.5 -14
q-13 -5 -23 -5q-16 0 -27.5 8t-18.5 21q-8 49 -11 87t-3 69q0 54 9.5 93t26 80l39 94t48.5 135q3 6 3 12q0 14 -11.5 23.5t-24.5 9.5q-11 -3 -24 -5.5t-25 -2.5q-26 0 -46 13q-17 11 -30.5 26t-13.5 36q0 3 0.5 6t1.5 7q13 32 33.5 58t44 50t48.5 47t47 49zM196 215
q21 9 33.5 25t19 35.5t9 40.5t3.5 40q-4 10 -13.5 19t-21.5 9q-9 0 -16 -5q-12 -27 -35.5 -44l-47.5 -33.5t-41.5 -36.5t-17.5 -54v-4q14 -22 38 -22q11 0 23 3.5t23.5 8.5l23 10t20.5 8z" />
    <glyph glyph-name="r" unicode="r" horiz-adv-x="424" 
d="M504 440q-3 -14 -14 -19t-25.5 -6.5l-28.5 -3t-23 -8.5q-44 -16 -92 -38.5t-88 -54t-66 -71.5t-26 -90v-6q-3 -14 -3 -29l3 -62q0 -22 -8 -41.5t-34 -30.5q-8 -2 -12 -2q-15 0 -24.5 9t-17.5 19l-3 4q-5 22 -5 39q0 34 12 65t26.5 60.5t26.5 60t12 63.5v13.5t-2 13.5
q8 17 17.5 23t20.5 6t23.5 -3t24.5 -3q11 0 19 4q64 46 129.5 71t148.5 25z" />
    <glyph glyph-name="s" unicode="s" horiz-adv-x="497" 
d="M442 489q0 -15 -8.5 -27.5t-19.5 -23.5l-46 13.5t-49 7.5q-17 0 -31.5 -5.5t-25.5 -19.5q-26 -32 -26 -62q0 -28 17 -53.5t40 -50.5l46 -49.5t36 -49.5q10 -12 23.5 -24.5t25.5 -25.5t20.5 -27.5t8.5 -30.5q0 -17 -8 -32q-28 -32 -66.5 -43t-81.5 -11q-35 0 -69 4t-64 7
q-23 7 -47.5 16.5t-46.5 22.5t-39 30t-26 40q-1 5 -1.5 8.5t-0.5 7.5q0 17 9 30t24 21q7 4 20 4l27 -1q12 -9 17 -21t9.5 -24.5t12 -23t23.5 -16.5q26 -5 57 -13t60 -8q20 0 39 6t35 22v7q0 46 -21 84t-48.5 73.5l-55.5 71t-43 76.5q2 32 19 53.5t41.5 36t52.5 24.5t51 19
l33 1q23 0 43 -6.5t33 -29.5z" />
    <glyph glyph-name="t" unicode="t" horiz-adv-x="455" 
d="M338 703q0 -44 -10 -84t-25 -78.5t-32.5 -75.5t-31.5 -76l-4 -16.5t-2 -17.5q0 -14 6 -26t22 -20q7 -2 13 -2h12q21 0 41 5t39.5 11.5t39 11.5t39.5 5q23 0 42 -8l-22 -23q-25 -11 -56.5 -16t-63.5 -9t-62.5 -11t-55 -21.5t-40.5 -40t-19 -67.5v-10l11 -111
q0 -20 -5.5 -37t-21.5 -31q-4 -1 -7 -1.5t-7 -0.5q-15 0 -26 9t-13 23q-5 10 -6.5 19.5t-1.5 18.5q0 17 5 34t11.5 33t11.5 32t5 31t-7 29.5t-25 28.5q-15 5 -27 5h-28q-13 0 -26.5 1.5t-24.5 8.5q21 13 46.5 17.5t50 10.5t46 18t34.5 41l91 396q2 17 18 29.5t33 12.5
q11 0 20 -6.5t12 -20.5z" />
    <glyph glyph-name="u" unicode="u" horiz-adv-x="585" 
d="M458 18q-5 -11 -5 -27q0 -18 6.5 -34.5t14.5 -32.5t14.5 -31t6.5 -28q0 -14 -9 -25.5t-32 -22.5q-5 -2 -9.5 -2h-9.5q-20 0 -35 7.5t-31 18.5l-7 5q-20 19 -25 42.5t-7 49.5l-2 52t-15 49q-18 0 -31.5 -7.5t-26.5 -16.5l-22.5 -17t-24.5 -13q-14 -2 -27 -3.5t-27 -1.5
q-31 0 -59 8t-48 26q-28 25 -39 51.5t-11 53.5q0 17 3.5 33t8.5 33q8 23 17.5 45t20.5 44q11 23 20 44.5t15 43.5l2 6l12.5 30.5t15.5 29t21.5 23t30.5 13.5q8 -3 16 -10.5t8 -15.5q0 -6 -5 -11q-19 -24 -37.5 -50t-33.5 -53.5t-24 -57t-9 -59.5q0 -35 15 -72
q9 -21 25.5 -29t35.5 -8q11 0 22.5 2t21.5 5q53 24 92.5 62t68.5 83.5t49.5 96t36.5 98.5q8 8 14 12.5t13 4.5q8 0 15 -7l19 -29l-4 -40l-20.5 -185.5t-24.5 -182.5z" />
    <glyph glyph-name="v" unicode="v" horiz-adv-x="575" 
d="M691 713q-51 -60 -91.5 -124.5t-76.5 -130l-70.5 -131t-73.5 -127.5t-85.5 -118.5t-107.5 -105.5q-21 -10 -46 -10q-28 0 -52 14.5t-35 41.5q-20 32 -27.5 70t-7.5 78q0 32 3 63.5t8 60.5h7q25 0 37.5 -17.5t22.5 -41.5t22 -48t37 -37q36 5 59.5 20.5t42.5 36.5l39 44.5
t49 43.5q54 49 92.5 108.5t73.5 120t72.5 119t89.5 105.5l16 -9z" />
    <glyph glyph-name="w" unicode="w" horiz-adv-x="728" 
d="M778 595q2 -10 2 -15q0 -21 -13 -36.5t-30 -30l-35 -29t-28 -33.5q-41 -44 -68.5 -93.5t-45 -102.5t-28.5 -109t-19 -114q-9 -16 -23.5 -27t-31.5 -11q-11 0 -21 6q-21 19 -28 41.5t-7 46.5l9 109q0 25 -9 48t-34 41l-7 1q-22 0 -40 -17t-29 -32q-22 -33 -27.5 -74.5
t-11.5 -82.5t-22.5 -76.5t-59.5 -56.5q-12 -6 -24 -6q-20 0 -35.5 13t-32.5 25q-27 36 -34 81.5t-7.5 93.5t-3 95.5t-20.5 87.5q-1 3 -1 7q0 7 9 13q17 0 23 -14t9 -31q0 -2 0.5 -3.5t0.5 -3.5q6 -31 11 -61t12.5 -58.5t20.5 -55t36 -50.5q4 -1 10 -1q14 0 24.5 6.5t19 16
t17 20t17.5 18.5q19 25 32.5 62t29 71t39 58t63.5 24h12t13 -2q10 -12 15.5 -32.5t11.5 -40.5t16 -35t30 -15q13 0 28 7q16 21 26 45.5t18 50.5l16.5 52t22.5 49l28.5 50t34.5 53t43 42t54 17h10.5t11.5 -2z" />
    <glyph glyph-name="x" unicode="x" horiz-adv-x="611" 
d="M505 385l-35.5 -26.5t-33.5 -28.5q-30 -28 -49.5 -60.5t-19.5 -74.5v-11q10 -17 26 -28.5t35 -20t38 -15.5t34.5 -15t25 -19t9.5 -28q0 -20 -14 -45q-36 -28 -78 -28q-15 0 -30 4t-29 12q-21 12 -50.5 22.5t-60.5 10.5h-10t-10 -1q-26 -15 -41.5 -39t-27.5 -50.5t-22 -53
t-24 -48t-34.5 -35t-52.5 -13.5q-5 0 -10.5 0.5t-11.5 1.5q-22 5 -30 22t-8 39q0 14 2.5 28.5t6.5 28.5q7 17 16 33t19 32l26.5 43.5t24.5 44t18 46t7 49.5v15t-2 15q-20 43 -45 82.5t-44 82.5q12 5 19 5q14 0 26 -9t25 -23l34.5 -40.5t38.5 -30.5q16 -3 31 -3q40 0 74.5 15
t66.5 37t63 46.5t63 44.5q24 15 48.5 25.5t51.5 14.5l9 -10l-31.5 -22z" />
    <glyph glyph-name="y" unicode="y" horiz-adv-x="335" 
d="M333 486q-7 -45 -21.5 -89t-31 -85l-31 -78t-21.5 -68l-56.5 -145t-45.5 -122t-41 -127.5t-43 -160.5q-6 -25 -8 -51.5t-6.5 -51t-14.5 -46.5t-32 -38q-8 -3 -13 -3q-16 0 -27 12.5t-13 26.5q4 72 8 124.5t10 94t15 75.5t23 69t34 75.5l49 94.5q9 16 19 39t18.5 47.5
t14 48.5t5.5 42q-12 14 -29.5 19.5t-34 10t-30.5 12t-20 27.5q-3 9 -8 25.5t-9.5 36t-8 39.5t-3.5 37t4 26q14 -6 24 -26t20 -43t22 -43.5t30 -27.5q5 -1 10 -1.5t10 -0.5q33 0 61.5 18.5t52.5 48t44 66t37 73.5z" />
    <glyph glyph-name="z" unicode="z" horiz-adv-x="448" 
d="M364 355q6 -23 6 -44q0 -36 -19.5 -66.5t-49.5 -57.5t-65 -52.5t-65.5 -51.5t-52 -53.5t-24.5 -59.5q10 -17 14 -27.5t9.5 -16.5t17 -8.5t37.5 -2.5q43 0 66.5 4.5t41.5 10.5t38.5 10.5t57.5 4.5q25 0 35.5 -8.5t10.5 -20.5q0 -11 -7.5 -21.5t-18.5 -15.5
q-31 -3 -60.5 -9l-58 -12t-55.5 -10.5t-53 -4.5q-48 0 -91 22.5t-80 84.5q-7 14 -9.5 26.5t-2.5 24.5q0 27 10.5 45t28 32.5t40 28t47.5 30.5q9 6 26 14l37.5 17.5l42.5 19t40 20t30.5 20.5t14.5 19q-3 17 -10 31.5t-20 24.5q-15 2 -40.5 3t-54.5 2.5t-57 5.5t-47 13
q-12 5 -15.5 13t-7.5 19v5q0 23 8.5 35.5t36.5 17.5q12 2 29.5 2.5t36.5 0.5h38q19 0 44.5 -3t49.5 -10t43 -20t27 -32z" />
    <glyph glyph-name="braceleft" unicode="{" horiz-adv-x="381" 
d="M390 705q10 -8 14 -19t4 -24q0 -14 -4 -25q-5 -9 -12.5 -16.5t-17.5 -7.5q-6 0 -13 4q-5 17 -19 26t-31 9q-12 0 -20 -4q-43 -14 -83.5 -37.5t-74.5 -52.5q0 -18 6.5 -34.5t15 -32.5t15 -33t6.5 -37q0 -11 -3 -24q-2 -16 -12 -28.5t-21 -24.5t-20.5 -25t-9.5 -29
q0 -12 6 -25q11 -22 17.5 -48.5t6.5 -52.5q0 -25 -7 -48.5t-22 -42.5q-3 -5 -3 -8q0 -5 4 -9.5t9 -9.5l1 -1q10 -3 22 -3q16 0 30.5 5.5t28.5 11.5l27 11.5t26 5.5q11 0 21.5 -5.5t21.5 -19.5v-4q0 -22 -11 -34t-27.5 -20t-34.5 -14t-31 -16q-19 0 -40 -2.5t-42 -2.5
q-20 0 -39 4t-34 18q-14 14 -25 30t-11 33q0 10 5 22q9 20 22.5 38l25.5 35.5t21 36.5t9 42v11t-2 12q-3 7 -9.5 13l-13 12t-12 13t-5.5 16q0 5 1 8q14 10 28 22.5t25.5 26t18.5 29t7 32.5q0 11 -3 22q-5 17 -18 31.5l-26.5 29t-23.5 29.5t-10 33q0 13 5 24q57 51 121.5 85
t134.5 55h22q17 0 33.5 -2.5t29.5 -13.5z" />
    <glyph glyph-name="bar" unicode="|" horiz-adv-x="174" 
d="M93 714q0 -130 -8.5 -260.5t-15.5 -262.5q-1 -17 6.5 -35t17.5 -36t18 -35.5t8 -33.5q0 -14 -8.5 -27t-29.5 -24q-21 -3 -39 5t-26 27q-9 22 -12.5 43t-3.5 41q0 34 7.5 67t16.5 66t16 67t6 69q0 37 -14 77q-9 50 -22 100.5t-13 100.5q0 32 7 59q2 17 14 25t27 8
q17 0 32.5 -10.5t15.5 -30.5z" />
    <glyph glyph-name="braceright" unicode="}" horiz-adv-x="312" 
d="M325 661q1 -5 1.5 -10t0.5 -10q0 -27 -13 -48.5t-32 -40t-39.5 -35.5t-36.5 -36q-2 -5 -3 -11t-1 -13q0 -12 7 -18q6 -9 16.5 -11.5l21 -5t18.5 -6.5t8 -14q0 -6 -3 -13q-15 -9 -32.5 -15.5t-34 -15t-30.5 -20.5t-22 -32q-3 -9 -3 -17q0 -14 7.5 -26t17 -23.5t20 -23
t16.5 -23.5q12 -25 24.5 -55.5t12.5 -60.5q0 -35 -23 -61q-20 -19 -45.5 -36t-54.5 -17q-15 0 -30 6q-12 7 -25.5 12.5t-26 11.5t-23 15t-16.5 24q-5 13 -5 23q0 13 6 24t18 17q10 6 21 6q12 0 23 -7.5t21 -16.5t19.5 -16.5t19.5 -7.5q8 0 16 7t18 24v9q0 23 -8.5 47
t-19 48.5t-19 48.5t-8.5 48q0 22 10.5 43t36.5 41q2 5 2 10v10q0 17 -4 33t-4 33q0 8 1 15t5 15q16 35 41 65.5l50 61.5q3 6 3 12q0 11 -8 19.5t-17 13.5q-11 6 -24 6q-12 0 -24.5 -4t-24.5 -8.5t-23 -8t-19 -3.5q-11 0 -17 9t-6 31v5q18 24 43.5 32t54.5 8q16 0 31.5 -1
t30.5 -3q12 -5 25.5 -9.5t25.5 -11t20.5 -15.5t11.5 -24z" />
    <glyph glyph-name="asciitilde" unicode="~" horiz-adv-x="354" 
d="M379 446q-7 -21 -17 -42.5t-23.5 -41t-31.5 -35t-40 -24.5h-5q-21 0 -38.5 14t-32.5 30.5t-30 30.5t-31 14q-12 0 -25.5 -10.5t-30.5 -36.5q-5 -13 -7.5 -18.5t-2.5 -10.5t2 -11t4 -20q-4 -2 -8.5 -4.5t-9.5 -2.5t-8 3q-12 7 -12 20l7 39q0 18 5.5 35.5t16.5 31t28 22
t40 8.5h6.5t7.5 -1q15 -9 28 -23l26 -27t26.5 -22.5t29.5 -9.5q20 0 43 17l5 5q11 10 20 19t16.5 17.5t14.5 18t15 22.5q4 0 7 -1t5 -6z" />
    <glyph glyph-name="sterling" unicode="&#xa3;" horiz-adv-x="552" 
d="M561 699q13 -11 21.5 -26.5t8.5 -31.5q0 -15 -8 -27q-14 -21 -36 -21q-12 0 -21 6q-8 5 -14.5 12.5l-13 15t-14 13.5t-16.5 9q-24 -1 -42 -13t-32 -29.5t-25 -37.5t-22 -38q-6 -18 -6 -35q0 -49 45 -83q0 -13 -7.5 -23.5t-17.5 -20l-19 -18.5t-13 -20q-1 -22 -2.5 -45
t-1.5 -46t2.5 -45t10 -42t21 -36.5t34.5 -28.5q16 -9 30 -20t17 -30q0 -17 -9 -27.5t-20 -15.5q-9 -3 -18 -3l-76 12q-7 0 -17 -2q-24 -39 -59.5 -52.5t-74.5 -13.5q-21 0 -42.5 2.5t-41.5 6.5q-24 8 -42 26t-26 42q-2 16 -4.5 33.5t-2.5 35.5q0 16 3.5 30.5t14.5 25.5
q17 26 38.5 35.5t44.5 9.5l106 -12q24 0 44.5 10.5t34.5 42.5q2 11 3 21t1 21q0 38 -14.5 72.5t-50.5 60.5q-1 4 -1 11q0 19 12 32.5l25 28.5q-1 7 -1 13.5v12.5q0 64 25.5 117.5t82.5 88.5q18 14 43 21.5t51 7.5q27 0 51.5 -7.5t40.5 -25.5zM175 38q7 7 20.5 16.5
t13.5 23.5q0 7 -2 10q-11 11 -21.5 17t-22.5 6q-17 0 -36 -13.5t-21 -32.5l1 -6q2 -15 12.5 -20.5t24.5 -5.5q16 0 31 5z" />
    <glyph glyph-name="trademark" unicode="&#x2122;" horiz-adv-x="593" 
d="M528 632q17 -19 23.5 -39.5t6.5 -43.5q0 -20 -4 -41t-9 -41.5l-10 -41t-6 -39.5q-3 -32 -10 -61t-27 -52q-8 0 -15 3.5t-9 12.5v5q0 25 9.5 45.5t21.5 41t21.5 41.5t9.5 46q0 36 -4 69t-28 59q-2 1 -7 1q-17 0 -29.5 -14.5t-27.5 -24.5q-23 -23 -28.5 -52.5t-5.5 -61.5
v-54q-2 -2 -5 -4.5t-6 -2.5q-4 0 -5 3q-3 15 -3 32l1 40q0 18 -2.5 35.5t-13.5 32.5l-2 3l-12.5 17t-17.5 14q-21 -1 -36.5 -11.5t-26.5 -26.5t-19 -34t-14 -34q-4 -13 -4 -28q0 -20 5.5 -38.5t12.5 -35.5q-1 -6 -1.5 -11.5t-0.5 -10.5q0 -9 -8 -19l-8 -4t-8 -2q-2 0 -6 2
q-13 17 -13 35q0 21 10.5 42t12.5 44q2 24 5 49t10 47.5t20 41t35 30.5q8 3 14.5 5t14.5 2q22 0 41 -17q5 -7 10 -16.5t15 -9.5h3q11 20 26 39t36 33q8 5 17.5 8t19.5 3q17 0 31 -11zM339 649q2 -6 2 -8q0 -8 -7 -14t-14 -8l-108 -22l-12 -11q-14 -47 -30.5 -96.5
t-16.5 -100.5q0 -22 5 -47v-2q0 -11 -2 -21t-16 -15h-4q-10 0 -16 7t-9 18v6q0 18 5 33.5t11.5 30.5t11.5 30.5t5 32.5l7 91q0 14 -3 29l-12 6q-22 -2 -43 -7t-43 -5q-16 0 -31 4q-4 3 -7 7.5t-3 9.5q0 6 6 12l19 11q67 11 132 20t131 23h5q11 0 21.5 -1.5t15.5 -12.5z" />
    <glyph glyph-name="perthousand" unicode="&#x2030;" horiz-adv-x="642" 
d="M523 699q3 -11 3 -21q0 -27 -15.5 -48l-30.5 -41q-43 -54 -93.5 -105.5l-98.5 -103.5t-88 -107.5t-63 -116.5q-12 -45 -32.5 -86t-49.5 -70q-11 -6 -20 -6q-12 0 -21 8t-14 21q-1 6 -1 12v12q0 22 5 42t19 36l215 250q34 40 59.5 86l50.5 92.5t54 90t70 78.5q3 1 10 1
q13 0 24.5 -6t16.5 -18zM298 724q11 -19 11 -41q0 -20 -5.5 -39.5t-7.5 -40.5q-15 -27 -29 -56.5t-31.5 -56.5t-41 -49.5t-57.5 -34.5h-2q-6 -1 -12 -1.5t-12 -0.5q-13 0 -25 2.5t-22 10.5q-9 6 -15 18.5t-7 21.5q1 18 8.5 34t17 31l19 30t15.5 31q8 20 18.5 41t24.5 39
t31.5 32t40.5 20q10 9 22.5 14.5t26.5 5.5q20 0 32 -11zM267 570q2 20 8.5 41t6.5 41q0 22 -12 37l-3 -1q-4 0 -8 3q-27 -13 -52.5 -28.5t-48.5 -38.5q-31 -29 -52 -63t-21 -75l1 -12q3 -11 12 -17t20 -6q7 0 15 3q18 12 37.5 23.5t37.5 25t33.5 30t25.5 37.5zM437 316
q11 -18 11 -39q0 -20 -5.5 -41t-7.5 -41q-15 -27 -29 -56.5t-31.5 -56.5t-41 -49.5t-57.5 -34.5h-2q-6 -1 -12 -1.5t-12 -0.5q-13 0 -25 2.5t-22 10.5q-9 7 -15 19t-7 21q1 19 8.5 35t17 31l19 29.5t15.5 30.5q8 20 18.5 41t24.5 39t31.5 32t40.5 20q10 9 22.5 14.5
t26.5 5.5q20 0 32 -11zM406 163q2 20 8.5 40.5t6.5 40.5q0 22 -12 37l-3 -1q-4 0 -8 3q-27 -12 -52.5 -28t-48.5 -39q-31 -29 -52 -63t-21 -75l1 -12q3 -11 12 -17t20 -6q7 0 15 3l37 23.5t37 25t33.5 30t26.5 38.5zM641 316q11 -18 11 -39q0 -20 -5.5 -41t-7.5 -41
q-15 -27 -29 -56.5t-32 -56.5t-41.5 -49.5t-56.5 -34.5q-7 -1 -13.5 -1.5t-13.5 -0.5q-13 0 -24.5 2.5t-21.5 10.5q-9 5 -15 18.5t-7 21.5q1 19 8.5 35t17 31l19 29.5t15.5 30.5q8 20 18.5 41t24.5 39t31.5 32t40.5 20q20 20 48 20q9 0 17.5 -2.5t15.5 -8.5zM610 163
q2 20 8.5 40.5t6.5 40.5q0 22 -12 37l-3 -1q-4 0 -8 3q-27 -12 -52.5 -28t-48.5 -39q-30 -29 -51.5 -62.5t-21.5 -72.5q0 -10 1 -15q3 -11 12 -17t20 -6q7 0 15 3l37 23.5t37 25t33.5 30t26.5 38.5z" />
    <glyph glyph-name="dagger" unicode="&#x2020;" horiz-adv-x="264" 
d="M233 601q7 -16 2 -32.5l-9.5 -32t-1.5 -29.5t26 -24q9 -4 18.5 -5.5t14.5 -12.5q-3 -15 -12.5 -20.5t-21.5 -7.5l-24.5 -4t-21.5 -9q-28 -29 -43.5 -64t-23 -72.5t-10.5 -78t-6.5 -80t-10 -78.5t-21.5 -74q-6 -11 -11 -25t-21 -16q-30 0 -41 29q0 55 14.5 104.5t34 97
l39 94.5t30.5 98q5 23 -4 43.5t-32 27.5q-5 5 -10 6t-7 6q-3 8 -1 13t6.5 8.5t10 6t10.5 4.5q16 0 28.5 12.5t21.5 23.5q2 33 8 62t30 49q14 5 24 -2t15 -18z" />
    <glyph glyph-name="registered" unicode="&#xae;" horiz-adv-x="521" 
d="M518 440q3 -18 3 -37q0 -67 -29 -124.5t-77 -99.5t-111 -66t-130 -24q-29 0 -57.5 5.5t-50.5 19t-35.5 35.5t-13.5 55q0 26 7 50.5t17 48l21 47t19 47.5q11 32 31.5 61.5t48.5 52t60.5 36t67.5 13.5q36 0 70.5 -6.5t65 -21t54.5 -37t39 -55.5zM495 330q4 16 4 35
q0 59 -45 95q-32 14 -69.5 23t-74.5 9q-39 0 -75.5 -11.5t-64.5 -40.5l-39.5 -42.5t-35 -45.5t-25 -50t-9.5 -54q0 -30 9.5 -45.5t25.5 -24t35 -12.5t39 -10q47 6 95.5 15t92 28t79.5 50t58 81zM335 388q10 -14 10 -28q0 -12 -5 -22.5t-10.5 -20.5l-10.5 -20t-5 -21
q0 -7 6 -23.5t11 -24.5q-5 -3 -10 -3q-6 0 -14 6l-16.5 12.5l-16.5 12.5t-15 6q-6 0 -11 -7t-8.5 -16t-6 -18t-5.5 -14l-19 5v10.5v16t-0.5 16t-0.5 10.5q0 12 -0.5 24.5t-0.5 25.5q0 20 4 38.5t14 32.5t26 22.5t40 8.5q14 0 25 -6.5t19 -22.5zM274 296q11 5 19.5 17.5
t8.5 26.5q0 16 -11.5 23t-21.5 7q-19 0 -32.5 -12.5t-13.5 -30.5q0 -11 12 -22t28 -11q3 0 11 2z" />
    <glyph glyph-name="copyright" unicode="&#xa9;" horiz-adv-x="579" 
d="M525 484q23 -75 23 -156q0 -51 -9 -99q-8 -44 -35 -71t-63 -44t-76.5 -27.5t-75.5 -21.5q-36 0 -74 2t-73 11t-64 28.5t-47 54.5q-5 20 -8 41t-3 43q0 26 6 50.5t22 44.5q42 52 91 88t103.5 58t114 31.5t122.5 9.5q13 -5 26 -17.5t20 -25.5zM488 210q24 18 32.5 41
t8.5 47q0 55 -12 85.5t-33 45.5t-49.5 18.5t-60.5 5.5q-65 -18 -128.5 -41t-117.5 -69q-8 -5 -16.5 -7.5t-16.5 -5.5t-16 -7.5t-14 -13.5q-8 -11 -13.5 -24.5t-5.5 -27.5q0 -33 20.5 -56.5t51 -39.5t66.5 -23.5t68 -7.5q64 0 125.5 21.5t110.5 58.5zM256 247q13 -6 27 -8.5
t28 -2.5q22 0 43 4.5t41 9.5q5 -4 5 -10q0 -16 -10.5 -26t-25 -16t-31 -9t-28.5 -5q-18 3 -38 9t-36.5 16.5t-27 27t-10.5 41.5q0 10 1 19.5t3 17.5q25 29 56 47.5t68 18.5h9t9 -1l5 -11q-12 -6 -31.5 -11.5t-38 -13.5t-32 -22t-13.5 -38q0 -13 8 -22.5t19 -14.5z" />
    <glyph glyph-name="section" unicode="&#xa7;" horiz-adv-x="388" 
d="M296 204q16 -17 31 -36.5t15 -42.5q0 -13 -5 -23q-28 -35 -64 -54.5t-76 -30.5t-82.5 -16t-84.5 -11q-11 2 -17 10t-6 19q0 8 5 18q29 17 61.5 25l65.5 15.5t64 19.5t56 36q-7 32 -27 49t-46 27.5t-53.5 18.5t-49.5 22q-6 4 -15 9.5t-18 12.5t-15 15t-6 17q0 17 11 32.5
t24.5 30t24.5 28.5t11 27q0 11 -11 21t-37 21q-12 3 -21 12.5t-14 21t-7.5 22.5t-2.5 17q0 27 25.5 52.5t63 44.5t79.5 30.5t76 11.5q26 0 48.5 -10t22.5 -34q0 -20 -19 -29q-26 13 -56 13q-23 0 -46 -7.5t-44 -19.5t-40.5 -27t-36.5 -30v-7q0 -23 25.5 -42.5t61.5 -36
t76 -31t69 -26.5q15 -9 20.5 -22.5t5.5 -29.5q0 -10 -1.5 -20.5t-3.5 -20.5q-5 -9 -12.5 -17.5l-15 -17t-13 -17.5t-5.5 -18q0 -10 9 -22zM262 272q18 8 30.5 24t12.5 36t-14.5 31.5t-35 17t-42 7t-34.5 1.5q-15 -8 -32.5 -14.5t-33 -16.5t-26 -24.5t-10.5 -37.5
q14 -20 34.5 -26.5t44.5 -6.5q27 0 55 4.5t51 4.5z" />
    <glyph glyph-name="degree" unicode="&#xb0;" horiz-adv-x="327" 
d="M268 742q7 -10 9.5 -19.5t2.5 -19.5q0 -20 -6.5 -40.5t-6.5 -41.5q-15 -26 -28.5 -57t-31.5 -58t-44 -45t-66 -18q-33 0 -47.5 15t-20.5 38q1 19 6 32t11.5 23.5l13.5 22t13 27.5q8 20 18.5 41t24.5 39t32 32t40 20q20 20 48 20q20 0 32 -11zM237 588q2 19 9 40.5t7 41.5
q0 22 -12 37q-1 -1 -4 -1t-7 3q-30 -13 -58.5 -30.5t-50.5 -39.5t-35.5 -49.5t-13.5 -60.5q0 -39 33 -39q7 0 15 3q18 12 35 20.5t32 18t28 22.5t22 34z" />
    <glyph glyph-name="periodcentered" unicode="&#xb7;" horiz-adv-x="204" 
d="M198 409q1 -6 1.5 -12.5t0.5 -12.5q0 -20 -7 -36.5t-19 -28.5t-27.5 -18.5t-33.5 -6.5q-26 0 -37 13t-11 30q0 18 10 33.5t25 27.5t32.5 18.5t33.5 6.5q9 0 17 -3t15 -11z" />
    <glyph glyph-name="plusminus" unicode="&#xb1;" horiz-adv-x="408" 
d="M337 534q3 -9 3 -18q0 -13 -4 -25.5l-8.5 -25.5t-8 -25t-3.5 -24q0 -4 1.5 -11.5t5.5 -15t11 -13t17 -5.5q14 0 28.5 3.5t27.5 3.5q9 0 16.5 -3t12.5 -13q-16 -10 -34.5 -14.5t-37 -8.5t-36.5 -10t-33 -18q-18 -14 -26 -31.5t-13.5 -36.5t-11.5 -37t-19 -33q-7 10 -7 22
q0 13 6 26.5t6 27.5t-6.5 23t-16.5 14t-22 7t-22 2q-17 0 -33.5 -1.5t-31.5 -1.5h-12.5t-7.5 4q0 9 10.5 12t16.5 3q22 2 43 5t40.5 9.5t36.5 18t31 30.5q7 24 7 51t0.5 52.5t6.5 49t25 40.5q14 0 28 -8.5t14 -24.5zM346 73q1 -3 1 -9q0 -8 -4.5 -12.5t-11 -7.5t-14 -6
t-13.5 -7q-28 -3 -55.5 -10l-54.5 -14t-54.5 -12.5t-54.5 -5.5q-10 0 -21.5 0.5t-21 4.5t-15.5 11t-6 21q0 8 3 17l36 24q63 6 124.5 15t125.5 9h21z" />
    <glyph glyph-name="yen" unicode="&#xa5;" horiz-adv-x="394" 
d="M422 729q-7 -29 -24.5 -53.5t-39 -46t-45 -40.5t-42.5 -37t-31.5 -36t-12.5 -37q0 -10 4 -19q14 -15 31.5 -18t34.5 -4.5t32.5 -5.5t25.5 -22q-11 -9 -31.5 -10t-40 -2.5t-34 -7.5t-14.5 -26q0 -18 7 -24t15.5 -8.5l15.5 -4.5t8 -11q-13 -7 -29.5 -11.5t-32.5 -10.5
t-30.5 -15.5t-24.5 -26.5q-5 -29 -9.5 -59.5t-4.5 -61.5q0 -35 10.5 -68t40.5 -59q2 -6 2 -10q0 -17 -15.5 -29.5t-33.5 -12.5q-24 0 -41.5 14.5t-29 37.5t-17 51.5t-5.5 55.5q0 23 4 45.5t12 42.5q4 8 4 16q0 16 -9.5 28t-9.5 26q0 12 10.5 18.5l22.5 13.5t22.5 16t10.5 26
q0 11 -5.5 18.5t-13.5 12t-16.5 6t-15.5 1.5q-16 0 -32.5 -3t-31.5 -3q-4 0 -10 0.5t-11.5 2t-9.5 3.5t-4 6q0 13 14.5 17.5t36 5.5t47 1t47 6t36 19.5t14.5 41.5q0 33 -23 54.5t-50.5 40.5t-50.5 40.5t-23 54.5q0 11 4 24t22 13q14 0 25 -6q18 -13 33.5 -30t31.5 -32
t34.5 -25.5t44.5 -10.5q21 17 39 42.5t37.5 49t42.5 40.5t54 17q8 0 12 -1l16 -20v0z" />
    <glyph glyph-name="guillemotleft" unicode="&#xab;" horiz-adv-x="592" 
d="M358 427q-14 -47 -46 -75t-70.5 -51t-76 -48t-61.5 -65q-3 -8 -3 -14q0 -15 10.5 -26t18.5 -21q25 -4 53 -6.5t54 -8.5t48.5 -18.5t36.5 -35.5q-4 -11 -9 -21.5t-19 -14.5q-60 11 -114.5 23.5t-114.5 17.5q-18 7 -34 19t-17 30q9 38 29.5 67.5t47.5 54.5t57.5 47.5
l60.5 46t56.5 50t44.5 60.5q7 8 18 8q10 0 18.5 -5.5t11.5 -13.5zM515 402q-5 -29 -21.5 -51.5t-38.5 -42t-46 -36.5t-44 -34q0 -19 6 -30t16 -17t23.5 -7.5t28.5 -1.5q11 0 23 0.5t24 0.5q17 0 32 -2.5t26 -10.5q-4 -11 -12 -14.5t-19 -3.5t-23 2t-23 2q-14 0 -28 -4
t-28 -8.5t-29 -8.5t-30 -4q-26 0 -42.5 13.5t-16.5 42.5q0 13 2 25.5l4 24.5l47 37t48 40t44 43.5t36 48.5q5 4 12 7t13 3q13 0 16 -14z" />
    <glyph glyph-name="guillemotright" unicode="&#xbb;" horiz-adv-x="585" 
d="M200 427q2 8 11.5 13.5t19.5 5.5q12 0 17 -8q18 -35 44 -61.5t56 -50l60.5 -45.5t57.5 -46.5t47.5 -54.5t30.5 -68q-1 -18 -17.5 -30t-33.5 -19q-60 -5 -115 -17.5t-115 -23.5q-14 4 -19 14.5t-8 21.5q14 23 36 35.5t48 18.5t54 8.5t54 6.5l19 21.5t11 26.5q0 6 -4 13
q-16 26 -39 45.5t-48 36t-51 31.5t-48.5 33t-40.5 40t-27 53zM42 402q3 14 16 14q7 0 13.5 -3t11.5 -7q15 -26 36 -48.5t44.5 -43t48 -39.5t46.5 -38l4 -24.5t2 -25.5q0 -28 -15.5 -42t-42.5 -14q-15 0 -30.5 4t-30 8.5l-28.5 8.5t-26 4q-11 0 -23 -2t-23 -2t-19 3.5
t-12 14.5q11 8 26.5 10t32.5 2h43q15 0 29 1.5t24.5 7.5t16.5 17t6 30q-20 17 -44 34t-46 36.5t-38.5 42t-21.5 51.5z" />
    <glyph glyph-name="ellipsis" unicode="&#x2026;" 
d="M149 74q6 -6 8.5 -15.5t2.5 -19.5q0 -16 -4 -24q-14 -12 -32 -21.5t-38 -9.5q-12 0 -23 4q-11 6 -19.5 16.5t-8.5 24.5q0 7 5 19q5 15 20 26.5t30 16.5l9 1q14 0 26.5 -5t23.5 -13zM359 74q6 -6 8.5 -15.5t2.5 -19.5q0 -16 -4 -24q-14 -12 -32 -21.5t-38 -9.5
q-12 0 -23 4q-11 6 -19.5 16.5t-8.5 24.5q0 7 5 19q5 15 20 26.5t30 16.5l9 1q14 0 26.5 -5t23.5 -13zM569 74q6 -6 8.5 -15.5t2.5 -19.5q0 -16 -4 -24q-14 -12 -32 -21.5t-38 -9.5q-12 0 -23 4q-11 6 -19.5 16.5t-8.5 24.5q0 7 5 19q5 15 20 26.5t30 16.5l9 1q14 0 26.5 -5
t23.5 -13z" />
    <glyph glyph-name="endash" unicode="&#x2013;" horiz-adv-x="464" 
d="M434 254q-42 -18 -87 -27.5t-89.5 -17.5t-88.5 -18t-85 -30q-25 -2 -44 10t-28 34q2 17 10 28.5t20 19t25.5 12.5t26.5 9q41 2 84.5 9t87 11.5t86.5 2.5t84 -20z" />
    <glyph glyph-name="quotedblleft" unicode="&#x201c;" horiz-adv-x="219" 
d="M125 758q11 -28 2 -54.5t-22 -52.5q-21 -45 -36 -93t-38 -87q-10 29 -10 61q0 47 10.5 94.5t13.5 95.5q5 19 21.5 33t35.5 14q12 0 23 -11zM229 758q11 -28 2 -54.5t-22 -52.5q-21 -45 -36 -93t-38 -87q-10 29 -10 61q0 47 10.5 94.5t13.5 95.5q5 19 21.5 33t35.5 14
q12 0 23 -11z" />
    <glyph glyph-name="quotedblright" unicode="&#x201d;" horiz-adv-x="297" 
d="M135 758q11 11 23 11q20 0 36 -14t21 -33q2 -32 8.5 -64t11.5 -63.5t5 -62.5t-11 -61q-23 39 -37.5 87t-36.5 93q-13 26 -22 52.5t2 54.5zM31 758q11 11 23 11q20 0 36.5 -14t21.5 -33q2 -32 8.5 -64t11 -63.5t4.5 -62.5t-11 -61q-22 40 -36.5 87.5t-36.5 92.5
q-13 26 -22.5 52.5t1.5 54.5z" />
    <glyph glyph-name="quoteleft" unicode="&#x2018;" horiz-adv-x="125" 
d="M80 705q15 4 26 -2.5t18 -18.5t9 -26t-1 -26q-14 -29 -24.5 -60t-22.5 -60.5t-28 -57t-40 -48.5q0 45 11.5 94.5t15.5 100.5q2 29 7 57t29 47z" />
    <glyph glyph-name="quoteright" unicode="&#x2019;" horiz-adv-x="171" 
d="M69 705q24 -19 29.5 -47t7.5 -57q4 -51 15 -100t11 -95q-24 21 -39.5 48t-27 57l-22.5 61t-26 60q-3 12 -0.5 26t9 26t17.5 18.5t26 2.5z" />
    <glyph glyph-name="mu" unicode="&#xb5;" horiz-adv-x="427" 
d="M103 377q1 -5 1 -9.5v-9.5l-11 -132q0 -29 8.5 -53.5t34.5 -41.5q25 5 49 19t44.5 32.5t37.5 41t28 44.5q6 6 13 6q3 0 7 -2q9 -12 13.5 -27.5t7.5 -31.5t5.5 -33t7.5 -32q1 -17 7 -36l12.5 -38.5t11.5 -39t5 -37.5q0 -19 -8 -35.5t-28 -30.5h-5q-20 0 -34.5 16.5
t-19.5 33.5q-5 14 -6 29.5t-2.5 30.5t-5.5 29.5t-15 27.5l-8 -5l-43.5 -28t-42.5 -32.5t-36 -38.5t-24 -46q-9 -137 -39 -265t-65 -256q-3 -12 -16 -27t-25 -18q-5 -1 -8.5 -1.5t-7.5 -0.5q-20 0 -35 12.5t-20 30.5q0 45 8 89t19.5 87.5t25.5 86.5t26 87q3 38 10.5 75
l15.5 74t14.5 75t6.5 80v14.5t-1 14.5q23 46 38.5 96t15.5 104q0 33 -8 71q-1 2 -1 6q0 8 5 11.5t13 3.5q9 0 16.5 -5t7.5 -13v-3z" />
    <glyph glyph-name="emdash" unicode="&#x2014;" horiz-adv-x="698" 
d="M645 283q-61 -19 -126 -31t-130.5 -22.5t-129 -23t-121.5 -33.5q-38 -3 -67 6t-45 29q0 15 10.5 26t27 18.5t36 13t38.5 9.5q61 4 124 14t127 17.5t128 9t128 -11.5v-21z" />
    <glyph glyph-name="sfthyphen" unicode="&#xad;" horiz-adv-x="428" 
d="M413 274q-49 -4 -94.5 -12.5l-89.5 -17.5l-88.5 -17.5t-91.5 -12.5q-8 4 -11.5 9t-3.5 16l96 29.5t99.5 24.5t101.5 12.5t102 -6.5z" />
    <glyph glyph-name="Euro" unicode="&#x20ac;" horiz-adv-x="611" 
d="M654 701q-3 -34 -22 -47t-43.5 -19.5l-51 -14t-44.5 -29.5q-15 -19 -36.5 -36.5t-41 -36t-33.5 -39t-14 -45.5q0 -5 0.5 -8.5t1.5 -8.5q21 -26 52 -32t63 -6h29q25 0 51 -8l-12 -9q-15 -4 -31 -5t-33 -1l-75 2h-13q-40 0 -74.5 -12t-57.5 -47q-3 -9 -3 -18
q0 -21 15.5 -35.5t33.5 -22.5q8 -5 16.5 -6.5t17.5 -1.5q20 0 40 4.5t38 4.5q17 0 28.5 -7t16.5 -28q-12 -16 -26.5 -21.5t-31.5 -5.5l-65 5q-14 0 -27 -3t-24 -13q3 -11 10 -19t15.5 -14.5t17.5 -12.5t17 -14q23 -1 49 -2t49.5 -6t42.5 -17.5t28 -37.5q-6 -49 -55 -55h-72
q-35 0 -68 6t-59 32q-21 11 -34 31t-24.5 39.5t-24.5 34t-33 14.5q-19 0 -49 -18l-78 -20q-10 0 -19 4.5t-17 15.5q2 28 17 41.5t36 20t45.5 10t45 10.5t34 21.5t13.5 43.5v9.5t-1 9.5q-8 17 -23.5 21.5t-32 6t-30.5 5.5t-20 22q27 13 57.5 20t59.5 17t54 28t41 53
q21 45 47 90t59 83.5t74.5 67t94.5 39.5h26q19 0 36.5 -5.5t26.5 -24.5z" />
    <glyph glyph-name="dieresis" unicode="&#xa8;" horiz-adv-x="566" 
d="M254 722q8 4 17 4q16 0 30.5 -8t25.5 -21.5t18 -30.5t7 -35q-2 -10 -9 -13t-15 -3q-13 0 -29.5 4.5t-31 14t-24.5 23.5t-10 32q0 11 5 20t16 13zM454 707q7 9 18.5 12.5t22.5 3.5q9 0 18 -6.5t16.5 -17t12 -22.5t4.5 -22q0 -15 -10.5 -29.5t-28.5 -14.5q-11 0 -22 5
t-19.5 13.5t-14 19t-5.5 22.5q0 10 2.5 19t5.5 17z" />
    <glyph glyph-name="macron" unicode="&#xaf;" horiz-adv-x="566" 
d="M492 644q-49 -9 -82.5 -23t-61.5 -28.5t-56 -26.5t-65 -15q-5 0 -10.5 4.5t-9.5 10.5t-4.5 13t4.5 12l78.5 31.5t63.5 20t65.5 11t84.5 3.5z" />
    <glyph glyph-name="acute" unicode="&#xb4;" horiz-adv-x="559" 
d="M473 749q13 -8 15.5 -20.5t-1 -25.5t-12.5 -24.5t-20 -17.5q-31 -9 -61 -22.5t-60 -25.5t-60.5 -19t-62.5 -3q16 16 36 30.5t41.5 28l43 27t40.5 28.5l23.5 18t23.5 15.5t25 9.5t29 1z" />
    <glyph glyph-name="cedilla" unicode="&#xb8;" horiz-adv-x="543" 
d="M379 -165q0 -28 -18.5 -54.5t-45.5 -47.5t-57.5 -34t-55.5 -13q-5 0 -16 1.5t-24 7.5t-25.5 19t-19.5 37l15.5 -2.5l19 -3l18.5 -3t15 -1.5q26 0 42 7t25 19t12.5 29.5t3.5 38.5q0 12 -9 20.5t-19.5 16.5l-19.5 15t-9 16q0 4 6.5 9.5t15 11.5t15 11.5t6.5 9.5q0 33 -9 49
t-17 24t-11 13.5t8 17.5q3 3 7.5 3h8.5q8 0 19.5 -9t22 -22.5t18 -28.5t7.5 -28q0 -18 -10 -36t-10 -30q0 -8 14 -14t31.5 -12.5t31.5 -15t14 -21.5z" />
    <glyph glyph-name="quotesinglbase" unicode="&#x201a;" horiz-adv-x="184" 
d="M83 109q16 -18 22.5 -42t6 -50t-7 -51.5t-16.5 -45.5q-6 -6 -12 -15.5t-13 -17t-16 -12t-21 -1.5q-12 13 -10.5 27.5t8.5 29t15 29t9 29.5q12 19 6.5 36.5t-13.5 34t-10 32t17 30.5q11 3 20 -1.5t15 -11.5z" />
    <glyph glyph-name="quotedblbase" unicode="&#x201e;" horiz-adv-x="336" 
d="M93 109q16 -17 22.5 -40t6.5 -48q0 -27 -6.5 -53.5t-17.5 -47.5q-6 -6 -11 -14t-11 -15.5t-13.5 -12.5t-17.5 -5q-6 0 -9 1q-10 11 -10 26q0 11 4.5 22t10.5 22t11 22.5t6 22.5q8 14 8 25q0 10 -4 20.5t-8.5 20t-8.5 19t-4 18.5q0 16 17 30q3 1 8 1q8 0 15 -4.5t12 -9.5z
M233 109q16 -17 22.5 -40t6.5 -48q0 -27 -6.5 -53.5t-17.5 -47.5q-6 -6 -11 -14t-11 -15.5t-13.5 -12.5t-17.5 -5q-6 0 -9 1q-10 11 -10 26q0 11 4.5 22t10.5 22t11 22.5t6 22.5q8 14 8 25q0 10 -4 20.5t-8.5 20t-8.5 19t-4 18.5q0 16 17 30q3 1 8 1q8 0 15 -4.5t12 -9.5z
" />
    <glyph glyph-name="daggerdbl" unicode="&#x2021;" horiz-adv-x="279" 
d="M233 601q3 -9 3 -17q0 -17 -7 -34t-7 -32q0 -11 6 -19.5t22 -15.5q9 -4 18.5 -5.5t14.5 -12.5q-3 -15 -12.5 -20.5t-21.5 -7.5l-24.5 -4t-21.5 -9q-20 -21 -33.5 -44t-21.5 -49v-7q0 -16 10 -20q7 -4 18 -6l30 -11q10 -4 10 -7q0 -1 -4 -9l-1 -2q-8 -16 -16 -19t-16 -4
l-22 -3q-19 -3 -30 -19q-3 -32 -5 -63.5t-5.5 -63t-10 -62t-18.5 -58.5q-6 -11 -11 -25t-21 -16q-30 0 -41 29q0 66 20 124.5t44 115.5v5q0 18 -16 24q-20 8 -29 18q-6 6 -6 12t6 8q10 4 15 5.5t7.5 2t5.5 1t10 2.5q18 3 30 10t20 23l6 21.5t5 21.5q1 5 1.5 8.5t0.5 8.5
q0 19 -9.5 34t-28.5 20q-5 5 -10 6t-7 6q-2 6 -2 8q0 11 10 15.5t18 8.5q16 0 28.5 12.5t21.5 23.5q2 33 8 62t30 49q8 2 11 2q10 0 16.5 -6.5t11.5 -15.5z" />
    <glyph glyph-name="guilsinglleft" unicode="&#x2039;" horiz-adv-x="396" 
d="M319 459q-11 -33 -33.5 -56.5t-50.5 -42.5t-58 -35.5t-55 -37.5q-12 -8 -27 -13.5t-26 -11.5t-15 -14.5t5 -21.5q34 -25 71 -40t76 -24.5t78 -16.5t78 -17q15 -3 20.5 -15.5t4.5 -24.5q-8 -15 -24.5 -21.5t-30.5 -1.5q-26 9 -56.5 18t-62 19.5t-62 22.5t-56.5 26
q-15 8 -29 17.5t-25.5 20.5t-18.5 23.5t-7 26.5q6 16 21 29t33 24t37 21.5t33 20.5q36 36 69 72.5l66 74.5q8 6 16 6t14.5 -3.5t10.5 -10.5t4 -14z" />
    <glyph glyph-name="guilsinglright" unicode="&#x203a;" horiz-adv-x="396" 
d="M85 459q0 7 4 14t10.5 10.5t14.5 3.5t16 -6l66 -74.5t69 -72.5q14 -10 33 -20.5t37 -21.5t33 -24t21 -29q0 -14 -7 -26.5t-18.5 -23.5t-25.5 -20.5t-29 -17.5q-26 -14 -56.5 -26t-62 -22.5t-62 -19.5t-56.5 -18q-14 -5 -30.5 1.5t-24.5 21.5q-1 12 4.5 24.5t20.5 15.5
q39 10 78 17t78 16.5t76 24.5t71 40q9 13 5 21.5t-15 14.5t-26 11.5t-27 13.5q-26 21 -55.5 37.5t-57.5 35.5t-50.5 42.5t-33.5 56.5z" />
    <glyph glyph-name="exclamdown" unicode="&#xa1;" horiz-adv-x="168" 
d="M19 -259q-12 63 -5 118t23 107.5t36 103t34 104.5l7 -14q-5 -54 -4.5 -108l1 -107.5t-2.5 -106.5t-15 -104q-6 -15 -17.5 -19.5t-23.5 -2t-21.5 10t-11.5 18.5zM73 410q0 15 10 29t25 22q16 0 33.5 -11t17.5 -30q0 -15 -12.5 -31t-27.5 -20q-16 4 -29 15t-17 26z" />
    <glyph glyph-name="cent" unicode="&#xa2;" horiz-adv-x="543" 
d="M401 380l-45 -16.5l-49 -17.5t-49.5 -20t-46.5 -25q1 -10 6 -30t12.5 -45.5l15 -53.5t15 -53t12.5 -44.5t6 -27.5q2 -11 5 -25.5t7 -30.5q27 6 54 15.5t54 18t55 12.5t59 -1q14 -11 15 -32.5t-10 -35.5q-43 -29 -93.5 -53.5t-104.5 -37.5q8 -36 10.5 -68.5t-5.5 -55.5
q-3 -8 -8 -14t-22 -8q-11 9 -15.5 17.5t-4.5 19.5q0 29 1 53t1 48q-56 -8 -109.5 0.5t-100.5 40.5q-29 26 -39.5 55t-18.5 61q3 36 13 74.5t29.5 77.5t48.5 76t68 69l-24.5 63.5t-12.5 65.5v22t1 22q14 19 33 16q14 -3 20 -9.5t8 -22.5q4 -34 6 -66t6 -65q62 42 144 64
q7 -3 16.5 -4t17.5 -3.5t13.5 -8t5.5 -17.5zM181 276l-1 2q-14 -12 -26 -26.5t-20 -31.5q-13 -15 -20 -33.5t-9 -38.5t-0.5 -40t5.5 -38q14 -22 30 -44.5t38 -33.5q23 -7 44 -8t41 2q-7 31 -19.5 71.5l-25.5 81t-23.5 77.5t-13.5 60z" />
    <glyph glyph-name="currency" unicode="&#xa4;" horiz-adv-x="672" 
d="M289 168q-9 -1 -17 -0.5t-15.5 -1t-12.5 -6t-8 -14.5q-12 -30 -18 -54t-12 -40.5t-14.5 -25t-25.5 -8.5q-25 0 -30 6t-5 30q0 23 5.5 39.5t14.5 31t20.5 29t23.5 33.5q-36 17 -59 46.5t-23 74.5q0 14 6 29.5t13 28.5t13 22t6 12q0 8 -12 19l-27.5 25t-30 32.5t-18.5 41.5
q5 5 10 5q15 0 31 -14t31.5 -30.5l28.5 -30.5t21 -14q10 0 19 9q23 21 65.5 35t93.5 14q20 0 41 -3q21 4 33.5 22t22.5 37.5t21 35t29 15.5q15 0 31.5 -8.5t16.5 -33.5q0 -8 -3.5 -11.5t-7.5 -6.5q-16 -12 -29 -20t-22.5 -15t-14.5 -14.5t-5 -17.5q0 -7 5 -19
q11 -25 18.5 -50.5t7.5 -57.5q0 -29 -11 -52.5t-29 -43.5l-2 -2q0 -4 10 -11t22.5 -17t22.5 -22t10 -27q0 -12 -5.5 -18t-12.5 -9q-8 -4 -17 -3q-17 0 -30.5 8t-26 18t-24.5 18t-25 8q-9 0 -17 -4h1q-43 -15 -84 -20zM453 379q0 39 -18 62t-65 23q-22 0 -59.5 -6.5t-74 -24
t-63 -48t-26.5 -78.5q0 -24 13 -40t32.5 -25.5t42 -14t41.5 -4.5q21 0 44.5 7.5t45 20t40 28t30.5 32.5q1 4 4 13.5t6 20.5t5 20.5t2 13.5z" />
    <glyph glyph-name="brokenbar" unicode="&#xa6;" horiz-adv-x="174" 
d="M80 341l-3.5 -42t-3.5 -34.5t-3 -34t-1 -42.5q0 -17 8 -34.5t17 -35l17 -34.5t8 -33q0 -5 -2.5 -13.5t-8 -17t-15 -15t-23.5 -6.5q-23 0 -36.5 12.5t-21.5 29.5t-10.5 36t-2.5 33q0 27 6.5 51.5t15 50t15.5 52.5t9 59q0 15 7 22.5t15 7.5q11 0 13 -12zM41 401
q-1 30 -8 62.5t-15 66t-14.5 67.5t-6.5 67q0 15 1 31t6 29.5t15 22t27 8.5t32 -10.5t15 -30.5q0 -77 -3 -148.5t-8 -149.5q-1 -11 -10.5 -17.5t-17.5 -6.5q-13 0 -13 9z" />
    <glyph glyph-name="ordfeminine" unicode="&#xaa;" horiz-adv-x="322" 
d="M205 477q-15 0 -36 -5.5t-40.5 -16t-33 -25.5t-13.5 -35q0 -22 12 -28t26 -6q31 0 62.5 10t57.5 43q1 8 1 10v9q0 19 -11 31.5t-25 12.5zM246 342q-17 -11 -44 -19t-56 -8q-16 0 -35 2.5t-35 9t-26.5 18.5t-10.5 32q0 19 9 38.5t23.5 36t32.5 28.5t37 15q12 2 30 3.5
t34.5 5.5t28.5 12.5t12 25.5t-7.5 32.5t-15.5 16.5q-9 -2 -25.5 -3.5t-25.5 -9.5q-2 -2 -7.5 -11t-11.5 -9q-3 0 -5.5 5.5t-4.5 19.5q1 14 12 27t27 23.5t33 17t30 6.5q20 0 27 -19.5t7 -40.5q0 -31 -3.5 -55.5t-3.5 -44.5q0 -37 3.5 -61.5t3.5 -41.5t-6.5 -28.5
t-26.5 -23.5z" />
    <glyph glyph-name="logicalnot" unicode="&#xac;" horiz-adv-x="603" 
d="M72 283q32 0 47.5 1t23 2.5t11.5 2.5t14 1q9 0 21.5 -0.5t33.5 -0.5q25 0 51 1t52 1q34 0 66.5 -1t64.5 -6q25 -4 42 -17t27 -31t14 -40t4 -44q0 -4 -1 -20.5t-2.5 -35t-4 -33.5t-5.5 -15q-19 0 -24 18t-5 41q0 8 0.5 17t0.5 17q0 6 -0.5 10.5t-1.5 8.5q-5 14 -6.5 22
t-2.5 14t-3.5 13t-9.5 19v-1q-11 20 -28 29.5t-44 9.5l-43.5 -4t-46 -5t-54 -7.5l-67.5 -10.5q-19 -3 -45.5 -9.5t-48.5 -6.5q-17 0 -27.5 5.5t-10.5 22.5q0 6 1.5 14t6.5 18z" />
    <glyph glyph-name="paragraph" unicode="&#xb6;" horiz-adv-x="510" 
d="M239 721q18 0 54.5 -6.5t76.5 -11.5q11 -2 23 -4.5t26 -2.5q23 0 41 3.5t31 3.5q26 0 35 -6.5t9 -15.5q0 -17 -13.5 -27t-21.5 -10q-10 0 -21 3t-19 3q-30 0 -43 -20.5t-13 -49.5q0 -22 3 -44.5t3 -45.5q0 -67 -15 -135t-37.5 -134t-49 -128.5l-50.5 -118.5
q-9 -28 -16 -38.5t-12 -10.5t-8.5 6.5t-5.5 16t-3.5 20.5t-1.5 19q0 45 21 93.5t46.5 94.5l46.5 87t21 71q0 13 -13 22t-30 14.5t-33 8t-21 3.5l-45.5 8t-56 21t-47.5 47t-20 84q0 85 36.5 132.5t122.5 47.5z" />
    <glyph glyph-name="ordmasculine" unicode="&#xba;" horiz-adv-x="229" 
d="M141 498q-17 0 -33.5 -8.5t-30 -22t-22 -30.5t-8.5 -33q0 -6 4.5 -10t10.5 -5.5t12 -2t9 -0.5q12 0 27.5 2t29 10t23 24t9.5 45q0 12 -10 21.5t-21 9.5zM79 337q-35 0 -57 15.5t-22 56.5q0 25 13.5 47.5t34.5 39.5t46 27t48 10q24 0 42.5 -16.5t18.5 -49.5
q0 -27 -9 -50.5t-25.5 -41t-39.5 -28t-50 -10.5z" />
    <glyph glyph-name="afii10023" unicode="&#x401;" horiz-adv-x="542" 
d="M542 675q-4 -32 -23.5 -43t-46 -13t-54.5 -1.5t-50 -8.5q-31 -6 -61 -17t-55.5 -28.5t-44 -42t-26.5 -56.5q-5 -20 -16 -38.5t-11 -37.5q0 -13 6.5 -21t16.5 -12t21 -5.5t20 -1.5q33 0 68 10.5t73 10.5q6 0 12 -0.5t12 -1.5l12 -15l-16 -16q-23 -8 -55 -11.5l-65.5 -7.5
t-66.5 -10.5t-59 -20.5t-42 -36.5t-16 -58.5q0 -20 5.5 -41.5t17.5 -40.5t30.5 -31t44.5 -12q43 0 82 12.5t76.5 30l75 35.5t77.5 29q2 1 6 1q8 0 15.5 -4.5t9.5 -11.5q-7 -22 -22.5 -38t-34.5 -29.5t-39 -26t-36 -27.5q-22 -13 -47.5 -26t-53 -23t-56 -16.5t-56.5 -6.5
q-39 0 -70.5 13t-54.5 34.5t-35.5 49.5t-12.5 59q0 29 8 58t22 56q14 29 30.5 58.5t30 60t22.5 62.5t9 67v9q3 18 2.5 36t0.5 36t6 35t18 32q66 34 138.5 60t150.5 26q14 0 30 -0.5t30.5 -4t26.5 -12.5t20 -26zM235 866q8 4 17 4q16 0 30.5 -8t25.5 -21.5t18 -30.5t7 -35
q-2 -10 -9 -13t-15 -3q-13 0 -29.5 4.5t-31 14t-24.5 23.5t-10 32q0 11 5 20t16 13zM435 851q7 9 18.5 12.5t22.5 3.5q9 0 18 -6.5t16.5 -17t12 -22.5t4.5 -22q0 -15 -10.5 -29.5t-28.5 -14.5q-11 0 -22 5t-19.5 13.5t-14 19t-5.5 22.5q0 10 2.5 19t5.5 17z" />
    <glyph glyph-name="afii10052" unicode="&#x403;" horiz-adv-x="545" 
d="M581 754q5 -18 -1 -38.5t-27 -30.5q-33 -9 -67 -13.5l-68.5 -9t-68 -12t-65.5 -22.5q-35 -17 -60 -43t-43.5 -56.5t-33 -63.5l-29.5 -64q-22 -47 -21 -94t9 -95t14.5 -97.5t-5.5 -99.5q-9 -21 -29.5 -27t-38.5 3q-28 29 -36 66t-3.5 75t17.5 75.5t26 67.5q11 36 11 74
t1.5 75.5t14.5 71.5q11 29 28 54t28 55q20 54 60.5 85t91 49t105 27.5t103.5 20.5q26 0 49 -4t38 -29zM494 963q13 -8 15.5 -20.5t-1 -25.5t-12.5 -24.5t-20 -17.5q-31 -9 -61 -22.5t-60 -25.5t-60.5 -19t-62.5 -3q16 16 36 30.5t41.5 28l43 27t40.5 28.5l23.5 18t23.5 15.5
t25 9.5t29 1z" />
    <glyph glyph-name="afii10054" unicode="&#x405;" horiz-adv-x="501" 
d="M433 706q16 -10 23.5 -25.5t7.5 -33.5q0 -17 -6 -33q-5 -12 -14 -17t-20 -5q-12 0 -25 5q-11 23 -29.5 34t-39.5 11q-8 0 -17.5 -1.5t-17.5 -5.5q-23 -8 -48 -14.5t-49 -16t-45.5 -25t-36.5 -40.5q-3 -10 -4 -18.5t-1 -17.5q0 -30 13.5 -57.5t34.5 -51t46 -44t48 -36.5
q28 -26 66 -49t71.5 -50t57 -59.5t23.5 -76.5v-9.5t-1 -9.5q-40 -50 -98 -68.5t-123 -18.5q-53 0 -105.5 8.5t-98.5 19.5l-25.5 20.5t-12.5 29.5q4 13 10.5 24t19.5 14q48 -2 100.5 -11.5t106.5 -9.5q28 0 55.5 4.5t53.5 16.5q11 9 18 22t7 27q0 11 -4 18q-21 43 -55.5 74.5
t-73.5 58.5l-78.5 52.5t-71.5 55.5t-52 68.5t-20 92.5v11.5t1 11.5q26 39 61.5 67t76.5 46.5t86 27t92 8.5q30 0 59 -3z" />
    <glyph glyph-name="afii10055" unicode="&#x406;" horiz-adv-x="209" 
d="M180 709q-7 -56 -19 -112t-23 -113t-19.5 -113.5t-8.5 -112.5q0 -50 8.5 -98.5t28.5 -96.5q-5 -29 -18 -54t-38 -35q-9 -4 -20 -4q-22 0 -36.5 16t-21.5 33l32.5 213.5t16.5 221.5q0 91 -16 177q0 17 2.5 35t8.5 34.5t17 29t28 18.5q10 3 21 3q20 0 36 -11t21 -31z" />
    <glyph glyph-name="afii10056" unicode="&#x407;" horiz-adv-x="209" 
d="M180 709q-7 -56 -19 -112t-23 -113t-19.5 -113.5t-8.5 -112.5q0 -50 8.5 -98.5t28.5 -96.5q-5 -29 -18 -54t-38 -35q-9 -4 -20 -4q-22 0 -36.5 16t-21.5 33l32.5 213.5t16.5 221.5q0 91 -16 177q0 17 2.5 35t8.5 34.5t17 29t28 18.5q10 3 21 3q20 0 36 -11t21 -31z
M-19 926q8 4 17 4q16 0 30.5 -8t25.5 -21.5t18 -30.5t7 -35q-2 -10 -9 -13t-15 -3q-13 0 -29.5 4.5t-31 14t-24.5 23.5t-10 32q0 11 5 20t16 13zM181 911q7 9 18.5 12.5t22.5 3.5q9 0 18 -6.5t16.5 -17t12 -22.5t4.5 -22q0 -15 -10.5 -29.5t-28.5 -14.5q-11 0 -22 5
t-19.5 13.5t-14 19t-5.5 22.5q0 10 2.5 19t5.5 17z" />
    <glyph glyph-name="afii10057" unicode="&#x408;" horiz-adv-x="373" 
d="M316 625q1 -20 1.5 -40t0.5 -40q0 -117 -10 -240.5t-10 -243.5v-32t1 -32q-14 -45 -36 -91.5t-53 -87.5t-71 -73t-90 -47q-81 3 -162.5 15t-156.5 47q-22 15 -32 37.5t-13 44.5q0 24 8 46.5t33 34.5q5 6 12 8t15 2q9 0 17.5 -1.5t15.5 -3.5h1l49 -99q16 -1 34 -5l37 -8
t38 -7t38 -3q22 0 42 5.5t37 21.5q42 37 78.5 78.5t63.5 88t42.5 98t15.5 108.5q2 11 2 21.5v21.5q0 39 -6 78.5t-13.5 78.5t-13.5 78t-6 77q0 39 9 77q4 14 13.5 20t20.5 6q17 0 31.5 -11t16.5 -28z" />
    <glyph glyph-name="afii10061" unicode="&#x40c;" horiz-adv-x="608" 
d="M230 685q10 -30 10 -64q0 -33 -5 -68.5t-5 -71.5q15 -17 28 -17q10 0 21 9l16 17l50 51t52.5 45t57.5 32t64 12q6 0 12.5 -0.5t13.5 -1.5q13 -5 22.5 -16t9.5 -25q0 -7 -5 -17q-20 -15 -41.5 -26.5t-42.5 -21.5l-41.5 -20.5t-38.5 -24.5q-33 -25 -68 -47.5t-68 -47.5
t-62.5 -54.5t-50.5 -67.5q-7 -13 -7 -26q0 -20 13.5 -39.5t33.5 -32.5q45 -12 93.5 -14t97 -3t96 -5.5t90.5 -21.5q8 -5 10.5 -11.5t2.5 -14.5q0 -9 -2.5 -18t-5.5 -18q-31 -14 -67 -14l-139 15h-10t-10 -1q-51 3 -95.5 8.5t-95.5 9.5q-13 -12 -19 -28t-11 -31.5t-13 -29.5
t-24 -22q-7 -2 -13.5 -3t-14.5 -1q-19 0 -35 8.5t-21 30.5q-3 15 -3 29q0 34 13 63.5t29 59t30 60.5t15 67q14 42 26 92t12 100q0 32 -7.5 62.5t-25.5 56.5q0 20 3 40t10 38t19 32t30 23q4 2 8 2h8q18 0 31.5 -10.5t18.5 -27.5zM510 936q13 -8 15.5 -20.5t-1 -25.5
t-12.5 -24.5t-20 -17.5q-31 -9 -61 -22.5t-60 -25.5t-60.5 -19t-62.5 -3q16 16 36 30.5t41.5 28l43 27t40.5 28.5l23.5 18t23.5 15.5t25 9.5t29 1z" />
    <glyph glyph-name="afii10017" unicode="&#x410;" horiz-adv-x="537" 
d="M433 296q-1 -7 -1 -13.5v-13.5q0 -48 8 -92.5t17 -89t17 -89t8 -90.5q0 -20 -14 -35.5t-31 -22.5q-43 0 -62 40q-5 28 -7 54t-2 52q0 38 3.5 75t7.5 74t7.5 74.5t3.5 76.5q-7 20 -25 27t-39 7q-22 0 -38 -3q-31 -10 -58.5 -27.5t-44.5 -43.5q-17 -33 -25 -71.5t-18 -75.5
t-27.5 -69t-54.5 -52q-30 0 -49 13q-10 20 -10 39q0 30 20.5 54.5t44.5 48.5t44.5 50t20.5 60v7q-9 17 -23 22t-30 5l-34 -1q-12 0 -22 2.5t-16 11.5q25 14 56 17t60 8.5t53.5 21.5t36.5 56l29.5 92.5t36.5 91t50 84t71 71.5q5 2 9 2h8q17 0 30 -9.5t20 -23.5q13 -30 13 -64
q0 -39 -10.5 -77.5t-10.5 -74.5q0 -23 8 -45.5t31 -42.5q-3 -14 -13 -26l-21 -24t-19.5 -25.5t-8.5 -29.5v-6zM384 403q6 10 8.5 22t2.5 26q0 15 -2 29.5t-4 27.5q0 2 -0.5 3.5t-0.5 3.5l-2.5 12t-3.5 13.5t-6.5 11t-11.5 4.5q-4 0 -7 -1l-85 -125q-1 -7 -3 -15t-2 -16
q0 -9 4 -18t15 -14q12 0 25.5 0.5t27 4t25.5 10.5t20 21z" />
    <glyph glyph-name="afii10019" unicode="&#x412;" horiz-adv-x="543" 
d="M406 424q45 -53 70 -111.5t25 -127.5q0 -14 -1 -27t-3 -27q-14 -25 -32 -51.5t-40.5 -50t-49 -41t-56.5 -23.5q-33 -3 -69 -3t-72.5 4.5t-68.5 15.5t-59.5 31t-45.5 51q-2 5 -2 9v9q0 19 9 33t21 26.5l24.5 24.5t19.5 27q28 60 39 127t11 137q0 59 -6 116
q-9 9 -21.5 12.5t-24 5.5t-21.5 6.5t-15 16.5q10 30 30 50t45.5 33.5t54.5 21.5t57 14l23 5h37q23 0 43 -3t36 -17q17 -14 27 -32t10 -38q0 -13 -4 -25q-12 -19 -28 -34.5t-33.5 -29.5l-35 -27.5t-31.5 -28.5q12 -16 30 -24.5t37.5 -15t38 -15t31.5 -24.5zM372 110
q32 34 57.5 74t25.5 86q0 11 -1.5 23t-6.5 24q-19 34 -46 62.5t-62 44.5l-14 2q-20 3 -39.5 5.5t-39.5 2.5t-39.5 -3.5t-36.5 -14.5q-19 -41 -27 -85.5t-8 -90.5q0 -38 5 -76.5t13 -74.5l25 -29q30 -8 57 -8q39 0 74.5 14.5t62.5 43.5zM207 623q0 -2 -0.5 -2.5t-0.5 -2.5
q0 -1 -0.5 -1.5t-0.5 -1.5q-2 -6 -3 -12t-1 -12q0 -15 10 -22q22 3 43.5 21.5t31.5 40.5q-5 8 -13 11t-17 3q-14 0 -27.5 -6t-21.5 -16z" />
    <glyph glyph-name="afii10020" unicode="&#x413;" horiz-adv-x="545" 
d="M581 754q5 -18 -1 -38.5t-27 -30.5q-33 -9 -67 -13.5l-68.5 -9t-68 -12t-65.5 -22.5q-35 -17 -60 -43t-43.5 -56.5t-33 -63.5l-29.5 -64q-22 -47 -21 -94t9 -95t14.5 -97.5t-5.5 -99.5q-9 -21 -29.5 -27t-38.5 3q-28 29 -36 66t-3.5 75t17.5 75.5t26 67.5q11 36 11 74
t1.5 75.5t14.5 71.5q11 29 28 54t28 55q20 54 60.5 85t91 49t105 27.5t103.5 20.5q26 0 49 -4t38 -29z" />
    <glyph glyph-name="afii10022" unicode="&#x415;" horiz-adv-x="542" 
d="M542 675q-4 -32 -23.5 -43t-46 -13t-54.5 -1.5t-50 -8.5q-31 -6 -61 -17t-55.5 -28.5t-44 -42t-26.5 -56.5q-5 -20 -16 -38.5t-11 -37.5q0 -13 6.5 -21t16.5 -12t21 -5.5t20 -1.5q33 0 68 10.5t73 10.5q6 0 12 -0.5t12 -1.5l12 -15l-16 -16q-23 -8 -55 -11.5l-65.5 -7.5
t-66.5 -10.5t-59 -20.5t-42 -36.5t-16 -58.5q0 -20 5.5 -41.5t17.5 -40.5t30.5 -31t44.5 -12q43 0 82 12.5t76.5 30l75 35.5t77.5 29q2 1 6 1q8 0 15.5 -4.5t9.5 -11.5q-7 -22 -22.5 -38t-34.5 -29.5t-39 -26t-36 -27.5q-22 -13 -47.5 -26t-53 -23t-56 -16.5t-56.5 -6.5
q-39 0 -70.5 13t-54.5 34.5t-35.5 49.5t-12.5 59q0 29 8 58t22 56q14 29 30.5 58.5t30 60t22.5 62.5t9 67v9q3 18 2.5 36t0.5 36t6 35t18 32q66 34 138.5 60t150.5 26q14 0 30 -0.5t30.5 -4t26.5 -12.5t20 -26z" />
    <glyph glyph-name="afii10028" unicode="&#x41a;" horiz-adv-x="608" 
d="M230 685q10 -30 10 -64q0 -33 -5 -68.5t-5 -71.5q15 -17 28 -17q10 0 21 9l16 17l50 51t52.5 45t57.5 32t64 12q6 0 12.5 -0.5t13.5 -1.5q13 -5 22.5 -16t9.5 -25q0 -7 -5 -17q-20 -15 -41.5 -26.5t-42.5 -21.5l-41.5 -20.5t-38.5 -24.5q-33 -25 -68 -47.5t-68 -47.5
t-62.5 -54.5t-50.5 -67.5q-7 -13 -7 -26q0 -20 13.5 -39.5t33.5 -32.5q45 -12 93.5 -14t97 -3t96 -5.5t90.5 -21.5q8 -5 10.5 -11.5t2.5 -14.5q0 -9 -2.5 -18t-5.5 -18q-31 -14 -67 -14l-139 15h-10t-10 -1q-51 3 -95.5 8.5t-95.5 9.5q-13 -12 -19 -28t-11 -31.5t-13 -29.5
t-24 -22q-7 -2 -13.5 -3t-14.5 -1q-19 0 -35 8.5t-21 30.5q-3 15 -3 29q0 34 13 63.5t29 59t30 60.5t15 67q14 42 26 92t12 100q0 32 -7.5 62.5t-25.5 56.5q0 20 3 40t10 38t19 32t30 23q4 2 8 2h8q18 0 31.5 -10.5t18.5 -27.5z" />
    <glyph glyph-name="afii10029" unicode="&#x41b;" horiz-adv-x="518" 
d="M438 -20q-20 0 -30.5 11t-15.5 31q-5 14 -9 44.5t-7 68.5q-1 16 -4.5 41.5l-7.5 53l-8 54.5t-6 46l-10 86.5t-6 71.5q-1 14 -7 14q-4 0 -8.5 -6.5t-6.5 -11.5q-3 -7 -12.5 -33.5t-17.5 -51.5q-13 -37 -26.5 -82.5t-30 -91.5t-37 -89t-45 -76.5t-55.5 -54t-68 -20.5h-6
q-2 0 -9.5 1.5t-15.5 4.5t-14.5 7.5t-6.5 11.5q0 9 6 16t14.5 11.5t18.5 7t19 2.5q13 1 27.5 4.5t28.5 18.5q12 12 26 30.5t27.5 39.5t25 42.5t18.5 39.5l7.5 21t9.5 30l22 62t27 70l23 54l27 62q16 29 26 56t19.5 47.5t20 32.5t28.5 12q16 0 29.5 -13t13.5 -27
q0 -35 -1 -68.5t-3 -66.5t-3 -65.5t-1 -67.5q0 -36 7.5 -77t16.5 -84l3 -17q8 -38 14 -76t6 -77q0 -7 -5 -16t-11 -16.5t-11 -12.5t-6 -5z" />
    <glyph glyph-name="afii10030" unicode="&#x41c;" horiz-adv-x="777" 
d="M707 682q39 -45 53.5 -95t14.5 -104q0 -46 -7.5 -93t-17.5 -93.5l-19.5 -91.5t-13.5 -87q-6 -70 -21.5 -135.5t-58.5 -116.5q-17 0 -33.5 7.5t-19.5 27.5v13q0 37 9.5 71t23.5 66.5t30.5 64t30.5 64t23.5 67t9.5 72.5q0 39 -1 78t-8 75t-21 69t-41 61q-10 2 -15 2
q-19 0 -35 -9.5t-31 -23t-29.5 -28.5t-30.5 -25q-25 -24 -40 -52.5t-22.5 -60t-10 -65t-2.5 -67.5l1 -85v-21t-1 -20q-3 -5 -10 -10t-15 -5q-7 0 -11 6q-7 35 -7 78l2 88v9q0 36 -7.5 70t-27.5 64l-30.5 42.5t-39.5 33.5q-47 -2 -79 -25t-54 -57.5t-36 -75t-24 -77.5
q-3 -21 -3 -41q0 -24 4 -46.5t10 -48t14 -54.5t16 -65q-2 -39 -13 -55t-29 -28q-7 -5 -16.5 -9t-18.5 -4q-8 0 -13 4q-17 21 -24 43.5t-7 45.5q0 25 6 51.5t13.5 52l14.5 50t9 47.5l2 17q4 51 10.5 103t22 99.5t43.5 86.5t76 65q34 14 64 14q50 0 91 -36q7 -8 12 -18t11 -19
t13.5 -15t18.5 -6l7 1q23 43 56.5 86.5t80.5 72.5q18 11 38.5 17t41.5 6q39 0 71 -23z" />
    <glyph glyph-name="afii10031" unicode="&#x41d;" horiz-adv-x="492" 
d="M158 747q44 -96 44 -209q0 -51 -9 -102v-5q0 -16 14.5 -26.5t25.5 -15.5q21 3 43 4t41.5 6t35.5 15.5t25 33.5q3 16 3 35l-5 91q0 29 8.5 52.5t37.5 37.5q20 0 31 -12.5t20 -26.5q3 -17 3 -33q0 -28 -4 -54t-4 -51q0 -20 5 -40t20 -39q1 -3 1 -8q0 -12 -7 -22.5t-16 -20
l-18 -19t-12 -20.5q-13 -44 -16 -95t-3 -102v-83q-3 -18 -18 -31.5t-29 -19.5q-8 -2 -11 -2q-17 0 -28.5 12.5t-16.5 24.5q8 30 19.5 59.5t22 59.5t18 60.5t7.5 63.5q0 25 -4 45q-13 20 -30 27.5t-37 7.5q-31 0 -64.5 -11t-61.5 -16q-29 -32 -39 -71.5t-10 -82.5
q0 -40 4.5 -80t5.5 -77v-2q0 -20 -11.5 -38t-31.5 -23q-10 -2 -15 -2q-16 0 -27.5 9t-16.5 24q-3 11 -4 20.5t-1 19.5l70 226q0 20 -6 41q-6 20 -20.5 25.5t-30 8t-29.5 7t-19 22.5q13 8 27.5 13.5t28.5 11.5t26 14.5t21 23.5l1 75q0 26 -2 52t-8 51t-18 47.5t-32 42.5
q-1 4 -1 11q0 17 7 32t17 28q16 14 40 14t43 -14z" />
    <glyph glyph-name="afii10032" unicode="&#x41e;" horiz-adv-x="755" 
d="M653 635q42 -51 60 -117t18 -136q0 -63 -13.5 -124.5t-38.5 -112.5q-26 -54 -65 -92.5t-86.5 -62.5t-100 -35t-106.5 -11l-87 16t-85.5 23.5t-72 43.5t-45.5 75q-22 56 -22 114q0 45 12.5 88.5t34 84.5t50.5 78.5t63 71.5q70 71 163.5 100t193.5 29q14 0 28 -0.5t28 -1.5
h3zM500 81q30 10 60 28t56 43t44.5 55t24.5 64q2 15 3.5 29.5t1.5 28.5q0 55 -19 103.5t-60 86.5q-28 27 -58.5 38.5t-62.5 11.5q-35 0 -71 -11.5t-70.5 -28t-67 -35l-60.5 -33.5l-52 -50.5t-52 -55t-39.5 -60t-15.5 -67.5q0 -14 2.5 -28t8.5 -29q21 -32 47.5 -52.5
t57 -32.5t64.5 -16.5t70 -4.5q38 0 76.5 3.5t75.5 8.5z" />
    <glyph glyph-name="afii10033" unicode="&#x41f;" horiz-adv-x="799" 
d="M856 670q-1 -38 -20.5 -69.5t-46 -60l-54 -56.5t-44.5 -60q-43 -44 -62 -97.5t-19 -112.5q0 -19 1.5 -38t5.5 -38q2 -11 6.5 -24l9.5 -27t9 -27.5t4 -26.5q0 -14 -6.5 -26t-22.5 -20h-6q-18 0 -29 10t-18.5 25t-12.5 31.5t-11 29.5q-6 19 -6 37t5 35.5t11.5 34.5t14 34
t12.5 35q1 47 15.5 88.5t34 81l40.5 78.5t35 82q-15 12 -33 12l-70 -13q-7 0 -11 1q-75 -11 -149 -23.5t-149 -20.5l-40 -37l-56.5 -151t-42.5 -157q-2 -11 -2.5 -21.5t-0.5 -21.5l4 -89v-10q0 -30 -11 -55t-41 -42h-7q-21 0 -39.5 2.5t-34.5 16.5q-14 12 -20.5 29.5
t-6.5 35.5q0 13 5 30q17 26 37.5 51t39.5 51t35 53.5t24 57.5q4 40 13 77.5l18.5 75t16.5 76t7 79.5q5 35 40 52q11 5 25 5q19 0 38 -6.5t41 -6.5h6q55 4 109 14.5l107.5 21.5t108 20t110.5 9h26t27 -2q8 -5 17.5 -13.5t12.5 -19.5z" />
    <glyph glyph-name="afii10034" unicode="&#x420;" horiz-adv-x="592" 
d="M632 634q3 -18 3 -36q0 -69 -36.5 -128t-99.5 -97q-78 -46 -159.5 -80t-169.5 -57q-27 -20 -34.5 -47t-7.5 -56l2 -65v-7q0 -27 -8 -50.5t-34 -40.5l-8 -1q-17 0 -31.5 10t-20.5 26q-2 10 -3.5 19t-1.5 18q0 25 7.5 47.5t17.5 44t21 42.5t19 43q12 37 18 77.5t6 82.5
q0 58 -11 113q3 14 8 23t18 16q24 -4 32 -17t8 -30q0 -21 -6 -46t-6 -47q0 -5 0.5 -9t1.5 -9q-10 -21 -10 -48q0 -10 1 -19.5t4 -18.5q7 -14 17.5 -19t22.5 -5q13 0 26 3t24 4q40 24 84 47t83.5 51t72.5 63t51 83l1 38q0 23 -6.5 42t-32.5 27q-29 9 -57 12.5t-56 3.5
q-41 0 -80.5 -7t-78 -17.5t-75.5 -24.5l-73 -27q-3 -1 -10 -1q-15 0 -26 7.5t-19 19.5q-3 9 -3 16q0 20 14.5 35t31.5 26q69 29 152.5 50.5t168.5 21.5q54 0 106 -11t99 -36z" />
    <glyph glyph-name="afii10035" unicode="&#x421;" horiz-adv-x="480" 
d="M457 615q1 -4 1.5 -7t0.5 -6q0 -18 -11.5 -27t-27 -13.5t-33 -7.5t-29.5 -10q-48 -34 -93.5 -74.5t-85 -87t-70 -97.5t-48.5 -106q-2 -8 -2 -14.5v-14.5q0 -42 20.5 -77t56.5 -56q36 -10 71 -10q57 0 108.5 21t101.5 44q15 -2 30 -7.5t18 -23.5q-9 -41 -42 -67t-73 -41.5
t-79.5 -21.5t-61.5 -6q-37 0 -75.5 9t-70 30.5t-51.5 56t-20 85.5q0 46 16 89.5t38.5 85.5l46 82.5t39.5 81.5q15 37 39.5 72.5t56 65.5t67.5 53t75 35q13 0 26.5 -0.5t26 -4t21.5 -11t13 -20.5z" />
    <glyph glyph-name="afii10036" unicode="&#x422;" horiz-adv-x="533" 
d="M664 733q3 -9 3 -16q0 -20 -14.5 -34t-30.5 -19l-240 -47l-26 -26q-16 -53 -34 -107t-33.5 -109t-26 -110.5t-10.5 -112.5q0 -25 2.5 -50t7.5 -50q0 -12 -0.5 -25.5t-4 -25.5t-11.5 -21t-22 -13q-2 0 -4 -0.5t-4 -0.5q-23 0 -37 17.5t-19 38.5l-1 16q0 39 11.5 73t25 67
t25 67t11.5 72q0 51 7 102t7 101q0 16 -1 31.5t-4 31.5l-26 13q-50 -5 -97 -15.5t-95 -10.5q-17 0 -34 2t-35 7q-8 6 -14 16.5t-6 21.5q0 14 12 26l42 25q149 23 293 43t289 52h27q20 0 39 -5.5t28 -24.5z" />
    <glyph glyph-name="afii10038" unicode="&#x424;" horiz-adv-x="559" 
d="M567 643q14 -21 23 -42.5t9 -46.5q0 -13 -3 -26q-11 -50 -41 -92.5t-70.5 -77.5t-86.5 -62t-89 -47q-24 -29 -29.5 -65.5t-5.5 -76.5v-32q0 -20 -0.5 -39t-3.5 -38q-6 -14 -19 -21.5t-28 -7.5q-13 0 -22 4q-14 19 -20 40.5t-6 44.5q0 39 13 78.5t28 69.5q-9 27 -30 38
t-46 17.5t-50 14t-43 27.5q-26 26 -37 58t-11 67q0 14 1.5 27t3.5 27q12 39 34.5 79t53.5 73.5t69.5 55.5t82.5 25q29 8 60.5 12.5t63.5 4.5q59 0 112 -19.5t87 -69.5zM485 417q16 23 25 51t9 57q0 34 -13 61q-22 32 -57.5 45.5t-75.5 13.5q-33 0 -66 -7.5t-59 -19.5
q-7 -31 -25 -44.5t-39.5 -22l-44 -17.5t-38.5 -31l-30 -56t-16 -60q0 -17 7 -34q12 -18 29 -30t36.5 -19t41.5 -9.5t43 -2.5q29 3 46.5 15.5t28 31t16.5 41t10.5 45.5t9.5 45t15 40q7 11 19.5 26t29.5 15q5 0 8 -1q11 -10 15.5 -19t4.5 -19q0 -14 -7 -28t-15.5 -28
l-16.5 -28.5t-10 -28.5l-2.5 -12t-1.5 -14t2.5 -13.5t8.5 -10.5q10 -2 16 -2q15 0 28 7t25 17.5t22.5 22.5z" />
    <glyph glyph-name="afii10039" unicode="&#x425;" horiz-adv-x="623" 
d="M725 652q-10 -31 -30 -55t-44.5 -44.5t-50.5 -39.5t-48 -40q-21 -26 -51.5 -52t-58 -55t-47 -61t-19.5 -69q0 -21 7 -41q10 -43 33 -83.5t54 -76.5t67.5 -67.5t73.5 -56.5q23 -16 23 -44q0 -12 -5 -25q-9 -13 -21.5 -18.5t-25.5 -5.5t-26 5q-43 22 -76 55t-58 73
t-43 83.5t-30 86.5q-11 18 -23 29t-27 11q-11 0 -21 -5q-46 -28 -71 -66.5t-45 -79.5t-42.5 -81t-63.5 -71h-6q-19 0 -34.5 14.5t-24.5 39.5q-3 13 -3 26q0 30 16 54t39 46t48 43t43 47q11 16 34.5 37t47 46.5t41 55.5t17.5 64q0 24 -10 47q-8 19 -22.5 36l-29 34.5
t-25 35.5t-10.5 39q0 15 5 28q9 12 23.5 20.5t30.5 8.5q15 0 28 -10q22 -11 30 -33.5t13.5 -45t15.5 -39t36 -16.5h10t10 2q54 75 126.5 140.5t151.5 110.5q4 1 12 1q19 0 36 -9t20 -29z" />
    <glyph glyph-name="afii10065" unicode="&#x430;" horiz-adv-x="566" 
d="M489 544q14 -26 19.5 -52.5t5.5 -53.5q0 -29 -4.5 -58t-10.5 -58.5t-10.5 -59t-4.5 -59.5q0 -24 4 -48.5t15 -49.5q-6 -33 -26.5 -52.5t-47 -31.5t-55.5 -19t-52 -16l-71 -10t-73 -5t-69.5 7.5t-61.5 28.5q-20 16 -32 34t-12 38q0 6 1 12.5t4 13.5q39 47 87.5 79
t103 52.5t114 31.5t120.5 15q23 19 31.5 44.5t8.5 54.5q0 32 -8 64q-22 38 -60 38q-14 0 -27 -6l-27 -16.5t-28 -8.5h-5q-8 4 -11 9.5t-3 13.5q0 5 1 10l2 10q0 1 0.5 1.5t0.5 1.5q19 30 50.5 48t66.5 18t64 -21zM423 133q5 20 5 38q0 14 -3.5 26t-11.5 23
q-12 16 -28.5 20.5t-34.5 4.5l-39 -1q-27 -12 -60 -21.5t-62.5 -24.5t-50.5 -39t-25 -65q13 -20 33 -25.5t44 -5.5l73 3q21 7 43 10.5t43.5 9.5t40.5 16.5t33 30.5z" />
    <glyph glyph-name="afii10066" unicode="&#x431;" horiz-adv-x="571" 
d="M734 644q0 -32 -19.5 -50.5t-45.5 -23.5q-14 -5 -29 -6.5t-30 -1.5l-113 7q-8 0 -15 -0.5t-15 -1.5q-42 -5 -70 -5.5t-52 -4t-50 -13t-65 -32.5l-3 -43q28 -52 46.5 -82t33 -49.5t27 -34.5t28 -36.5t36 -55.5t51.5 -92q4 -11 4 -23q0 -29 -17 -53.5t-32 -41.5
q-44 -25 -93.5 -41.5t-99.5 -16.5q-42 0 -82 14.5t-74 49.5q-13 25 -13 54q0 43 26 77q9 16 22.5 25.5t28.5 16t30 10.5t27 9h9q21 0 37.5 -10.5t18.5 -34.5v-3q0 -11 -5.5 -18t-12.5 -13t-12.5 -11.5t-5.5 -12.5t6 -14q9 -2 17.5 -3.5t17.5 -1.5q30 0 58 14.5t48 41.5
q-1 42 -13.5 72.5t-33.5 56.5t-48 50l-57 53l-96 92q-12 21 -12 43q0 20 7 39.5t16 38.5q44 39 84 62.5t78 36.5t76 17.5t79.5 6t87.5 3t100 7.5q4 1 14 1q15 0 31.5 -4t31 -12t24.5 -20.5t13 -29.5v-2z" />
    <glyph glyph-name="afii10069" unicode="&#x434;" horiz-adv-x="337" 
d="M231 413q19 6 35.5 -5t26.5 -28q0 -21 -8.5 -43t-19.5 -44.5l-22 -44t-16 -41.5l16 -157t12.5 -125t8.5 -115.5t3 -129.5q0 -28 -0.5 -58.5t-1.5 -65.5q-7 -22 -19.5 -46t-29.5 -45t-38 -36t-44 -20q-12 -2 -23 -3.5t-22 -1.5q-51 0 -94 23t-80 60q-41 32 -58 78t-17 96
q0 17 1 34t3 34q16 36 38.5 74.5t52.5 72t67.5 57t82.5 28.5q49 4 88 -30q8 20 8 36q0 14 -3.5 30t-5.5 46q-2 29 -4 37t-4 12.5t-2.5 13.5t0.5 39q-12 13 -28 23.5t-30.5 22t-25 24t-10.5 30.5q0 13 6 28q6 27 22 49t37.5 39.5t47 30.5t50.5 21zM75 -438q33 29 48.5 68
t22.5 83t9 89.5t8 88.5q-13 -9 -35 -9q-18 0 -37 4t-36 4q-19 -10 -38 -25.5t-35 -34t-27.5 -39t-16.5 -41.5q-6 -19 -9.5 -34t-3.5 -28q0 -22 11.5 -39t38.5 -36q9 -5 21.5 -14.5t26.5 -18.5t27.5 -15t24.5 -3zM175 243q22 13 34.5 33t4.5 49q-8 14 -24 17.5t-28 -4.5
q-10 -6 -19.5 -14t-16.5 -18t-9 -21.5t3 -24.5q7 -18 23.5 -20t31.5 3z" />
    <glyph glyph-name="afii10070" unicode="&#x435;" horiz-adv-x="461" 
d="M415 126q6 -15 3 -26.5t-11.5 -21t-19 -16.5l-19.5 -13q-41 -26 -90 -48.5t-100 -22.5q-25 0 -48 7t-45 24q-28 22 -44 48.5t-21 53.5q3 43 16.5 82.5t33.5 76t44.5 71t50.5 67.5q32 42 73 75.5t90 44.5q25 0 46.5 -14.5t29.5 -36.5q4 -15 4 -31q0 -34 -17.5 -60.5
t-43 -47.5t-54.5 -38t-52 -33q-16 -15 -38.5 -18.5l-44.5 -7t-41 -12.5t-28 -35q-7 -19 -3 -34.5t14 -28t23 -23.5t24 -22q12 -5 23.5 -6.5t22.5 -1.5q29 0 56 10l54 20.5t54.5 17.5t57.5 0zM176 350q-1 -5 -4 -11.5t-4.5 -13.5t0 -13.5t8.5 -11.5q5 -5 12 -7t15 -2
q9 0 18 1.5t17 3.5q19 9 40 22.5t38 31.5t28 39t10 45l-18 18q-26 0 -48 -9t-41.5 -23t-37 -32.5t-33.5 -37.5z" />
    <glyph glyph-name="afii10074" unicode="&#x438;" horiz-adv-x="585" 
d="M458 18q-5 -11 -5 -27q0 -18 6.5 -34.5t14.5 -32.5t14.5 -31t6.5 -28q0 -14 -9 -25.5t-32 -22.5q-5 -2 -9.5 -2h-9.5q-20 0 -35 7.5t-31 18.5l-7 5q-20 19 -25 42.5t-7 49.5l-2 52t-15 49q-18 0 -31.5 -7.5t-26.5 -16.5l-22.5 -17t-24.5 -13q-14 -2 -27 -3.5t-27 -1.5
q-31 0 -59 8t-48 26q-28 25 -39 51.5t-11 53.5q0 17 3.5 33t8.5 33q8 23 17.5 45t20.5 44q11 23 20 44.5t15 43.5l2 6l12.5 30.5t15.5 29t21.5 23t30.5 13.5q8 -3 16 -10.5t8 -15.5q0 -6 -5 -11q-19 -24 -37.5 -50t-33.5 -53.5t-24 -57t-9 -59.5q0 -35 15 -72
q9 -21 25.5 -29t35.5 -8q11 0 22.5 2t21.5 5q53 24 92.5 62t68.5 83.5t49.5 96t36.5 98.5q8 8 14 12.5t13 4.5q8 0 15 -7l19 -29l-4 -40l-20.5 -185.5t-24.5 -182.5z" />
    <glyph glyph-name="afii10075" unicode="&#x439;" horiz-adv-x="585" 
d="M458 18q-5 -11 -5 -27q0 -18 6.5 -34.5t14.5 -32.5t14.5 -31t6.5 -28q0 -14 -9 -25.5t-32 -22.5q-5 -2 -9.5 -2h-9.5q-20 0 -35 7.5t-31 18.5l-7 5q-20 19 -25 42.5t-7 49.5l-2 52t-15 49q-18 0 -31.5 -7.5t-26.5 -16.5l-22.5 -17t-24.5 -13q-14 -2 -27 -3.5t-27 -1.5
q-31 0 -59 8t-48 26q-28 25 -39 51.5t-11 53.5q0 17 3.5 33t8.5 33q8 23 17.5 45t20.5 44q11 23 20 44.5t15 43.5l2 6l12.5 30.5t15.5 29t21.5 23t30.5 13.5q8 -3 16 -10.5t8 -15.5q0 -6 -5 -11q-19 -24 -37.5 -50t-33.5 -53.5t-24 -57t-9 -59.5q0 -35 15 -72
q9 -21 25.5 -29t35.5 -8q11 0 22.5 2t21.5 5q53 24 92.5 62t68.5 83.5t49.5 96t36.5 98.5q8 8 14 12.5t13 4.5q8 0 15 -7l19 -29l-4 -40l-20.5 -185.5t-24.5 -182.5zM254 643q4 -23 14.5 -39t27.5 -27q6 -4 14.5 -7.5t17 -6.5t16 -4.5t11.5 -1.5q19 2 37.5 13.5t35 29
t29.5 39t21 43.5q2 2 4 3t2 -2q3 -26 -9.5 -51t-31 -46t-40 -36.5t-37.5 -21.5q-8 -3 -27.5 -8.5t-30.5 -5.5q-39 1 -55.5 18.5t-19.5 40t3 44t14 31.5l2 1q2 -1 2 -6z" />
    <glyph glyph-name="afii10076" unicode="&#x43a;" horiz-adv-x="543" 
d="M126 470q0 -14 -3 -29t-7 -31.5t-7 -33t-3 -32.5q0 -22 9 -40t32 -30q40 7 73 33.5t63 58l61 61t67 43.5q12 -5 12 -21q0 -13 -7 -20q-27 -35 -63.5 -65.5l-70.5 -61.5t-59 -65t-29 -77q14 -14 31 -18.5t35 -4.5q29 0 60.5 7t63.5 7h11t11 -1q31 0 59.5 -12.5t43.5 -39.5
q-1 -24 -11.5 -37.5t-27 -19.5t-37.5 -7t-42 -1h-9q-22 0 -43 -2t-37 -11q-5 1 -9 1.5t-9 0.5q-25 0 -51.5 -9.5t-52 -21t-49.5 -21t-45 -9.5q-25 0 -44 18t-30 67q-1 8 -1 15v15q0 49 10 96.5t22.5 95t23.5 96.5t13 101q2 8 11.5 15t18.5 7q13 0 16 -17z" />
    <glyph glyph-name="afii10080" unicode="&#x43e;" horiz-adv-x="371" 
d="M309 319q3 -16 5 -32t2 -31q0 -57 -22 -107t-65 -88q-25 -11 -52.5 -18.5t-55.5 -7.5q-21 0 -41.5 5t-40.5 17q-16 14 -22 32.5t-6 38.5q0 12 2 24l4 23q9 36 32 65.5t54 52t67 37.5t71 22q5 1 9 1.5t8 0.5q36 0 51 -35zM195 137q17 8 34.5 24.5t17.5 37.5q0 11 -6 22
q-10 20 -26.5 27.5t-36.5 7.5h-8t-9 -1q-22 -6 -42.5 -21t-33.5 -38q-9 -12 -9 -27q0 -19 13 -32q9 -9 18 -12.5t20 -3.5q17 0 34 6t34 10z" />
    <glyph glyph-name="afii10081" unicode="&#x43f;" horiz-adv-x="569" 
d="M343 269l49 37t53 19q8 0 12 -1q11 -23 14.5 -48t3.5 -52q0 -29 -2 -58.5t-4 -55.5q-14 -47 -25.5 -81l-20.5 -62l-16.5 -53t-13 -54t-9.5 -66t-7 -88q-1 -11 -13.5 -21.5t-20.5 -15.5q-5 -2 -13 -2q-17 0 -28.5 11.5t-20.5 23.5q-2 25 -3.5 47.5t-1.5 42.5
q0 64 11.5 110t32.5 88t50.5 88.5t64.5 113.5q0 2 0.5 2.5t0.5 2.5q0 1 0.5 1.5t0.5 1.5q2 7 3 14t1 14q0 17 -9 26q-7 10 -16 13.5t-20 3.5q-8 0 -15.5 -2l-15.5 -4q-30 -17 -52 -40.5t-38 -50.5t-28 -57t-22 -58l-7 -19q-6 -15 -19 -22.5t-27 -7.5q-12 0 -24 5
q-19 28 -19 53q0 24 12 47t27 44.5t27 43.5t12 45q0 15 -6.5 30t-23.5 32q-32 -3 -60 -19t-51 -39.5t-41 -52t-29 -55.5q-6 0 -10.5 -4t-8.5 -4q-3 0 -6 4q-6 12 -6 23q0 12 6.5 22.5t15.5 20.5t18.5 19t16.5 18q21 16 42 36.5t43.5 39t46 31t50.5 12.5l10 -1
q12 -10 21.5 -27t20 -33.5t24 -28.5t31.5 -12q14 0 32 9z" />
    <glyph glyph-name="afii10082" unicode="&#x440;" horiz-adv-x="553" 
d="M408 401q33 -12 61 -38.5t46 -56.5v-11q0 -40 -14 -75.5t-37 -67t-53.5 -58t-64 -49t-68 -41t-65.5 -32.5l-36 -48q-4 -21 -13 -59.5t-19 -89.5t-20 -112t-16 -128q-8 -11 -17 -25t-26 -18q-10 -2 -16 -2q-20 0 -35.5 10.5t-20.5 27.5q-1 11 -1 20v18q0 50 6.5 85.5
t15.5 68.5l18.5 70t16.5 90q-11 9 -29 9q-20 0 -42.5 -5.5t-41.5 -5.5q-15 0 -24.5 6.5t-9.5 26.5q0 13 4 29q22 24 51 36t58 22.5t55 26t42 46.5q5 14 12.5 27.5l14.5 26.5t12 26.5t5 27.5q0 12 -4 23q-5 8 -12 15l-14 13.5t-12 13.5t-5 15q0 9 7 19q43 63 102.5 95.5
t131.5 32.5q14 0 28.5 -1.5t28.5 -3.5zM436 195q16 17 28.5 36.5t12.5 45.5q0 5 -0.5 8.5t-1.5 8.5q-22 32 -57 46t-73 14q-39 0 -72 -12q-20 -10 -32.5 -25t-20 -33t-10.5 -38.5t-3 -41.5t2 -41l4 -40q3 -9 11.5 -18.5t20.5 -9.5q51 15 100 38t91 62z" />
    <glyph glyph-name="afii10083" unicode="&#x441;" horiz-adv-x="543" 
d="M401 380q-32 -13 -71 -26t-76.5 -30.5t-69.5 -42.5t-50 -61q-17 -19 -23.5 -44.5t-6.5 -51.5q0 -30 6 -54q14 -22 30 -44.5t38 -33.5q15 -5 29 -6.5t28 -1.5q33 0 63 8.5t60 18.5t60 18.5t63 8.5h15.5t15.5 -2q8 -6 11.5 -15.5t3.5 -20.5q0 -19 -10 -32
q-30 -21 -65.5 -40t-73.5 -33t-77.5 -22t-78.5 -8q-42 0 -81.5 10.5t-74.5 34.5q-29 26 -39.5 55t-18.5 61q4 52 24.5 110t61.5 111.5t103.5 97.5t150.5 68q7 -3 16.5 -4t17.5 -3.5t13.5 -8t5.5 -17.5z" />
    <glyph glyph-name="afii10084" unicode="&#x442;" horiz-adv-x="717" 
d="M224 358q3 -15 3.5 -31.5t3.5 -31.5t11.5 -27.5t26.5 -20.5q7 -3 15 -3l53 11q13 0 24 -8q11 -6 19.5 -17l17 -21.5t18 -18t22.5 -7.5q14 0 27 8q14 8 27 20l26.5 23.5t28 19.5t31.5 8h6.5t6.5 -1q23 -41 32 -74t9 -63t-7.5 -59t-17 -59l-20 -64t-16.5 -75
q-14 -22 -16.5 -53.5t-7.5 -61t-19 -50t-50 -20.5q-20 11 -27 30t-7 41q0 17 2.5 34.5l4.5 31.5q9 55 20.5 92t25 69t30.5 67t38 88q1 3 1 9q0 13 -6.5 21.5t-16.5 18.5q-23 -2 -36.5 -12t-20.5 -24t-11 -31t-9.5 -34t-14.5 -31.5t-27 -23.5q-5 -2 -10 -3t-10 -1
q-18 0 -34 10.5t-23 30.5q-3 9 -3 18q0 14 3.5 30t3.5 31q0 14 -5 26t-22 21q-28 -5 -43.5 -19t-25 -33t-15 -40.5t-13 -42t-19 -38t-32.5 -27.5h-6q-18 0 -31 12t-15 25q-2 6 -2 12v12l66 202q0 8 -1 16.5t-3 16.5q-17 27 -41 27q-9 0 -19 -5q-22 -15 -40.5 -34.5
t-34.5 -41t-30 -43.5l-28 -43q-5 0 -14 1.5t-12 9.5q10 28 27.5 53.5t39 49.5l45 48t44.5 49q11 14 27.5 23t33.5 9q14 0 25 -7.5t17 -24.5z" />
    <glyph glyph-name="afii10085" unicode="&#x443;" horiz-adv-x="335" 
d="M333 486q-7 -45 -21.5 -89t-31 -85l-31 -78t-21.5 -68l-56.5 -145t-45.5 -122t-41 -127.5t-43 -160.5q-6 -25 -8 -51.5t-6.5 -51t-14.5 -46.5t-32 -38q-8 -3 -13 -3q-16 0 -27 12.5t-13 26.5q4 72 8 124.5t10 94t15 75.5t23 69t34 75.5l49 94.5q9 16 19 39t18.5 47.5
t14 48.5t5.5 42q-12 14 -29.5 19.5t-34 10t-30.5 12t-20 27.5q-3 9 -8 25.5t-9.5 36t-8 39.5t-3.5 37t4 26q14 -6 24 -26t20 -43t22 -43.5t30 -27.5q5 -1 10 -1.5t10 -0.5q33 0 61.5 18.5t52.5 48t44 66t37 73.5z" />
    <glyph glyph-name="afii10086" unicode="&#x444;" horiz-adv-x="398" 
d="M285 376q11 -14 26 -29t28 -31.5t22 -35.5t9 -41q0 -12 -3 -24q-16 -63 -46 -113.5t-91 -92.5q-11 -24 -13 -54.5t-5.5 -59.5t-13 -52.5t-35.5 -33.5q-6 -2 -10 -2q-9 0 -20 4.5t-20 11.5t-16 15.5t-8 16.5q-3 9 -3 21l15 99q0 20 -11.5 35.5t-46.5 20.5q-22 14 -30 33
t-8 42q0 10 1 20t3 20q5 34 21.5 56.5t39 39t47 31t46 32t36 41.5t16.5 60q3 58 12 94t21.5 63.5t26 53.5t25.5 64q15 18 37 18q12 0 22.5 -7t13.5 -23q-9 -29 -14.5 -43t-9.5 -21t-7 -10t-6.5 -10t-8.5 -22t-13 -45q-5 -16 -10.5 -29.5t-10 -26t-8 -26t-3.5 -30.5
q0 -14 3 -30zM136 116q37 25 37 63q0 10 -3 22q-16 27 -41 27h-6.5t-7.5 -1q-18 -11 -28.5 -28.5t-10.5 -39.5v-6.5t1 -6.5q0 -11 5.5 -17t14.5 -9t19.5 -3.5t19.5 -0.5zM280 167q17 8 34 22.5t17 36.5q0 12 -5 22q-11 24 -39 24q-4 0 -8 -0.5t-9 -1.5q-15 -12 -25.5 -23
t-10.5 -27q0 -4 2 -12q8 -14 15.5 -25t28.5 -16z" />
    <glyph glyph-name="afii10087" unicode="&#x445;" horiz-adv-x="611" 
d="M505 385l-35.5 -26.5t-33.5 -28.5q-30 -28 -49.5 -60.5t-19.5 -74.5v-11q10 -17 26 -28.5t35 -20t38 -15.5t34.5 -15t25 -19t9.5 -28q0 -20 -14 -45q-36 -28 -78 -28q-15 0 -30 4t-29 12q-21 12 -50.5 22.5t-60.5 10.5h-10t-10 -1q-26 -15 -41.5 -39t-27.5 -50.5t-22 -53
t-24 -48t-34.5 -35t-52.5 -13.5q-5 0 -10.5 0.5t-11.5 1.5q-22 5 -30 22t-8 39q0 14 2.5 28.5t6.5 28.5q7 17 16 33t19 32l26.5 43.5t24.5 44t18 46t7 49.5v15t-2 15q-20 43 -45 82.5t-44 82.5q12 5 19 5q14 0 26 -9t25 -23l34.5 -40.5t38.5 -30.5q16 -3 31 -3q40 0 74.5 15
t66.5 37t63 46.5t63 44.5q24 15 48.5 25.5t51.5 14.5l9 -10l-31.5 -22z" />
    <glyph glyph-name="afii10102" unicode="&#x455;" horiz-adv-x="497" 
d="M442 489q0 -15 -8.5 -27.5t-19.5 -23.5l-46 13.5t-49 7.5q-17 0 -31.5 -5.5t-25.5 -19.5q-26 -32 -26 -62q0 -28 17 -53.5t40 -50.5l46 -49.5t36 -49.5q10 -12 23.5 -24.5t25.5 -25.5t20.5 -27.5t8.5 -30.5q0 -17 -8 -32q-28 -32 -66.5 -43t-81.5 -11q-35 0 -69 4t-64 7
q-23 7 -47.5 16.5t-46.5 22.5t-39 30t-26 40q-1 5 -1.5 8.5t-0.5 7.5q0 17 9 30t24 21q7 4 20 4l27 -1q12 -9 17 -21t9.5 -24.5t12 -23t23.5 -16.5q26 -5 57 -13t60 -8q20 0 39 6t35 22v7q0 46 -21 84t-48.5 73.5l-55.5 71t-43 76.5q2 32 19 53.5t41.5 36t52.5 24.5t51 19
l33 1q23 0 43 -6.5t33 -29.5z" />
    <glyph glyph-name="afii10103" unicode="&#x456;" horiz-adv-x="254" 
d="M213 568q0 -23 -1.5 -35.5t-6 -21t-12.5 -17l-22 -24.5q-16 -19 -29 -29.5t-33 -10.5q-8 0 -17 2t-20 5q-7 2 -11 8.5t-4.5 14t1 15t4.5 12.5l31 37.5t21.5 22.5t25.5 17t43 21q10 2 18.5 -1t11.5 -16zM101 125q5 -13 7 -26.5t2 -27.5q0 -30 -6 -55q-8 -12 -22.5 -18
t-26.5 2q-14 15 -20 34.5t-6 41.5q0 25 6.5 52.5t17 54t22.5 50t23 41.5q5 2 9.5 6t9.5 -6z" />
    <glyph glyph-name="afii10104" unicode="&#x457;" horiz-adv-x="254" 
d="M-30 492q8 4 17 4q16 0 30.5 -8t25.5 -21.5t18 -30.5t7 -35q-2 -10 -9 -13t-15 -3q-13 0 -29.5 4.5t-31 14t-24.5 23.5t-10 32q0 11 5 20t16 13zM170 477q7 9 18.5 12.5t22.5 3.5q9 0 18 -6.5t16.5 -17t12 -22.5t4.5 -22q0 -15 -10.5 -29.5t-28.5 -14.5q-11 0 -22 5
t-19.5 13.5t-14 19t-5.5 22.5q0 10 2.5 19t5.5 17zM101 125q5 -12 7 -26t2 -28q0 -30 -6 -55q-13 -20 -35 -20q-9 0 -14 4q-14 15 -20 34.5t-6 41.5q0 25 6.5 52.5t17 54t22.5 50t23 41.5q3 2 6 4.5t6 2.5t7 -7z" />
    <glyph glyph-name="afii10105" unicode="&#x458;" horiz-adv-x="271" 
d="M150 189l-9 -120q1 -34 7 -63t12.5 -57.5t12 -59t5.5 -66.5q-6 -42 -19 -85t-34.5 -80.5t-53.5 -66t-76 -42.5q-27 -8 -50 -8q-45 0 -84 23t-69 63q-14 19 -21.5 42.5t-7.5 49.5q0 23 6 46q10 41 35 75.5t58 62.5t71.5 49.5t74.5 35.5q12 0 24.5 -6t17.5 -20
q-3 -26 -20 -40.5t-39 -24.5t-45.5 -19.5t-39.5 -25.5q-15 -15 -36 -28.5t-38.5 -28.5t-27.5 -32.5t-3 -39.5l6.5 -20.5t11.5 -23.5t21 -22t35 -16q23 -6 49.5 1.5t52 22t47 33t33.5 35.5q12 28 19.5 62t12 71.5t6.5 76t2 76.5t2 75.5t9.5 73t21 67.5t36.5 59l7 -10z
M201 526q0 -21 1.5 -30.5t1.5 -14.5q0 -6 -5 -11.5l-20 -22.5q-8 -4 -14 -11.5t-24 -7.5q-12 0 -31 6q-7 2 -11 8.5t-4.5 14t1 15t4.5 12.5l16.5 19.5t15.5 15t17 12.5t22 12q10 2 18.5 -1t11.5 -16z" />
    <glyph glyph-name="afii10109" unicode="&#x45c;" horiz-adv-x="543" 
d="M126 470q0 -14 -3 -29t-7 -31.5t-7 -33t-3 -32.5q0 -22 9 -40t32 -30q40 7 73 33.5t63 58l61 61t67 43.5q12 -5 12 -21q0 -13 -7 -20q-27 -35 -63.5 -65.5l-70.5 -61.5t-59 -65t-29 -77q14 -14 31 -18.5t35 -4.5q29 0 60.5 7t63.5 7h11t11 -1q31 0 59.5 -12.5t43.5 -39.5
q-1 -24 -11.5 -37.5t-27 -19.5t-37.5 -7t-42 -1h-9q-22 0 -43 -2t-37 -11q-5 1 -9 1.5t-9 0.5q-25 0 -51.5 -9.5t-52 -21t-49.5 -21t-45 -9.5q-25 0 -44 18t-30 67q-1 8 -1 15v15q0 49 10 96.5t22.5 95t23.5 96.5t13 101q2 8 11.5 15t18.5 7q13 0 16 -17zM456 669
q13 -8 15.5 -20.5t-1 -25.5t-12.5 -24.5t-20 -17.5q-31 -9 -61 -22.5t-60 -25.5t-60.5 -19t-62.5 -3q16 16 36 30.5t41.5 28l43 27t40.5 28.5l23.5 18t23.5 15.5t25 9.5t29 1z" />
    <glyph glyph-name="afii10110" unicode="&#x45e;" horiz-adv-x="335" 
d="M333 486q-7 -45 -21.5 -89t-31 -85l-31 -78t-21.5 -68l-56.5 -145t-45.5 -122t-41 -127.5t-43 -160.5q-6 -25 -8 -51.5t-6.5 -51t-14.5 -46.5t-32 -38q-8 -3 -13 -3q-16 0 -27 12.5t-13 26.5q4 72 8 124.5t10 94t15 75.5t23 69t34 75.5l49 94.5q9 16 19 39t18.5 47.5
t14 48.5t5.5 42q-12 14 -29.5 19.5t-34 10t-30.5 12t-20 27.5q-3 9 -8 25.5t-9.5 36t-8 39.5t-3.5 37t4 26q14 -6 24 -26t20 -43t22 -43.5t30 -27.5q5 -1 10 -1.5t10 -0.5q33 0 61.5 18.5t52.5 48t44 66t37 73.5zM80 636q4 -23 14.5 -39t27.5 -27q6 -4 14.5 -7.5t17 -6.5
t16 -4.5t11.5 -1.5q19 2 37.5 13.5t35 29t29.5 39t21 43.5q2 2 4 3t2 -2q3 -26 -9.5 -51t-31 -46t-40 -36.5t-37.5 -21.5q-8 -3 -27.5 -8.5t-30.5 -5.5q-39 1 -55.5 18.5t-19.5 40t3 44t14 31.5l2 1q2 -1 2 -6z" />
    <glyph glyph-name="afii10193" unicode="&#x45f;" horiz-adv-x="585" 
d="M458 18q-5 -11 -5 -27q0 -18 6.5 -34.5t14.5 -32.5t14.5 -31t6.5 -28q0 -14 -9 -25.5t-32 -22.5q-5 -2 -9.5 -2h-9.5q-20 0 -35 7.5t-31 18.5l-7 5q-20 19 -25 42.5t-7 49.5l-2 52t-15 49q-18 0 -31.5 -7.5t-26.5 -16.5l-22.5 -17t-24.5 -13q-14 -2 -27 -3.5t-27 -1.5
q-31 0 -59 8t-48 26q-28 25 -39 51.5t-11 53.5q0 17 3.5 33t8.5 33q8 23 17.5 45t20.5 44q11 23 20 44.5t15 43.5l2 6l12.5 30.5t15.5 29t21.5 23t30.5 13.5q8 -3 16 -10.5t8 -15.5q0 -6 -5 -11q-19 -24 -37.5 -50t-33.5 -53.5t-24 -57t-9 -59.5q0 -35 15 -72
q9 -21 25.5 -29t35.5 -8q11 0 22.5 2t21.5 5q53 24 92.5 62t68.5 83.5t49.5 96t36.5 98.5q8 8 14 12.5t13 4.5q8 0 15 -7l19 -29l-4 -40l-20.5 -185.5t-24.5 -182.5zM171 -292q10 28 13.5 47t4 33t-1.5 24.5t-3 21.5q-2 23 3 40.5t13 29.5t17 18t17 6q15 0 24.5 -20t9.5 -43
q2 -29 -11.5 -68t-61.5 -90q-13 -14 -20 -19t-9 -3.5t-0.5 8t5.5 15.5z" />
    <glyph glyph-name="bullet" unicode="&#x2022;" horiz-adv-x="358" 
d="M295 360q21 -14 29.5 -33.5t8.5 -40.5q0 -25 -8.5 -48t-16.5 -37l-18 -27.5t-30.5 -31.5t-48 -25.5t-70.5 -10.5q-18 0 -32 3.5t-26 11t-23 20t-24 30.5q-4 15 -4 30q0 39 14 68.5t38 50.5t55 34t66 18q19 3 36 3q32 0 54 -15z" />
    <glyph glyph-name="space" unicode=" " horiz-adv-x="320" 
 />
    <glyph glyph-name="afii10051" unicode="&#x402;" horiz-adv-x="581" 
d="M185 532q-1 9 -7.5 17t-16.5 16q-25 -2 -45.5 -7t-38.5 -10q-23 -5 -50 -8.5t-71 -5.5q-23 8 -30 29q14 46 36 56q29 11 53 18.5t47 12.5t48.5 8.5t58.5 5.5q15 2 32.5 2.5t34.5 2.5q5 0 9.5 0.5t9.5 0.5q50 4 100.5 9t97.5 18q20 6 41 10.5t42 4.5q30 0 39.5 -10
t9.5 -25q0 -21 -35.5 -40.5t-90.5 -29.5h1q-26 -5 -59 -9.5t-62 -6.5h-3q-13 -2 -21 -2.5t-15 -2.5l-34 -32q-6 -19 -10.5 -36t-8.5 -34t-7 -35.5t-6 -40.5l-3 -17q5 -11 11.5 -21l12.5 -20l39 17q75 69 146 69q22 0 43.5 -12.5t37.5 -34.5t26 -51.5t10 -63.5q0 -11 -1 -29
t-2.5 -39t-4 -43.5t-6.5 -41.5q-12 -56 -28.5 -117t-38.5 -111.5t-49.5 -83.5t-61.5 -33q-20 0 -40.5 5t-38.5 13t-31 17.5t-16 17.5q-8 19 -8 35q0 12 4.5 19t11.5 10.5t14 5t13 1.5q5 0 14 -0.5l18 -1t17 -1.5t11 -2q4 -1 9.5 -2t19.5 -1q24 0 41.5 14.5t31.5 40.5
q42 76 68.5 154.5t33.5 170.5q0 21 -11.5 38.5t-27.5 31t-34 21t-31 7.5q-23 0 -47.5 -12t-48.5 -31t-46.5 -41.5t-40.5 -43.5q-1 -4 -7 -8q-42 -52 -63 -109q-3 -26 -7.5 -56.5t-4.5 -51.5q0 -7 0.5 -16t0.5 -19q0 -20 -7.5 -39t-34.5 -23h-5q-11 0 -18.5 7t-12.5 16.5
t-7.5 20t-2.5 17.5v8q0 40 12 75t27 68.5t28 67.5t14 73q1 28 5 55.5t8.5 54t8 53t3.5 53.5q0 20 -3 43z" />
    <glyph glyph-name="afii10053" unicode="&#x404;" horiz-adv-x="512" 
d="M443 568q-11 -4 -20 -5.5t-19 -3.5l-17.5 -2.5l-21.5 -3t-21 -4t-17 -5.5q-50 -23 -96 -57t-84 -76q-13 -15 -21.5 -38.5t-8.5 -39.5q0 -10 6 -17q3 -4 11.5 -6t20 -3.5t24.5 -2t24 -0.5q19 0 39 4t40 8.5t40.5 8.5t39.5 4q4 0 12.5 -1.5t16.5 -4.5t14.5 -7.5t6.5 -11.5
q0 -3 -2 -7q-3 -9 -8.5 -12.5t-13.5 -4.5t-18 -1t-22 -2q-12 -3 -26 -3.5t-30 -0.5h-26q-30 0 -61.5 -1t-57.5 -9q-15 -4 -27.5 -13t-23 -20.5t-18 -23.5t-10.5 -21q-6 -21 -6 -41q0 -15 5 -30q10 -24 22 -42.5t29.5 -30.5t42 -18.5t60.5 -6.5q55 0 108.5 19.5t101.5 49.5
q14 0 24.5 -6t19.5 -14q-19 -35 -52.5 -62t-72 -45t-78 -27.5t-70.5 -9.5q-44 0 -82 17t-65.5 45.5t-43 65.5t-15.5 78v15t2 15q19 53 43 111.5t53 115t64 108t75.5 90.5t87 62t99.5 23q20 0 41.5 -5t53.5 -22q-8 -20 -16 -32t-17 -20t-19 -12.5t-20 -7.5z" />
    <glyph glyph-name="afii10058" unicode="&#x409;" horiz-adv-x="806" 
d="M372 488q-1 0 -2 1.5t-2 2.5q-8 -4 -15 -10t-11 -13l-34.5 -72.5l-51 -105.5l-60.5 -120t-63.5 -116.5t-60 -95.5t-49.5 -56l-47 11l-25 38q12 23 36 51.5l52.5 59.5l58 63.5t53.5 64.5q16 22 39.5 63.5t47.5 88.5l45.5 91.5t33.5 73.5q18 41 31 77t23.5 62.5t19.5 42
t19 15.5q16 0 29 -13t13 -27q0 -27 -4 -52.5t-6 -49.5q0 -5 -4 -20.5l-8.5 -32.5l-8.5 -32t-4 -20v-9q0 -24 10 -47t33 -23q6 0 9 1q14 3 33 10.5l38.5 15t37 13t29.5 5.5q31 0 69 -4t71 -18.5t55 -42.5t22 -77q0 -43 -14.5 -78.5t-38.5 -65t-55.5 -53t-65.5 -42.5
l-48.5 -27.5t-49 -26.5t-49 -20t-48.5 -8q-25 0 -51 7.5t-52 24.5q2 27 4 62t3 68q-1 20 -1.5 43.5t-0.5 48.5l1 125q0 12 2 31t4.5 39t5 36.5t2.5 24.5v17zM607 357q-39 0 -74.5 -6.5t-62.5 -20.5t-43 -37t-16 -57v-155q15 -85 61 -88q43 8 75 24t64 39q17 12 38.5 37
t40.5 56.5t32 66t13 64.5q0 16 -11.5 30t-30 24.5t-41.5 16.5t-45 6z" />
    <glyph glyph-name="afii10059" unicode="&#x40a;" horiz-adv-x="794" 
d="M199 328q-27 -19 -35.5 -47.5t-11.5 -60.5q-1 -10 -1.5 -19.5t-0.5 -19.5q0 -42 4 -84.5t6 -79.5v-2q0 -20 -11.5 -38t-31.5 -23q-10 -2 -15 -2q-16 0 -27.5 9t-16.5 24q-3 11 -4 20.5t-1 19.5q0 28 9 53t20 49l22 48.5t16 50.5q1 7 1.5 14t0.5 15q0 9 -1 18t-4 19
q-6 20 -20.5 25.5t-30 8t-29.5 7t-19 22.5q13 8 27.5 13.5t28.5 11.5t26 14.5t21 23.5l1 75q0 26 -2 52t-8 51t-18 47.5t-32 42.5q-1 4 -1 11q0 17 7 32t17 28q16 14 40 14t43 -14q44 -96 44 -209q0 -51 -9 -102v-5q0 -9 4 -19t10 -18.5t13 -15t13 -9.5l48 -1q8 0 15 0.5
t12 2.5q12 4 20 16t13 28t8 35t3 38l-10 53q0 15 2.5 36.5t9.5 41t20 33.5t34 14q25 0 35.5 -13.5t10.5 -47.5q0 -17 -4.5 -42.5t-10.5 -53t-10.5 -53t-4.5 -41.5q0 -12 6 -23t20 -11q5 0 7 1q16 4 33.5 11l34.5 13.5t32.5 11.5t29.5 5q31 0 69 -2.5t71 -15t55 -39.5t22 -75
q0 -41 -15 -80t-40 -72.5t-56 -61.5t-62 -46q-26 -15 -54.5 -29.5t-58.5 -26t-59.5 -19t-56.5 -7.5h-2q-20 0 -38.5 4t-35.5 12t-17 17q0 5 3 16v2q6 31 11.5 70.5t10 79.5t7 77.5t2.5 65.5q0 10 -8 17t-21 11.5t-29.5 7t-32.5 2.5q-20 0 -37 -3t-26 -10zM599 375
q-32 0 -67 -6.5t-63.5 -20.5t-47 -35t-18.5 -51v-186q5 -41 17.5 -65t32.5 -24h5q28 5 49.5 18t39.5 28t33 31t32 27q16 12 34.5 32t34.5 45.5t26.5 54.5t10.5 59q0 21 -10.5 38t-27 29t-38 19t-43.5 7z" />
    <glyph glyph-name="afii10060" unicode="&#x40b;" horiz-adv-x="566" 
d="M409 433q22 0 46 -10t43.5 -29t32.5 -46.5t13 -62.5t-8.5 -81t-19.5 -97l-19.5 -89t-14.5 -88l-23 -24q-5 9 -2 21t3 22q0 31 1.5 59t4.5 58q2 25 3 47.5t6 42.5q3 13 1.5 25.5t-4.5 25l-6 24.5t-3 23q0 39 -17 54.5t-45 15.5q-42 0 -80 -19t-70 -50t-56.5 -69.5
t-39.5 -78.5q-2 -23 -2 -44.5t-0.5 -42.5t-4 -42.5t-12.5 -42.5l-8 -16l-18 -2q-13 0 -21.5 6.5t-14 16.5t-8 20t-2.5 18q0 35 8.5 69.5t20.5 68l24.5 67.5t19.5 67q15 69 14 139t-1 140q0 9 -4 17t-15 15l-45 -6t-42 -8q-25 -6 -54 -10t-75 -6l-30 39q7 22 16.5 30t19.5 13
q29 11 54.5 18.5t50.5 12.5t52 8.5t60 6.5h-1q14 2 28 2t28 2l110.5 10t109.5 20q20 5 41 9.5t42 4.5q30 0 39.5 -10t9.5 -25q0 -22 -36 -39t-90 -28q-15 -3 -32 -5.5t-34.5 -4.5l-33.5 -4t-29 -4q-11 -2 -18 -2t-14 -2l-34 -33q-11 -44 -16.5 -86.5t-15.5 -93.5l21 -45
l18 5q25 20 55.5 42l57.5 41q31 20 65 20z" />
    <glyph glyph-name="afii10062" unicode="&#x40e;" horiz-adv-x="489" 
d="M488 594l-20 -37.5t-17 -29.5l-28 -53.5l-29.5 -55.5l-27.5 -55.5t-22 -51.5l-16 -82q-9 -24 -18 -42.5t-18 -34t-18.5 -30t-18.5 -31.5q-10 -18 -23 -37t-31.5 -37t-43.5 -33.5t-58 -27.5q-1 0 -2 -0.5t-2 -0.5l-35.5 -10t-36.5 -9l-7 -1q-12 0 -24.5 6t-23 16t-17 22.5
t-6.5 24.5q0 13 9 24q2 2 15 7t24 5h38q10 0 21 1t23 6l10 4q36 15 67.5 30.5t39.5 34.5q3 7 9.5 15.5t14 17t13 17t5.5 16.5q0 7 -3.5 12t-7.5 12l-32 54.5l-26.5 45.5t-26 39t-29.5 34l-29.5 61l-27.5 56t-21.5 48.5t-11.5 40.5q-2 8 -2 15v14q0 28 9 43.5t23 15.5
q13 0 27 -16t25 -51l10.5 -35t10.5 -37q13 -46 30.5 -95.5t37 -90.5t41 -67.5t41.5 -26.5q1 0 5 9.5l11 26l16 39l19 47.5q3 8 6 24t5.5 33l4.5 31t4 19q8 15 15.5 35l15.5 43l3 8q11 29 23 64t34 64q12 17 30 17t30.5 -15t13.5 -28v-6q0 -15 -5.5 -33t-14.5 -38zM151 840
q4 -23 14.5 -39t27.5 -27q6 -4 14.5 -7.5t17 -6.5t16 -4.5t11.5 -1.5q19 2 37.5 13.5t35 29t29.5 39t21 43.5q2 2 4 3t2 -2q3 -26 -9.5 -51t-31 -46t-40 -36.5t-37.5 -21.5q-8 -3 -27.5 -8.5t-30.5 -5.5q-39 1 -55.5 18.5t-19.5 40t3 44t14 31.5l2 1q2 -1 2 -6z" />
    <glyph glyph-name="afii10145" unicode="&#x40f;" horiz-adv-x="558" 
d="M492 686q23 0 36 -12t13 -29t-4 -36t-6 -30q-9 -46 -15.5 -99t-10.5 -104.5t-7 -99t-4 -82.5q-2 -26 -3 -47.5t-1 -40.5q2 -32 -6.5 -52t-24.5 -31.5t-37 -17t-44 -8.5q-41 -6 -64 -21.5t-23 -55.5q0 -20 2 -46t2 -46q-2 -13 -15 -22t-32 -9q-8 0 -13.5 14t-8.5 35t-4 46
t-1 46q0 22 -9.5 30.5t-26.5 8.5q-23 0 -56 -5.5l-57 -9.5q-7 -1 -16.5 1t-18 9t-13.5 18.5t-4 29.5q3 26 6 66t6 86q2 37 5 77l6 79t7 74.5t8 64.5q6 28 11 65.5t13.5 71.5t21 57.5t32.5 23.5q14 0 22.5 -7.5t8.5 -24.5q0 -15 -6 -30q-9 -24 -17 -54t-14.5 -61.5t-11 -60
t-7.5 -49.5q-3 -22 -8.5 -52l-11.5 -63t-10 -66.5t-4 -62.5q0 -49 3 -86q2 -26 20.5 -37t60.5 -11q10 0 26 2.5l34.5 5.5t37.5 6.5t35 5.5q25 4 49.5 13.5t44 25t32.5 37t16 48.5q1 15 -1 35.5l-4.5 44.5t-4 51.5t-0.5 55.5q1 37 3 76t5 75.5l5.5 68t5.5 52.5q1 8 3.5 19
t8 20.5t14 16.5t21.5 7z" />
    <glyph glyph-name="afii10018" unicode="&#x411;" horiz-adv-x="556" 
d="M329 325q-32 0 -64.5 -9.5t-58.5 -27t-43 -42t-18 -54.5l-10 -125v-11q0 -38 18 -56t37 -18h3q24 1 43.5 5t36.5 10.5t33.5 15.5t33.5 22q16 12 34.5 36.5t34 54.5t25.5 63t10 63q0 21 -9.5 35t-25.5 22.5t-37 12t-43 3.5zM339 403q31 0 67.5 -18.5t67.5 -42.5
t51.5 -47.5t20.5 -33.5q0 -41 -15 -78t-39.5 -69t-56 -58t-63.5 -44l-56.5 -31.5t-62 -30t-62.5 -22t-59 -8.5q-25 0 -50 7.5t-51 25.5q9 49 22 91l25 84t21 86.5t11 98.5q0 3 -1 18t-2.5 34t-2.5 38.5t-1 31.5v33q0 17 -1 29t-5 13q-11 2 -23.5 18t-12.5 32v1q0 2 1 6t6 15
l80.5 27t72 26.5l68 27.5t69.5 31q31 14 55.5 20t34.5 6h2q27 -2 35.5 -13t8.5 -25v-7q-1 -7 -4 -17.5t-8.5 -20.5t-13 -18.5t-17.5 -11.5q-15 10 -22.5 11t-16.5 2q-2 0 -5 0.5t-7 0.5q-20 0 -51.5 -5.5t-65 -15t-64 -21.5t-47.5 -25q-1 -5 -6.5 -11t-7.5 -11l-9.5 -51.5
t-4.5 -51.5q0 -15 6 -24.5t15.5 -15t21 -7.5t22.5 -2h9t8 1l59 14.5t54 7.5z" />
    <glyph glyph-name="afii10021" unicode="&#x414;" horiz-adv-x="628" 
d="M566 57q24 -11 41.5 -25t17.5 -38q0 -3 -5 -22t-13.5 -46l-19 -57.5t-22 -56t-22.5 -42.5t-20 -17q-3 0 -9 1.5t-12.5 4.5t-11.5 8t-5 12q0 4 0.5 20.5t1.5 36t2.5 36t3.5 21.5q7 17 11.5 33t4.5 45q0 14 -21.5 20t-55.5 6q-29 0 -63.5 -3.5t-68 -8t-63 -9.5l-48.5 -8
l-18 -3q-15 -2 -30 -4.5t-31 -5.5q-18 -4 -24.5 -26t-6.5 -47q0 -12 1.5 -22.5t1.5 -24.5q0 -10 -0.5 -20t-3.5 -18.5t-10 -14t-19 -5.5q-14 0 -21.5 17t-15.5 47l-3 13q0 1 -0.5 2t-0.5 2l-7.5 31t-4.5 39q0 66 95 75q-3 6 -3 14q0 19 13 53.5t30.5 71t36.5 70.5t31 53
q17 27 29.5 51.5t23 48.5l21 50l22.5 56q12 28 20.5 54.5t18.5 50.5t24 45.5t35 40.5q21 -5 33.5 -24.5t20 -48t10.5 -63.5l6 -69q0 -2 0.5 -5t0.5 -5q3 -31 6 -57t8 -51t12 -52t18 -59q14 -40 30.5 -81t19.5 -82q2 -5 8 -8zM401 496q-10 -11 -22.5 -29t-24.5 -39l-23.5 -43
t-19.5 -41l-36 -84l-44 -99t-46 -93.5t-42 -68.5q39 1 85 5.5t90 11.5t81.5 15.5t60.5 18.5q11 7 17.5 21.5t6.5 28.5q0 9 -3.5 37t-10 65.5l-14.5 81t-17.5 84.5t-19 75t-18.5 53z" />
    <glyph glyph-name="afii10024" unicode="&#x416;" horiz-adv-x="752" 
d="M732 9q-5 -22 -13.5 -30t-22.5 -8q-6 0 -12.5 1t-14.5 3q-47 12 -86 34t-77 46q-36 23 -70.5 34.5t-59.5 11.5q-14 0 -20.5 -9t-6.5 -43q0 -11 -1.5 -27.5t-5.5 -32t-12.5 -27t-21.5 -11.5q-18 0 -26 10t-12 25q-1 4 -1 14v28q0 4 1.5 14t4 22.5t4.5 24t4 18.5q1 2 1 6
q0 5 -4 5q-9 0 -22 -5.5t-27 -14.5l-51 -39t-42 -37q-32 -29 -58 -48.5t-57 -19.5q-10 0 -15 1q-2 1 -7.5 4t-11.5 8t-10.5 11.5t-4.5 15.5q0 11 7 22t25 23q40 27 77.5 41l71 25.5t62 24.5t52.5 39q24 27 24 57q0 24 -12.5 46t-30.5 42q-27 29 -54 49t-54 37.5t-54 37
t-54 46.5q-7 7 -11 13t-4 14q0 3 2 9q5 14 15 23t26 9l8 -1q18 -4 43 -19t53 -36.5t56.5 -46.5t53.5 -50l21 -19t11 -7t4.5 7.5t3 16.5t2 17t0.5 10q1 15 1 29.5v28.5v126q0 18 6 33.5t35 15.5q22 0 34.5 -19t12.5 -52q0 -18 -2 -37t-4 -35q0 -1 -0.5 -1.5t-0.5 -1.5
q-3 -17 -5 -33.5t-2 -32.5v-11.5t2 -11.5t7 -10t13 -5t25.5 8t37 18.5l37.5 21t27 16.5q29 19 57.5 43t56.5 45q34 26 64 40.5t60 14.5q22 0 26 -5t4 -27q0 -11 -18 -27t-50 -36l-44 -26l-73.5 -47l-83.5 -57q-27 -19 -53 -40t-46.5 -42.5t-33.5 -42.5t-13 -40
q0 -25 23 -44.5t54.5 -33.5t65.5 -24t56 -15q21 -5 38 -8.5t32 -9t29.5 -15t31.5 -26.5q8 -13 8 -29q0 -7 -1 -10z" />
    <glyph glyph-name="afii10025" unicode="&#x417;" horiz-adv-x="576" 
d="M243 -53q-6 -1 -12.5 -1h-12.5q-54 0 -102 15q-39 13 -54 35t-17 46q-1 5 -1 9.5v9.5q0 26 9.5 46t30.5 25h4q7 0 17.5 -2.5t19.5 -7t15.5 -10.5t7.5 -14q1 -11 8.5 -20.5t16 -17t15.5 -11t6 -2.5q9 -2 14 -3.5t15 -1.5q3 0 6 0.5t8 0.5q36 2 70.5 5t63 11.5t49.5 24
t32 41.5q8 20 12 39t4 38q0 36 -17 64.5t-55 41.5q-20 7 -41.5 13l-41.5 12t-37 12.5t-27 14.5v2q0 7 5.5 13.5t14 12t18 9.5t17.5 6q3 0 5 1l22.5 8.5t22.5 9.5q37 20 59 46t22 64v8t-1 8q-3 32 -29.5 43t-58.5 11l-17 -1h-32.5t-34.5 -1t-32.5 -4.5t-27.5 -12.5
q-14 -13 -21 -22q-7 -11 -16 -20.5t-34 -15.5q-19 28 -19 45v8q0 31 25 52.5t59.5 34t70.5 18.5t58 7q8 1 17 1h18q32 0 64 -5t58 -18.5t44 -37.5t22 -61q1 -5 1 -15q0 -41 -21.5 -71t-47.5 -57l-5 -5l-10 -9q-8 -7 -14 -16.5t-6 -19.5v-3q2 -19 17 -46l29 -50l4 -6
q8 -13 8.5 -32.5t2.5 -40.5q1 -8 1.5 -15t0.5 -14q0 -46 -17.5 -85t-51.5 -68.5t-83.5 -47.5t-112.5 -21z" />
    <glyph glyph-name="afii10026" unicode="&#x418;" horiz-adv-x="474" 
d="M455 758q27 0 32 -12t6 -39v-7t-1 -25q-1 -32 -11 -73t-14 -79q-3 -27 -6.5 -54t-5.5 -51q-3 -40 -9 -100t-11.5 -122l-10 -116t-4.5 -81v-136q-5 -18 -17.5 -25.5t-23.5 -7.5h-33q-15 11 -25.5 31.5t-10.5 48.5q0 23 3 43t5 40l6 41q3 19 9.5 51.5l15 72l17.5 83
l17 85.5t13.5 79.5t6.5 65.5v3q0 13 -9 13q-6 0 -14.5 -5.5t-13.5 -12.5q-7 -9 -15.5 -14.5l-17 -11t-17 -14t-15.5 -23.5q-3 -6 -9.5 -18l-14.5 -26l-15.5 -27.5t-11.5 -23.5l-37 -108q-22 -52 -41 -112.5t-44 -110.5q-2 -6 -4.5 -14.5t-7.5 -17t-13 -16t-21 -10.5
q-20 5 -37.5 18.5t-19.5 28.5v58q0 11 1.5 24.5t3.5 27.5t4.5 27.5l4.5 23.5q5 26 11 67t11 89.5t8.5 100t3.5 98.5v26q0 21 -2.5 37.5t-5.5 30t-6.5 25.5t-5.5 24q-3 14 -3.5 23t-0.5 15v8q1 9 7 19.5t15 19t19.5 14.5t19.5 6q10 0 20 -8t17.5 -22t12.5 -33t5 -41v-19
q-1 -26 -12 -51t-13 -46q-2 -23 -2.5 -42t-1.5 -37.5t-1.5 -38t-2.5 -43.5l-5 -60q0 -23 6 -33t14 -10q17 0 31 27q8 16 16.5 28l16 22.5l15 20.5t13.5 24l12.5 24l15 27.5l13.5 24t8 14.5q11 20 19 39.5l16 39.5q4 9 8 23.5l8 30.5t7 30.5l5 24.5q6 27 12 43.5t12.5 27.5
t13 17.5t14.5 12.5q1 1 9 2.5t43 5.5z" />
    <glyph glyph-name="afii10027" unicode="&#x419;" horiz-adv-x="474" 
d="M455 758q27 0 32 -12t6 -39v-7t-1 -25q-1 -32 -11 -73t-14 -79q-3 -27 -6.5 -54t-5.5 -51q-3 -40 -9 -100t-11.5 -122l-10 -116t-4.5 -81v-136q-5 -18 -17.5 -25.5t-23.5 -7.5h-33q-15 11 -25.5 31.5t-10.5 48.5q0 23 3 43t5 40l6 41q3 19 9.5 51.5l15 72l17.5 83
l17 85.5t13.5 79.5t6.5 65.5v3q0 13 -9 13q-6 0 -14.5 -5.5t-13.5 -12.5q-7 -9 -15.5 -14.5l-17 -11t-17 -14t-15.5 -23.5q-3 -6 -9.5 -18l-14.5 -26l-15.5 -27.5t-11.5 -23.5l-37 -108q-22 -52 -41 -112.5t-44 -110.5q-2 -6 -4.5 -14.5t-7.5 -17t-13 -16t-21 -10.5
q-20 5 -37.5 18.5t-19.5 28.5v58q0 11 1.5 24.5t3.5 27.5t4.5 27.5l4.5 23.5q5 26 11 67t11 89.5t8.5 100t3.5 98.5v26q0 21 -2.5 37.5t-5.5 30t-6.5 25.5t-5.5 24q-3 14 -3.5 23t-0.5 15v8q1 9 7 19.5t15 19t19.5 14.5t19.5 6q10 0 20 -8t17.5 -22t12.5 -33t5 -41v-19
q-1 -26 -12 -51t-13 -46q-2 -23 -2.5 -42t-1.5 -37.5t-1.5 -38t-2.5 -43.5l-5 -60q0 -23 6 -33t14 -10q17 0 31 27q8 16 16.5 28l16 22.5l15 20.5t13.5 24l12.5 24l15 27.5l13.5 24t8 14.5q11 20 19 39.5l16 39.5q4 9 8 23.5l8 30.5t7 30.5l5 24.5q6 27 12 43.5t12.5 27.5
t13 17.5t14.5 12.5q1 1 9 2.5t43 5.5zM195 913q4 -23 14.5 -39t27.5 -27q6 -4 14.5 -7.5t17 -6.5t16 -4.5t11.5 -1.5q19 2 37.5 13.5t35 29t29.5 39t21 43.5q2 2 4 3t2 -2q3 -26 -9.5 -51t-31 -46t-40 -36.5t-37.5 -21.5q-8 -3 -27.5 -8.5t-30.5 -5.5q-39 1 -55.5 18.5
t-19.5 40t3 44t14 31.5l2 1q2 -1 2 -6z" />
    <glyph glyph-name="afii10037" unicode="&#x423;" horiz-adv-x="489" 
d="M488 594l-20 -37.5t-17 -29.5l-28 -53.5l-29.5 -55.5l-27.5 -55.5t-22 -51.5l-16 -82q-9 -24 -18 -42.5t-18 -34t-18.5 -30t-18.5 -31.5q-10 -18 -23 -37t-31.5 -37t-43.5 -33.5t-58 -27.5q-1 0 -2 -0.5t-2 -0.5l-35.5 -10t-36.5 -9l-7 -1q-12 0 -24.5 6t-23 16t-17 22.5
t-6.5 24.5q0 13 9 24q2 2 15 7t24 5h38q10 0 21 1t23 6l10 4q36 15 67.5 30.5t39.5 34.5q3 7 9.5 15.5t14 17t13 17t5.5 16.5q0 7 -3.5 12t-7.5 12l-32 54.5l-26.5 45.5t-26 39t-29.5 34l-29.5 61l-27.5 56t-21.5 48.5t-11.5 40.5q-2 8 -2 15v14q0 28 9 43.5t23 15.5
q13 0 27 -16t25 -51l10.5 -35t10.5 -37q13 -46 30.5 -95.5t37 -90.5t41 -67.5t41.5 -26.5q1 0 5 9.5l11 26l16 39l19 47.5q3 8 6 24t5.5 33l4.5 31t4 19q8 15 15.5 35l15.5 43l3 8q11 29 23 64t34 64q12 17 30 17t30.5 -15t13.5 -28v-6q0 -15 -5.5 -33t-14.5 -38z" />
    <glyph glyph-name="afii10040" unicode="&#x426;" horiz-adv-x="616" 
d="M552 679q3 -29 4 -56t1 -51q0 -90 -11 -185t-29 -184q0 -27 -3.5 -52t-3.5 -43q0 -8 12 -13.5t23 -8.5q11 -5 22.5 -9.5t21 -11t16 -15.5t7.5 -22q0 -25 -8 -57t-19.5 -61t-23.5 -50t-19 -25q-7 0 -19 4t-16 19q0 16 2.5 30.5t5.5 28.5t5 25.5t3 21.5q0 34 -61 34
q-23 0 -61.5 -2.5t-81 -6t-82 -8.5t-63.5 -10l-91 -13q-32 0 -39.5 20t-5.5 48q3 6 5.5 19.5t5 30.5t4.5 34.5t4 32.5l9.5 69t9.5 65q8 53 15.5 111.5t15.5 131.5l-18 94q0 32 5.5 52.5t31.5 23.5q14 -7 28.5 -11.5t31.5 -16.5q1 -10 -1.5 -25.5t-3.5 -19.5
q-12 -48 -21 -114t-16 -133q-3 -29 -9.5 -57l-13 -56t-11.5 -56.5t-5 -56.5q0 -15 4.5 -26.5t11.5 -21.5t15.5 -20t16.5 -23q11 -2 31 2t48 4q71 4 112.5 15.5t63.5 32.5q10 11 17 20t11.5 19t7.5 22t7 30q11 66 19.5 134t10.5 138q0 15 0.5 24.5t0.5 25.5t-1 45.5t-4 85.5
q0 17 9.5 30t25.5 16z" />
    <glyph glyph-name="afii10041" unicode="&#x427;" horiz-adv-x="498" 
d="M5 290q-7 8 -15.5 23.5t-16 34t-12.5 38.5t-5 37q0 26 6.5 56.5t16.5 60.5q9 28 19.5 55l19.5 48.5t15.5 34.5t7.5 13q18 1 31.5 -4t23 -13t14 -17.5t4.5 -16.5q0 -6 -1.5 -11t-3.5 -11l-46 -69q-5 -13 -9.5 -23.5t-8 -23.5t-6 -29t-2.5 -40q0 -34 15 -64t42.5 -53
t66 -36.5t84.5 -13.5q45 0 72 18t41.5 46.5t18.5 63t3 68.5t-4 63.5t-3 46.5q-1 64 11 93t40 29q15 0 30.5 -10.5t15.5 -42.5q0 -23 -8.5 -45.5t-14.5 -46.5q-14 -60 -19.5 -112.5t-7.5 -102.5t-1 -100.5t1 -105.5q0 -19 -0.5 -53t-4.5 -67t-14 -57t-29 -24q-4 0 -12.5 2
t-17 9.5t-15 21t-6.5 36.5q0 18 7 38.5t16 40.5t16 39.5t7 34.5q0 18 -3 29.5t-12.5 18t-27.5 9t-48 2.5h-39q-20 0 -52 4.5t-66 14t-65 25.5t-49 39v-1z" />
    <glyph glyph-name="afii10042" unicode="&#x428;" horiz-adv-x="707" 
d="M170 38q9 0 32.5 3.5t48 9.5t44.5 14t21 17q7 24 11 56.5t6 69t2.5 76t0.5 78.5v104l8 63q0 7 2.5 23t8 31.5t14.5 27.5t23 12h3q9 -18 12.5 -36t5.5 -42q-2 -14 -8.5 -43t-9.5 -67q-2 -28 -1.5 -59t-2.5 -64q-5 -57 -9 -115t-10 -106q14 -8 34.5 -7t48.5 -1
q35 4 62.5 11.5t46.5 21.5t29 36.5t10 57.5l-1 18q0 38 1.5 62.5t3.5 47t3.5 50t1.5 72.5q0 36 -2 72t-8 68q0 7 3 17t8 18t13 14t19 6q15 0 24.5 -11t15 -29.5t7.5 -42t2 -48.5l-40 -207q0 -4 -0.5 -9t-0.5 -16t0.5 -28t0.5 -46v-26q0 -26 7.5 -49.5t7.5 -47.5
q0 -21 -6.5 -37t-23 -28t-44.5 -19.5t-72 -9.5q-26 -1 -60.5 -3.5t-72 -5.5l-75.5 -6t-70 -6.5l-56 -6t-34 -4.5q-8 -2 -19.5 -3.5t-24.5 -3.5t-26 -3.5l-22 -2.5q-29 0 -37 16t-8 39v13q3 5 5.5 15.5t4.5 24t3.5 28t3.5 28.5q0 39 8 82.5t13 78.5q4 23 6.5 39.5t4.5 32.5
t3.5 34.5t4.5 46.5l2 23v6q0 10 -1.5 26.5t-3 35.5t-2.5 38.5t-1 35.5q0 32 5.5 52.5t31.5 23.5l28 1q13 0 25 -11t14 -25q0 -16 -3 -35q-14 -57 -26 -117.5t-20 -126.5q-6 -57 -12.5 -105t-6.5 -106q0 -37 2 -62.5t16 -45.5q8 -3 20.5 -3.5t26.5 -0.5z" />
    <glyph glyph-name="afii10043" unicode="&#x429;" horiz-adv-x="760" 
d="M171 38q9 0 32.5 3.5t48 9.5t44.5 14t21 17q7 24 10.5 56.5t5 69t2.5 76l2 78.5v104l8 63q0 7 2.5 23t8 31.5t14.5 27.5t23 12h3q9 -18 12.5 -36t5.5 -42q-2 -14 -8.5 -43t-9.5 -67q-2 -28 -1.5 -59t-2.5 -64q-5 -57 -9 -115t-10 -106q14 -8 32.5 -7.5t33.5 -3.5l17 3
q35 6 62.5 13t46 21.5t28.5 40.5t10 70q0 38 1.5 62.5t3.5 47t3.5 50t1.5 72.5q0 36 -2 72t-8 68q0 7 3 17t8 18t13 14t19 6q15 0 24.5 -11t15 -29.5t7.5 -42t2 -48.5l-40 -207q0 -4 -0.5 -9t-0.5 -15.5t0.5 -28.5t0.5 -46q0 -48 11.5 -86t31.5 -54q23 -8 44.5 -20.5
t24.5 -38.5v-2q0 -26 -10 -57.5t-23 -60t-26.5 -49t-19.5 -23.5q-9 0 -18.5 3t-17.5 14q0 12 2 36t5 39l5.5 25.5t3.5 20.5q0 16 -9.5 29.5t-34.5 13.5h-6q-18 -2 -40 -4t-54 -4q-26 -1 -60.5 -3.5l-72 -5t-75.5 -5.5t-70 -6.5l-56 -6t-34 -4.5q-8 -2 -19.5 -3.5t-24.5 -3.5
t-26 -3.5l-22 -2.5q-29 0 -37 16t-8 39v13q2 6 5.5 19.5t6.5 29.5t5 33t2 30l10 75t10 70q3 23 5.5 39.5t4.5 32.5t3.5 34.5t4.5 46.5l2 23v6q0 10 -1.5 26.5t-3 35.5t-2.5 38.5t-1 35.5q0 32 5.5 52.5t31.5 23.5l28 1q13 0 25 -11t14 -25q0 -16 -3 -35q-14 -57 -26 -117.5
t-20 -126.5q-6 -57 -12.5 -105t-6.5 -106v-15q0 -26 2 -49.5t16 -43.5q8 -3 20.5 -3.5t26.5 -0.5z" />
    <glyph glyph-name="afii10044" unicode="&#x42a;" horiz-adv-x="796" 
d="M399 476q0 -35 18.5 -46t41.5 -8l59 14.5t54 7.5q31 0 67.5 -18.5t67.5 -42.5t51.5 -47.5t20.5 -33.5q0 -41 -15 -78t-39.5 -69t-55.5 -58t-63 -45q-26 -15 -56.5 -31t-62.5 -29.5t-63 -22t-59 -8.5q-25 0 -50 7.5t-51 25.5q9 49 22 91l25 84t21 86.5t11 98.5q0 3 -1 18
t-2.5 34t-2.5 38.5t-1 31.5q1 20 1 40t-0.5 37t-1 30t-0.5 20l-20 10q-12 -2 -35 -6.5l-47.5 -9.5l-45.5 -9.5t-28 -6.5q-24 -6 -50 -14.5t-67 -12.5l-29 30q3 10 8.5 21.5t12 20.5t13.5 15.5t13 7.5q29 7 64.5 12.5t72 9l71 7t60.5 6.5l43 6q43 7 56.5 -10.5t11.5 -49.5
l-10 -30zM562 366q-32 0 -64.5 -9.5t-58.5 -27t-43 -42t-18 -54.5l-10 -125q-2 -22 4 -38t15.5 -26.5t20 -15.5t18.5 -5q24 0 43.5 3.5t36.5 10t33.5 16.5t33.5 23q16 12 34.5 36.5t34 54.5t25.5 63t10 63q0 21 -9.5 35t-25.5 22.5t-37 12t-43 3.5z" />
    <glyph glyph-name="afii10045" unicode="&#x42b;" horiz-adv-x="557" 
d="M327 366q-32 0 -64.5 -9.5t-58.5 -27t-43 -42t-18 -54.5l-10 -125v-11q0 -38 18 -56t37 -18h3q24 1 43.5 5t36.5 10.5t33.5 15.5t33.5 22q16 12 34.5 36.5t34 54.5t25.5 63t10 63q0 21 -9.5 35t-25.5 22.5t-37 12t-43 3.5zM168 447q0 -20 6 -27t16 -7q7 0 15.5 1.5
t18.5 3.5q29 7 59 16.5t54 9.5q31 0 67 -16.5t66.5 -39t51 -46.5t22.5 -40q0 -41 -15 -78t-39.5 -69t-56 -58t-63.5 -44l-56.5 -31.5t-62 -30t-62.5 -22t-59 -8.5q-25 0 -50 7.5t-51 25.5q9 49 22.5 91l26 84t21.5 86.5t9 98.5q0 16 -3.5 44l-7.5 57.5l-7.5 56t-3.5 38.5
q0 16 2 39t9 44.5t19.5 36.5t33.5 15q25 0 35.5 -13.5t10.5 -47.5q0 -20 -4.5 -38.5t-7.5 -44.5q-3 -23 -9.5 -46.5t-6.5 -47.5z" />
    <glyph glyph-name="afii10046" unicode="&#x42c;" horiz-adv-x="756" 
d="M327 366q-32 0 -64.5 -9.5t-58.5 -27t-43 -42t-18 -54.5l-10 -125v-11q0 -38 18 -56t37 -18h3q24 1 43.5 5t36.5 10.5t33.5 15.5t33.5 22q16 12 34.5 36.5t34 54.5t25.5 63t10 63q0 21 -9.5 35t-25.5 22.5t-37 12t-43 3.5zM168 447q0 -20 6 -27t16 -7q7 0 15.5 1.5
t18.5 3.5q29 7 59 16.5t54 9.5q31 0 67 -16.5t66.5 -39t51 -46.5t22.5 -40q0 -41 -15 -78t-39.5 -69t-56 -58t-63.5 -44l-56.5 -31.5t-62 -30t-62.5 -22t-59 -8.5q-25 0 -50 7.5t-51 25.5q9 49 22.5 91l26 84t21.5 86.5t9 98.5q0 16 -3.5 44l-7.5 57.5l-7.5 56t-3.5 38.5
q0 16 2 39t9 44.5t19.5 36.5t33.5 15q25 0 35.5 -13.5t10.5 -47.5q0 -20 -4.5 -38.5t-7.5 -44.5q-3 -23 -9.5 -46.5t-6.5 -47.5zM727 709q-7 -56 -19 -112t-23 -113t-19.5 -113.5t-8.5 -112.5q0 -50 8.5 -98.5t28.5 -96.5q-5 -29 -18 -54t-38 -35q-9 -4 -20 -4
q-22 0 -36.5 16t-21.5 33l32.5 213.5t16.5 221.5q0 91 -16 177q0 17 2.5 35t8.5 34.5t17 29t28 18.5q10 3 21 3q20 0 36 -11t21 -31z" />
    <glyph glyph-name="afii10047" unicode="&#x42d;" horiz-adv-x="576" 
d="M117 -49q-22 0 -43 5t-37.5 14t-26.5 20t-10 23q1 28 15.5 40.5t33.5 12.5l49 -15q19 -6 40 -11.5t33 -5.5q62 0 107.5 17.5t75.5 47t45 67t17 77.5l-12 55q-4 7 -18.5 16t-21.5 9q-11 1 -27.5 1h-36.5h-39t-34 -1q-26 -2 -49.5 -3t-40.5 -3h-6q-9 0 -21 2.5t-22 16.5
l2 2q5 7 17 17t37 15q21 1 43 3.5t44 2.5q7 0 13.5 -0.5t13.5 -1.5q28 -4 56.5 -7t49.5 -3h9t8 1q26 1 42 18.5t17 40.5l1 17q0 41 -12 69.5t-31 46t-41.5 25.5t-43.5 8q-48 0 -82.5 -12t-68.5 -50l-13 -17t-15 -17t-16.5 -13.5t-17.5 -5.5q-28 0 -43.5 7t-15.5 42v6
q2 14 9.5 24.5t15.5 20.5l2 2q50 50 104 76t126 26q24 0 49.5 -4.5t49 -13.5t43.5 -22t33 -29q14 -18 24 -38.5t16 -44.5t8.5 -53.5t2.5 -66.5q0 -50 -8.5 -103t-28 -103.5t-50.5 -96t-76.5 -79.5t-106 -54t-137.5 -20z" />
    <glyph glyph-name="afii10048" unicode="&#x42e;" horiz-adv-x="821" 
d="M632 568q-68 -14 -124.5 -38.5t-96.5 -62t-62 -88.5t-22 -117q0 -37 22.5 -72.5t54.5 -63t67 -44.5t60 -17l9 1q19 3 34 4.5t28.5 5t27 10.5t31.5 21q42 33 68 91.5t26 150.5q0 32 -6.5 70.5t-19.5 71.5t-34 55.5t-49 22.5h-6.5t-7.5 -1zM187 318q-29 -32 -39 -71.5
t-10 -82.5q0 -40 4.5 -80t5.5 -77v-2q0 -20 -11.5 -38t-31.5 -23q-10 -2 -15 -2q-16 0 -27.5 9t-16.5 24q-3 11 -4 20.5t-1 19.5l70 226q0 20 -6 41q-6 20 -20.5 25.5t-30 8t-29.5 7t-19 22.5q13 8 27.5 13.5t28.5 11.5t26 14.5t21 23.5l1 75q0 26 -2 52t-8 51t-18 47.5
t-32 42.5q-1 4 -1 11q0 17 7 32t17 28q16 14 40 14t43 -14q44 -96 44 -209q0 -51 -9 -102q-1 -3 -1 -10q0 -13 10.5 -20.5t41.5 -7.5h6q20 1 41.5 8t32.5 32q25 60 61.5 106t78 77.5t85 47.5t83.5 16q48 0 80.5 -25.5t52.5 -66t29 -92t9 -102.5q0 -121 -35 -216t-93 -151
q-33 -32 -71.5 -46t-80.5 -19q-5 -1 -9.5 -1h-9.5q-39 0 -78 19.5t-69.5 57t-50 92.5t-19.5 125q0 29 -10 46t-44 17q-9 0 -19.5 -1t-24.5 -4z" />
    <glyph glyph-name="afii10049" unicode="&#x42f;" horiz-adv-x="500" 
d="M350 758q48 0 70.5 -8t22.5 -19v-1q-2 -5 -7.5 -16.5t-15.5 -24t-25 -22.5t-36 -11q-31 -2 -66 -17t-64.5 -42t-49 -63.5t-19.5 -80.5q2 -14 2.5 -25l1 -21.5t3.5 -21t11 -23.5q21 -20 42.5 -28t49.5 -8q19 0 41 8.5t41 22.5t31.5 33t13.5 39v6q1 22 3 47t6.5 47.5
t13.5 40t24 25.5q1 1 5 1q7 0 17.5 -4t20.5 -11t17.5 -17t7.5 -22q0 -8 -6 -26t-13.5 -37.5t-14.5 -36l-9 -21.5q-34 -75 -45.5 -139t-11.5 -117q0 -30 6 -66.5t15 -65.5q4 -13 4 -29q0 -8 -0.5 -14.5t-0.5 -12.5v-6q-3 -11 -17 -23t-27 -16q-26 3 -40 14t-20.5 25.5t-8 32
t-1.5 34.5v8q0 9 7 29.5t16 43l17 42t10 27.5l-14 30q-17 -5 -53 -30t-78 -59.5l-84 -72t-70 -66.5q-17 -18 -30.5 -21t-30.5 -3h-5q-15 6 -23.5 13.5t-16.5 17.5q0 26 32 52.5t80 55.5l105.5 61t108.5 70q8 6 13 12.5t5 11.5q0 11 -19 12l-31.5 7.5t-39.5 12t-38.5 17.5
t-30.5 24q-11 12 -23.5 27t-24.5 33.5t-21 39.5t-13 44q0 53 26.5 103.5t68 90t91 63.5t94.5 24z" />
    <glyph glyph-name="afii10067" unicode="&#x432;" horiz-adv-x="522" 
d="M401 642l32 -29t28.5 -32t20.5 -36t8 -41t-9 -46q-1 -16 -10.5 -28.5t-20 -24t-19 -24t-8.5 -27.5q0 -11 6 -24q21 -23 35 -51.5t14 -60.5q0 -16 -5 -36q-4 -54 -33 -86t-70.5 -50.5t-87.5 -30t-85 -25.5q-25 -21 -38 -48.5t-19.5 -58.5t-10 -63t-9.5 -62
q-6 -27 -5.5 -56.5t-2 -57t-12 -51t-35.5 -38.5q-11 -3 -19 -3q-16 0 -28.5 7t-24.5 16q-23 23 -23 54q0 11 3 22q25 33 34 73.5t13.5 82.5t11.5 83t29 76q-1 23 -17 37t-34.5 26.5t-33.5 27.5t-15 40v5q12 13 26 17.5t28 4.5q20 0 39.5 -4.5t38.5 -4.5q23 0 40 11
q23 26 41 55.5t18 61.5q0 11 -3 23q-3 7 -10 12.5l-13.5 10.5t-11.5 10.5t-5 11.5t4 11q27 12 53.5 29t38.5 47l4.5 30t2.5 31q0 13 -3 27q-19 14 -47.5 15t-55 2.5t-45.5 9.5t-19 35q0 8 3 22q17 19 39.5 28.5t47.5 15l49 10.5t45 14.5t35.5 27t19.5 48.5q6 17 10 35
t10.5 34.5t17.5 30t30 20.5q1 0 1.5 -0.5t1.5 -0.5q12 -3 24.5 -8.5t12.5 -22.5q0 -21 -4.5 -40.5t-9.5 -39t-9.5 -39.5t-4.5 -41zM341 498q-5 -19 -15.5 -38.5t-10.5 -38.5q0 -8 3 -15.5t11 -15.5q4 -1 11 -1q21 0 41 17q17 14 23 32t6 38v11t-1 11q-5 11 -15.5 17.5
t-21.5 6.5t-19.5 -5.5t-11.5 -18.5zM429 270q-17 26 -40.5 36t-51.5 10q-7 0 -14 -0.5t-14 -1.5q-23 -3 -36.5 -15t-22.5 -29t-15 -36t-14 -36l-13 -68q0 -10 3.5 -19t13.5 -17q51 3 97 15t83 53q29 32 29 73q0 8 -1 17t-4 18z" />
    <glyph glyph-name="afii10068" unicode="&#x433;" horiz-adv-x="450" 
d="M261 415q23 0 45.5 -10.5t40 -28.5t28.5 -42t11 -50q-3 -11 -8 -17.5t-11.5 -13l-13.5 -13.5t-13 -17q-23 -20 -51.5 -34.5l-57.5 -28.5l-12 -6q-9 -5 -14.5 -7.5t-9 -5t-7.5 -6.5l-11 -11q-8 -7 -18 -22t-11 -23v-1q0 -8 10 -14.5t23 -12t25 -8.5t15 -3q16 0 33.5 5.5
l35.5 11.5l35.5 11.5t32.5 5.5q17 0 38 -18q-5 -17 -10 -28t-12 -22q-2 -5 -12 -12t-22.5 -14.5t-25 -13.5t-21.5 -8q-25 -8 -51.5 -13.5t-53.5 -5.5q-20 0 -39 3q-21 3 -43 10t-40 18.5t-29.5 27.5t-11.5 39q0 32 14.5 52t38.5 33.5t53.5 24t59.5 23.5q25 11 48.5 23
t42 25.5t30 30.5t11.5 39v1q-1 7 -6 16t-12.5 17.5t-16.5 14.5t-19 6q-23 0 -42 -6.5t-39 -15.5l-54 -20q-14 0 -27 10t-18 39q10 28 19 35.5t21 12.5q20 8 53.5 12.5t78.5 4.5z" />
    <glyph glyph-name="afii10072" unicode="&#x436;" horiz-adv-x="709" 
d="M481 21q-7 4 -12.5 6.5t-10.5 4.5q-18 1 -36 2.5t-37 3.5q-17 -6 -34 -16.5t-27 -22.5q-4 -17 -14 -31.5t-29 -14.5q-25 0 -36 15t-11 36q0 5 3.5 26t8.5 46q-26 -4 -54 -22t-54 -38q-30 -22 -61 -41.5t-59 -19.5q-5 0 -9.5 -2.5t-8.5 -3t-6.5 4t-2.5 18.5
q0 11 12.5 24.5t47.5 30.5l38.5 21t40.5 20q53 22 80 54.5t27 69.5q0 5 -5 12t-10 13q-37 40 -78.5 66t-93.5 50l-12.5 7.5t-14.5 10.5t-12 13t-5 13q0 17 15.5 27.5t32.5 10.5q16 0 41 -10.5t52.5 -27t56 -36.5t52.5 -39q8 -5 15.5 -10.5t9.5 -7.5q-1 2 -0.5 19t0.5 52
l-7 62q0 6 1.5 17t1.5 17t2 15.5t6.5 19t11.5 16t19 6.5q26 0 39.5 -20t13.5 -49q0 -15 -3 -36.5t-5 -33.5q-2 -13 -5.5 -28.5t-3.5 -25.5q0 -3 3 -9t7 -11.5t8.5 -10t7.5 -4.5q6 0 18.5 4.5t26.5 11t27.5 13.5l23.5 12q5 2 14.5 8.5l20.5 14l21.5 15t18.5 12.5
q20 12 42 27.5t43.5 29t43 23t40.5 10.5q21 -4 27.5 -15.5t8.5 -17.5q-2 -17 -23.5 -31t-58.5 -30l-75 -34t-96 -49l-46.5 -29.5t-42 -31.5t-30 -31t-11.5 -27q0 -18 25 -31.5t58 -23.5t65 -16.5t47 -8.5q14 -2 28 -4.5t27.5 -7t27 -13t27.5 -21.5l4 -34q-5 -21 -15.5 -28.5
t-27.5 -7.5q-42 0 -81.5 17t-74.5 35z" />
    <glyph glyph-name="afii10073" unicode="&#x437;" horiz-adv-x="420" 
d="M-8 59q3 9 10.5 25t24.5 29q8 0 15.5 1t14.5 1q15 0 24 -8q1 -5 5.5 -12t10 -13.5l10 -11.5t6.5 -6q8 -7 12.5 -10.5t13.5 -3.5q11 0 28 4q32 7 59 14t46.5 16.5t30.5 22.5t11 31q0 7 1.5 12t1.5 10q0 8 -7 15q-12 12 -33.5 21t-45.5 16t-48 11t-40 6q-5 5 -5 9q0 5 8 12
q12 11 26 20t29 13l16 4.5t18 6.5q14 5 29.5 24t15.5 41q0 19 -21 24t-45 5q-35 0 -62 -8t-41 -20q-10 -15 -27 -15h-6.5t-8.5 1q-20 11 -23.5 21t-3.5 18q0 22 20.5 38t48 25.5t56.5 14t47 4.5q27 0 58.5 -11t59 -27.5t46.5 -35.5t22 -34q0 -2 0.5 -3.5t0.5 -3.5
q0 -12 -6 -23.5t-15 -22.5t-19.5 -21l-19.5 -18l-6 -5q-11 -9 -16 -14.5t-5 -10.5q0 -6 11 -19q8 -10 14.5 -20t11.5 -21q1 -11 3.5 -28t2.5 -36q0 -25 -7 -42q-6 -14 -21.5 -30.5t-41.5 -31t-62 -25.5t-82 -13q-17 -1 -33.5 -3.5t-33.5 -2.5t-29 4q-20 13 -35 33.5
t-20 56.5z" />
    <glyph glyph-name="afii10077" unicode="&#x43b;" horiz-adv-x="458" 
d="M400 -56q-22 0 -34 16t-18.5 48.5t-9.5 80.5t-6 112q0 12 -3.5 26.5t-7.5 29t-8.5 26.5t-6.5 18l-14.5 -25l-20 -32.5l-20 -31.5t-14.5 -22q-26 -38 -51 -80t-43 -80q-16 -32 -37 -59.5t-43 -41.5q-18 -4 -30 -1t-19.5 10.5t-11 18.5t-4.5 24q11 21 24 29t26.5 12.5
t27.5 10.5t26 22q15 19 26.5 28.5t20.5 16t17 14t15 23.5q4 9 11.5 23.5l16 31t16 34t11.5 33.5q6 25 18 53.5t25 53.5l23.5 43.5t14.5 22.5q18 18 40 18q20 0 33.5 -15.5t13.5 -34.5q0 -12 -1 -27.5t-2.5 -31t-4 -30.5t-6.5 -26q-5 -15 -6.5 -26.5t-1 -21t2 -19t1.5 -20.5
q0 -23 4.5 -40.5t11 -32t12.5 -26.5t9 -23q5 -20 9 -39t4 -45q0 -7 -5.5 -15t-12 -15.5t-12 -12.5t-6.5 -5z" />
    <glyph glyph-name="afii10078" unicode="&#x43c;" horiz-adv-x="689" 
d="M459 -52q0 23 13.5 51t22.5 54q3 9 8 27t10 38t9 38t6 28q2 15 3 28.5t1 24.5q0 19 -1 24t-3 16q-7 23 -23 42.5t-40 19.5q-11 0 -30 -12t-38.5 -30.5t-34 -41t-15.5 -42.5q1 -23 5 -44t4 -45q0 -25 -5.5 -42t-15.5 -17t-11.5 11.5t-1.5 25.5v15t-2 13l-14 57
q-3 25 -10 41.5t-18 28t-26 20t-34 16.5q-9 0 -15.5 -3t-8.5 -5q-12 -9 -26.5 -18t-27.5 -22t-22 -31t-9 -43q0 -17 1.5 -34t2.5 -36q1 -20 10 -41t9 -42q0 -9 -1 -21t-5.5 -23.5t-13.5 -19.5t-25 -8q-17 0 -25 9t-12 20q-1 5 -1.5 12t-0.5 27q0 26 9.5 46t12.5 42
q4 17 7 36.5t3 37.5q-1 18 -8 41t-7 40q0 24 5 48.5t18 46t33.5 39t52.5 27.5q13 4 30 4q27 0 47 -16.5t35 -37.5l10 -14.5t12 -19.5q5 -6 14 -14t12 -8q24 56 39 88t18 37q20 31 39.5 44.5t33.5 13.5q37 0 57.5 -28.5t30.5 -69.5t12.5 -86.5t3.5 -79.5q0 -7 0.5 -13.5
t0.5 -11.5q0 -10 0.5 -23.5t0.5 -30.5q0 -41 -6.5 -99t-32.5 -130q-5 -14 -18.5 -16.5t-21.5 -2.5q-20 0 -26 15t-6 29z" />
    <glyph glyph-name="afii10079" unicode="&#x43d;" horiz-adv-x="499" 
d="M477 244q0 -7 -2.5 -11t-10.5 -10q-8 -5 -24 -10q-13 -5 -25 -11t-16 -20l5 -115l-7.5 -53t-10 -45t-17 -34.5t-29.5 -20.5l-42 53q4 18 14.5 41t15.5 41q3 10 11.5 27t16 35.5t10 35t-6.5 25.5q-8 8 -21.5 10t-27.5 2h-16t-28.5 -1t-29.5 -2t-18 -2q-18 -4 -28.5 -13.5
t-14.5 -17.5q-10 -18 -14.5 -44t-6.5 -55t-3 -58t-2 -53l-41 -20q-23 8 -33.5 19.5t-10.5 25.5q0 15 5 27.5t12.5 24.5l16 24.5t15.5 27.5q2 5 6 13t8 17l7.5 16.5t3.5 11.5q-1 29 -20 40.5t-47 11.5q-4 0 -6.5 0.5t-4.5 0.5q-32 -5 -45.5 -9t-13.5 10q0 7 10 14t23 13
t26.5 10.5t21.5 5.5q29 4 46 33t17 68l-10 34q-1 7 -6 14t-12 13t-13.5 12.5t-10.5 12.5q-6 8 -11.5 18.5t-5.5 18.5q0 20 18 34t40 14q21 0 32 -11.5t16 -34t5.5 -57.5t0.5 -81q0 -28 7.5 -49.5t27.5 -26.5l82 -11q10 1 18.5 7.5t15.5 16t11.5 21t7.5 21.5q1 13 -1 27.5
t-3.5 29.5t-1 30.5t5.5 32.5q3 20 12.5 33t26.5 13q10 0 15.5 -8.5t8 -20.5t3 -24t0.5 -19v-16l-3 -53q1 -10 5.5 -23t17.5 -20q8 -2 14 -6q1 -1 2 -1t1.5 -0.5t1.5 -0.5q7 -2 10.5 -5.5t3.5 -13.5z" />
    <glyph glyph-name="afii10088" unicode="&#x446;" horiz-adv-x="559" 
d="M494 357q0 -15 -2.5 -31.5t-6.5 -35.5q-3 -18 -8 -36l-10 -35l-3 -9q-8 -26 -15.5 -54.5t-7.5 -51.5q0 -18 9 -32.5t23 -25.5q14 -13 26 -27.5t12 -40.5q0 -19 -9.5 -52t-23.5 -65.5t-31 -56t-33 -23.5q-2 0 -7 1.5t-10.5 4.5t-10 8t-4.5 13q0 6 5 21.5t5 29.5v23
q1 14 -2 29.5t-3 37.5q0 17 -3 40q-3 15 -3.5 26t-5 18.5t-15.5 11t-34 3.5q-8 0 -16.5 -2.5t-19.5 -6.5q-16 -14 -35 -26.5t-39 -22.5t-40.5 -16t-40.5 -6q-33 0 -55 14.5t-34.5 37.5t-18 51.5t-5.5 56.5q0 42 12.5 79t33.5 73t49.5 74l60.5 82q13 18 23.5 25.5t18.5 7.5
q11 0 16.5 -11t5.5 -25q0 -17 -7 -27q-9 -14 -24.5 -26.5t-32 -24l-31 -22.5t-21.5 -22q-22 -38 -28.5 -69t-6.5 -56q0 -22 2.5 -39t2.5 -31q0 -28 21 -44.5t56 -16.5q22 0 42 13t38 33t34 44.5l31 47.5l8 12q22 40 40.5 84l33.5 80l19 34q9 7 18 10t25 3h12z" />
    <glyph glyph-name="afii10089" unicode="&#x447;" horiz-adv-x="430" 
d="M355 457q13 0 21 -7.5t13 -19.5t7 -27t2 -31q0 -19 -2 -36t-4 -28q-9 -42 -18 -89t-17 -95t-15 -94.5t-12 -85.5q-10 -16 -27 -16l-23 -2l-10.5 23t-7 18.5t-3.5 17t-1 19.5l-5 95q0 26 4.5 48t4.5 32q0 18 -7 18t-19 -10t-28.5 -21.5t-37 -21.5t-44.5 -10q-29 0 -53 5.5
t-41 21.5t-26 43.5t-9 72.5q0 27 8.5 60.5t23 66.5t33 62t38.5 47q1 1 4 1q6 0 13 -3.5t11 -3.5l-5 -27q-6 -17 -16.5 -34t-19.5 -37q-12 -29 -18 -63.5t-6 -58.5q0 -7 3.5 -17t12 -19t21.5 -15.5t32 -6.5q31 0 46 10.5t23.5 29t15.5 44.5t24 57q13 24 24.5 40.5t24.5 27
t28.5 15t35.5 4.5h1z" />
    <glyph glyph-name="afii10090" unicode="&#x448;" horiz-adv-x="721" 
d="M359 -21q-20 0 -33 5t-21.5 12.5t-13.5 17t-9 18.5q-4 8 -8 14t-11 6q-18 0 -33.5 -10t-30.5 -22l-2 -2l-21.5 -19.5t-26 -22.5t-27.5 -19t-27 -8q-21 0 -34.5 9.5t-21.5 26t-11 37t-3 43.5q0 45 10 94.5t30.5 98t51.5 92t73 75.5q11 -7 11 -12v-14q0 -16 -7.5 -29
t-18 -23.5t-21 -20t-15.5 -18.5q-12 -20 -20 -37t-13.5 -33.5t-8 -35t-2.5 -42.5q0 -19 14 -36.5t30 -17.5q17 0 34 2.5t33.5 10t32 21.5t29.5 37l37 60.5t31 70.5l9.5 33t15.5 38q18 14 29 14t11 -18q0 -12 -4.5 -29.5t-11 -35.5t-13 -34t-10.5 -25q-14 -34 -19 -74t-5 -77
q0 -7 10 -13t32 -6q35 0 64 21.5t56 66.5q9 15 17.5 34.5l17.5 40.5t17 42.5l15 40.5l3 6l12 31.5t11 25.5q14 14 34 14l7 -12q13 -19 16.5 -33.5t3.5 -28.5q0 -27 -9 -63l-15 -57q-11 -38 -14 -72.5t-3 -78.5q0 -16 3 -27.5t9 -22t15 -22.5t21 -30q0 -11 -4 -22t-9.5 -20.5
t-11.5 -15.5t-12 -6q-23 0 -36.5 8t-21.5 21.5t-11.5 30.5t-6.5 35q0 2 -0.5 3t-0.5 3q-5 23 -11.5 40.5t-27.5 17.5q-20 0 -36 -10.5t-31 -23.5q-19 -15 -37.5 -27t-44.5 -12z" />
    <glyph glyph-name="afii10091" unicode="&#x449;" horiz-adv-x="727" 
d="M507 53q-19 0 -35 -11t-32 -24q-19 -15 -38 -27.5t-45 -12.5q-20 0 -33 5t-21.5 13t-14 18t-9.5 19v-1q-4 9 -7.5 15t-11.5 6q-19 0 -39.5 -15.5t-35.5 -28.5q-20 -16 -39.5 -28.5t-46.5 -12.5q-21 0 -34 9.5t-21 26t-11 37.5t-3 45q0 45 8.5 91.5t27.5 91.5t48 86.5
t71 74.5q14 -3 11.5 -11t-10.5 -25q-11 -24 -22.5 -46.5l-22.5 -42.5t-16.5 -33.5t-8.5 -26.5t-3.5 -28.5t-0.5 -37.5q0 -36 19 -49t44.5 -9t51.5 22t41 42l34 60.5t28 67.5q7 23 12.5 44t13.5 35q9 11 13 15t11 4q18 0 20.5 -15t2.5 -38q0 -26 -8.5 -48t-22.5 -54
q-15 -33 -24 -70.5t-9 -77.5q0 -7 10.5 -15t31.5 -8q70 0 122 87h-1q18 31 34.5 55t29.5 59l14.5 37.5t12.5 30.5q10 22 18.5 38.5t15.5 16.5l13 -17q13 -20 16 -35t3 -29q0 -26 -13.5 -60.5t-22.5 -69.5q-13 -42 -9 -79.5t31 -62.5q14 -14 25.5 -28.5t11.5 -37.5
q0 -18 -8.5 -49.5t-22 -62t-29.5 -53t-31 -22.5q-6 0 -19 5.5t-13 21.5q0 8 3 18l6 21q7 18 13 43t6 59q0 13 -4.5 27.5t-14 26.5t-24.5 20t-37 8z" />
    <glyph glyph-name="afii10092" unicode="&#x44a;" horiz-adv-x="584" 
d="M168 104l5 27t6 28q10 46 23.5 88t18.5 83q1 11 6 30t6 26q3 19 3 33q0 20 -9 31t-35 11q-25 0 -65 -10q-6 -1 -11.5 -5l-11.5 -8.5t-12.5 -8t-15.5 -3.5q-8 0 -17 3.5t-20 11.5q-4 12 -4 23q0 36 44 41q14 -2 27 -3t27 -1q31 0 62.5 4t68.5 10q4 1 11 1q17 0 23.5 -10
t8.5 -27q0 -8 -2 -21.5t-5 -25.5l-4.5 -21t-3.5 -20q-1 -5 -1.5 -16t-0.5 -22q0 -13 1 -23.5t4 -12.5q17 -12 44.5 -17.5t57 -10t56 -11.5t41.5 -23q23 -24 35 -45.5t12 -49.5q0 -31 -16 -75q-12 -26 -30 -44.5t-40 -32t-46.5 -24t-49.5 -19.5l-39 -2q-5 0 -12.5 0.5t-15 2
t-14.5 4t-10 6.5q-5 5 -8 15.5t-3 19.5q0 7 3 13q11 15 28 17.5t34 2.5h11.5t10.5 1l46.5 15.5t49 19.5t41 25.5t23.5 32.5q1 5 1 15q0 23 -12.5 39t-37.5 28q-9 4 -22.5 8t-29.5 7t-33.5 4.5t-33.5 1.5q-19 0 -34.5 -2.5t-25.5 -8.5q-21 -20 -27.5 -50t-9.5 -63.5t-7 -67.5
t-20 -62q-15 -9 -37 -9l-11 1q-19 19 -19 42q0 21 9.5 42t13.5 41z" />
    <glyph glyph-name="afii10093" unicode="&#x44b;" horiz-adv-x="641" 
d="M556 214q0 -57 -1.5 -115t-12.5 -108q-1 -6 -9.5 -14t-20.5 -8q-17 0 -27 18.5t-15 43t-6 49t-1 36.5q0 15 2 46t6.5 68.5t11 77t15.5 71.5t20 52.5t25 20.5q3 0 8.5 -1.5t22.5 -11.5q-13 -67 -15.5 -120.5t-2.5 -104.5zM37 104l5 27t6 28q5 23 12.5 45t15.5 43t14.5 42
t9.5 41q1 11 6 30t6 26q4 23 5 39.5t1 28.5q0 15 -1 24t-1 15q0 8 3 12t14 10q7 5 16 5q13 0 19 -13t8 -28q0 -8 -2 -21.5t-5 -25.5l-4.5 -21t-3.5 -20q-1 -5 -1.5 -16t-0.5 -22q0 -13 1 -23.5t4 -12.5q17 -12 44.5 -17.5t57 -10t56 -11.5t41.5 -23q23 -24 35 -45.5
t12 -49.5q0 -31 -16 -75q-12 -26 -30 -44.5t-40 -32t-46.5 -24t-49.5 -19.5l-39 -2q-5 0 -12.5 0.5t-15 2t-14.5 4t-10 6.5q-5 5 -8 15.5t-3 19.5q0 7 3 13q11 15 28 17.5t34 2.5h11.5t10.5 1l46.5 15.5t49 19.5t41 25.5t23.5 32.5q1 5 1 15q0 23 -12.5 39t-37.5 28
q-9 4 -22.5 8t-29.5 7t-33.5 4.5t-33.5 1.5q-19 0 -34.5 -2.5t-25.5 -8.5q-21 -20 -27.5 -50t-9.5 -63.5t-7 -67.5t-20 -62q-15 -9 -37 -9l-11 1q-19 19 -19 42q0 21 9.5 42t13.5 41z" />
    <glyph glyph-name="afii10094" unicode="&#x44c;" horiz-adv-x="472" 
d="M37 104l5 27t6 28q5 23 12.5 45t15.5 43t14.5 42t9.5 41q1 11 6 30t6 26q4 23 5 39.5t1 28.5q0 15 -1 24t-1 15q0 8 3 12t14 10q7 5 16 5q13 0 19 -13t8 -28q0 -8 -2 -21.5t-5 -25.5l-4.5 -21t-3.5 -20q-1 -5 -1.5 -16t-0.5 -22q0 -13 1 -23.5t4 -12.5q17 -12 44.5 -17.5
t57 -10t56 -11.5t41.5 -23q23 -24 35 -45.5t12 -49.5q0 -31 -16 -75q-12 -26 -30 -44.5t-40 -32t-46.5 -24t-49.5 -19.5l-39 -2q-5 0 -12.5 0.5t-15 2t-14.5 4t-10 6.5q-5 5 -8 15.5t-3 19.5q0 7 3 13q11 15 28 17.5t34 2.5h11.5t10.5 1l46.5 15.5t49 19.5t41 25.5
t23.5 32.5q1 5 1 15q0 23 -12.5 39t-37.5 28q-9 4 -22.5 8t-29.5 7t-33.5 4.5t-33.5 1.5q-19 0 -34.5 -2.5t-25.5 -8.5q-21 -20 -27.5 -50t-9.5 -63.5t-7 -67.5t-20 -62q-15 -9 -37 -9l-11 1q-19 19 -19 42q0 21 9.5 42t13.5 41z" />
    <glyph glyph-name="afii10095" unicode="&#x44d;" horiz-adv-x="425" 
d="M141 -52q-17 0 -38.5 5.5t-41 14t-33.5 18.5t-14 20q4 26 20.5 39.5t40.5 13.5q13 0 30 -9q27 -17 47.5 -22t29.5 -5q29 0 48.5 12t31.5 28.5t17 35t5 32.5l-1 10q-1 10 -8.5 17t-18 11.5t-23.5 6.5t-26 2h-31q-26 0 -46 -6t-46 -6q-16 0 -17 14v4q0 17 13 21t37 4h35
q12 0 23 -2.5t31 -2.5h12q32 0 47 18t15 44q-1 47 -24 67.5t-50 20.5q-27 -1 -51 -17t-35 -38q-2 -6 -10 -10.5t-15 -4.5h-1q-7 0 -11.5 5t-7 11.5t-3.5 13.5t-1 10q1 8 4.5 14t8.5 12q22 25 55.5 33.5t64.5 9.5h2q30 0 58 -13t50 -35t35.5 -51t15.5 -61q1 -8 1 -16.5v-16.5
q0 -45 -8.5 -89.5t-32.5 -80t-68 -58.5t-114 -24h-2z" />
    <glyph glyph-name="afii10096" unicode="&#x44e;" horiz-adv-x="662" 
d="M383 32q28 0 54 13t46 39t32 65t12 90q0 47 -17.5 65.5t-43.5 18.5q-21 0 -49 -10t-53.5 -33t-43.5 -60.5t-18 -91.5q0 -18 5.5 -35t16 -30.5t25.5 -22t34 -8.5zM392 -23q-33 0 -56.5 12.5t-38 34.5t-21 53t-6.5 68q0 10 2 22.5t1 24t-7 19t-22 7.5q-32 0 -49.5 -25.5
t-26 -64t-10.5 -82t-2 -79.5q0 -21 -10.5 -30t-23.5 -9q-15 0 -27 12t-12 38q0 23 8.5 49.5t18.5 54t18 53.5t7 49q0 16 -10 19t-24 0t-29.5 -8t-28.5 -5q-23 0 -31.5 8t-6.5 22q3 23 18 29t34 4.5t38.5 -5.5t33.5 -1q15 5 17.5 29t2.5 75q0 23 -7.5 33.5t-15.5 17.5
q-9 9 -17 23t-11.5 27.5t0.5 23.5t19 10q18 0 31.5 -11t22.5 -30t13.5 -44t4.5 -53v-31q0 -21 8 -33.5t18.5 -18.5t21 -8t14.5 -2q27 0 40 17t21 37q29 54 78 84t103 30q31 0 55 -14t40 -35t24 -45.5t8 -45.5q0 -71 -18.5 -127.5t-49.5 -96.5t-72.5 -61t-87.5 -21z" />
    <glyph glyph-name="afii10097" unicode="&#x44f;" horiz-adv-x="490" 
d="M289 459q43 0 64.5 -10.5t23.5 -23.5q-12 -16 -23.5 -17.5t-30.5 -3.5q-2 0 -4.5 -0.5t-5.5 -0.5l-32.5 -4.5t-36 -6.5t-36 -10.5t-31.5 -15.5q-4 -3 -14.5 -13t-21 -23.5t-18.5 -28.5t-8 -28q0 -35 22.5 -57.5t83.5 -22.5q20 0 38.5 11.5t34 28t26.5 34t16 30.5
q6 14 15 29.5t18 28t17.5 21t13.5 8.5q32 0 32 -33q0 -4 -2 -14.5t-6 -24t-9.5 -28t-11.5 -26.5q-12 -23 -20 -41t-13 -35t-7 -35.5t-2 -42.5q0 -6 2.5 -14t6.5 -17l8 -18t6 -16q5 -14 14 -31.5t9 -29.5q0 -5 -5 -10t-12 -8.5t-15.5 -6.5t-15.5 -4q-23 3 -36 13t-19 23
t-7 26.5t-1 22.5v5q0 3 -0.5 11.5t-1 19l-1 21t-0.5 17.5l-30 10q-20 0 -43 -10t-45 -25t-42.5 -33t-35.5 -35q-22 -24 -43.5 -42.5t-39.5 -19.5h-2q-20 0 -28 12t-8 27v3q1 17 26 32t60.5 32.5l75.5 38.5t72 50l-1 12q-26 4 -53.5 16.5t-49.5 30.5t-36 41.5t-14 50.5
q0 36 21.5 65.5t55 50.5t75 32.5t81.5 11.5z" />
    <glyph glyph-name="afii10071" unicode="&#x451;" horiz-adv-x="461" 
d="M415 126q6 -15 3 -26.5t-11.5 -21t-19 -16.5l-19.5 -13q-41 -26 -90 -48.5t-100 -22.5q-25 0 -48 7t-45 24q-28 22 -44 48.5t-21 53.5q3 43 16.5 82.5t33.5 76t44.5 71t50.5 67.5q32 42 73 75.5t90 44.5q25 0 46.5 -14.5t29.5 -36.5q4 -15 4 -31q0 -34 -17.5 -60.5
t-43 -47.5t-54.5 -38t-52 -33q-16 -15 -38.5 -18.5l-44.5 -7t-41 -12.5t-28 -35q-7 -19 -3 -34.5t14 -28t23 -23.5t24 -22q12 -5 23.5 -6.5t22.5 -1.5q29 0 56 10l54 20.5t54.5 17.5t57.5 0zM176 350q-1 -5 -4 -11.5t-4.5 -13.5t0 -13.5t8.5 -11.5q5 -5 12 -7t15 -2
q9 0 18 1.5t17 3.5q19 9 40 22.5t38 31.5t28 39t10 45l-18 18q-26 0 -48 -9t-41.5 -23t-37 -32.5t-33.5 -37.5zM207 694q8 4 17 4q16 0 30.5 -8t25.5 -21.5t18 -30.5t7 -35q-2 -10 -9 -13t-15 -3q-13 0 -29.5 4.5t-31 14t-24.5 23.5t-10 32q0 11 5 20t16 13zM407 679
q7 9 18.5 12.5t22.5 3.5q9 0 18 -6.5t16.5 -17t12 -22.5t4.5 -22q0 -15 -10.5 -29.5t-28.5 -14.5q-11 0 -22 5t-19.5 13.5t-14 19t-5.5 22.5q0 10 2.5 19t5.5 17z" />
    <glyph glyph-name="afii10099" unicode="&#x452;" horiz-adv-x="514" 
d="M351 158q-12 0 -27.5 -10.5t-30.5 -24.5t-28 -28.5l-21 -23.5q-8 -23 -22.5 -43t-33 -34t-39 -22t-39.5 -8q-24 0 -34.5 17.5t-10.5 43.5q0 25 7 49t17.5 47t22 45t20.5 43q5 13 13 31.5t8 25.5q0 5 -5 7t-12 2q-15 0 -24 -1t-18.5 -2.5t-24 -3t-41.5 -2.5q-10 2 -22.5 9
t-12.5 25q0 14 11 14q8 0 21.5 -4t30.5 -4q14 0 34.5 -0.5t41 2t37 9t22.5 21.5q7 19 12.5 47t10 57.5l8.5 57.5t9 47q6 22 10.5 51l9.5 60q3 17 5 36t7.5 34.5t15 26t27.5 10.5q9 0 18.5 -5.5t16.5 -16.5q0 -20 4.5 -36.5t4.5 -35.5q0 -5 -0.5 -9t-1.5 -9q-8 -36 -23.5 -78
t-33.5 -85t-36.5 -83t-30.5 -71q-2 -6 -2 -7q0 -3 4 -3q12 0 27.5 3.5t32 8l31.5 9l25 7.5t20.5 10t20 14.5t18.5 13.5t17 6q6 0 14 -0.5t15.5 -3t12.5 -8.5t5 -17q0 -17 -22 -28.5t-52 -20t-61 -13t-49 -5.5q-20 -2 -34 -6t-24.5 -11.5t-18 -18.5t-15.5 -25
q-3 -9 -5.5 -20.5t-4 -23t-2 -21t-1.5 -13.5q2 -13 7 -17t11 -4q24 0 47 18.5l51 41.5q13 11 22 20.5t17 17t17 11.5t22 4q27 0 43.5 -19.5t26 -47t12.5 -56.5t3 -48q0 -77 -9 -143t-27.5 -115t-46 -76.5t-63.5 -27.5q-16 0 -38 7t-42.5 17.5t-34.5 22t-14 20.5q0 3 1 10.5
t4.5 15.5t10.5 14.5t19 6.5q11 0 19 -2t15.5 -4.5t16 -4.5t19.5 -2q21 0 35 18t24.5 47.5t19.5 68l18 79.5q-2 54 -7.5 88t-23.5 34z" />
    <glyph glyph-name="afii10100" unicode="&#x453;" horiz-adv-x="450" 
d="M261 415q23 0 45.5 -10.5t40 -28.5t28.5 -42t11 -50q-3 -11 -8 -17.5t-11.5 -13l-13.5 -13.5t-13 -17q-23 -20 -51.5 -34.5l-57.5 -28.5l-12 -6q-9 -5 -14.5 -7.5t-9 -5t-7.5 -6.5l-11 -11q-8 -7 -18 -22t-11 -23v-1q0 -8 10 -14.5t23 -12t25 -8.5t15 -3q16 0 33.5 5.5
l35.5 11.5l35.5 11.5t32.5 5.5q17 0 38 -18q-5 -17 -10 -28t-12 -22q-2 -5 -12 -12t-22.5 -14.5t-25 -13.5t-21.5 -8q-25 -8 -51.5 -13.5t-53.5 -5.5q-20 0 -39 3q-21 3 -43 10t-40 18.5t-29.5 27.5t-11.5 39q0 32 14.5 52t38.5 33.5t53.5 24t59.5 23.5q25 11 48.5 23
t42 25.5t30 30.5t11.5 39v1q-1 7 -6 16t-12.5 17.5t-16.5 14.5t-19 6q-23 0 -42 -6.5t-39 -15.5l-54 -20q-14 0 -27 10t-18 39q10 28 19 35.5t21 12.5q20 8 53.5 12.5t78.5 4.5zM464 657q13 -8 15.5 -20.5t-1 -25.5t-12.5 -24.5t-20 -17.5q-31 -9 -61 -22.5t-60 -25.5
t-60.5 -19t-62.5 -3q16 16 36 30.5t41.5 28l43 27t40.5 28.5l23.5 18t23.5 15.5t25 9.5t29 1z" />
    <glyph glyph-name="afii10101" unicode="&#x454;" horiz-adv-x="520" 
d="M137 117q0 -14 5.5 -23.5t13.5 -15.5q9 -7 20 -12q8 -5 20 -10.5t28 -5.5q24 0 41 2.5t32.5 8t33 14t42.5 19.5q10 5 21 8t24 3h6.5t7.5 -1l30 -27l-17 -21l-56 -36.5t-62 -39.5q-32 -20 -65 -26t-68 -6q-30 0 -58 10.5t-49.5 31t-35 49.5t-13.5 65q0 8 3 21t7.5 27l9 27
l7.5 22q19 56 45.5 100t57.5 74t63.5 45.5t63.5 15.5q30 0 55.5 -14.5t42.5 -38.5l19 -26q0 -16 -15 -31t-30 -15q-11 0 -22 8.5l-23 18t-26 18t-31 8.5q-25 0 -48 -12.5t-41 -32t-28.5 -43.5t-10.5 -48q0 -2 1 -10t3 -16.5t6 -15t10 -6.5q10 0 21.5 3.5t29.5 5.5
q14 2 29 7.5l30.5 11t31.5 10t32 4.5h12.5t18.5 -2l3 -11q-6 -12 -14.5 -19t-21.5 -10t-31.5 -4t-44.5 -2q-22 -1 -42.5 -4.5t-37 -10t-26.5 -17t-10 -25.5z" />
    <glyph glyph-name="afii10106" unicode="&#x459;" horiz-adv-x="697" 
d="M347 292q18 -9 46 -10.5t58 -2t57.5 -4t44.5 -17.5q30 -24 45.5 -47.5t15.5 -60.5q0 -12 -2 -25.5t-5 -30.5q-8 -27 -23.5 -47.5t-35.5 -37.5t-43 -30.5t-46 -25.5q-8 -2 -18.5 -4l-20.5 -4q-4 0 -9 -0.5t-11 -0.5q-10 0 -19 1t-14 6t-10.5 16t-5.5 21q0 3 2 9
q5 11 14.5 16.5t20.5 8.5t23 4t22 4q20 9 44 21t45.5 26.5t37.5 31t19 35.5q0 56 -60 74q-11 4 -29.5 5.5t-39.5 1.5q-32 0 -63.5 -5t-46.5 -16q-14 -17 -18 -39t-4 -47l3 -90v-9q0 -17 -2.5 -33.5t-8.5 -31.5q-9 -8 -22 -11t-24 -3q-15 11 -20.5 23t-5.5 26q0 18 5.5 37.5
t6.5 37.5q1 11 6.5 27.5t7.5 28.5q1 23 3 41t3.5 34.5t2.5 33.5t1 37q-2 25 -8 40t-8 15q-8 0 -16 -6.5t-15.5 -16t-14 -20t-10.5 -19.5q-1 -2 -3 -11t-5 -20l-6 -21.5t-6 -16.5q-18 -34 -31.5 -71.5t-28.5 -73t-35 -66.5t-51 -50q-11 -3 -22 -3q-22 0 -41 8.5t-19 24.5
q0 9 9 20q6 11 14 16.5t17.5 10.5t19.5 11t21 18q9 14 24.5 24t23.5 20q19 28 34.5 73t38.5 95q13 28 23.5 56l20 53.5t19 47t20.5 36.5q9 11 20.5 15t19.5 4q20 0 32.5 -14.5t14.5 -31.5l2 -29q0 -15 1.5 -30.5t4 -28.5t5.5 -22t8 -11z" />
    <glyph glyph-name="afii10107" unicode="&#x45a;" horiz-adv-x="678" 
d="M238 74q2 11 9 27t9 28q2 17 2 33.5t4 33.5q-4 11 -19 17.5t-35 6.5q-31 0 -49 -25.5t-27.5 -63t-12.5 -81t-3 -79.5q0 -20 -10.5 -29.5t-25.5 -9.5q-14 2 -25 14t-11 38q0 15 2 27t5 23.5t6.5 23.5t6.5 27q4 18 13.5 41t11.5 36q0 15 -4.5 24t-12 13.5t-18.5 6t-23 2.5
h-4q-23 1 -38.5 4t-15.5 17q0 13 8.5 17.5t21.5 4.5q14 0 30.5 -2.5t30.5 -2.5h8q13 3 19.5 9t9.5 18.5t3 32.5t2 50v10q0 18 -3.5 31t-8.5 22.5t-10 18t-9 17.5q1 10 1 18.5t2 14.5t7 9t16 3q19 0 30.5 -3t18 -14.5t9 -34t2.5 -61.5l-4 -57q0 -27 8 -41.5t18.5 -21.5
t20.5 -8t15 -1q27 0 38.5 16.5t14.5 34.5l2.5 26.5t1.5 20.5v16q0 46 -5 66t-5 29q0 5 3 9t11 9q7 5 15 5q13 0 21.5 -13t11.5 -28q0 -4 0.5 -8t0.5 -9q0 -8 -0.5 -15.5t-1.5 -14.5l-3 -41q0 -6 1 -19t3 -26.5t4 -24.5t5 -13q18 -12 46.5 -14.5t59 -3.5t58 -5t44.5 -20
q31 -28 47.5 -57.5t16.5 -68.5q0 -26 -7 -54q-17 -51 -60 -81.5t-91 -48.5l-39 -2q-5 0 -13 2t-16.5 5.5t-16 7.5t-11.5 8q-5 6 -10.5 17.5t-5.5 21.5q0 5 2 9q8 15 25 17.5t34 2.5h11.5t10.5 1q21 7 45 17t46 23t38 29t19 34q0 29 -14.5 48.5t-44.5 33.5q-15 7 -42 10.5
t-56 3.5q-26 0 -48.5 -3t-34.5 -11q-14 -15 -18.5 -37t-4.5 -47l3 -86v-9q0 -17 -2.5 -33.5t-9.5 -30.5q-14 -9 -36 -9l-11 1q-16 14 -21.5 27.5t-5.5 27.5q0 17 5.5 34.5t8.5 35.5z" />
    <glyph glyph-name="afii10108" unicode="&#x45b;" horiz-adv-x="486" 
d="M528 -112q0 -20 -17.5 -32t-40 -18t-45 -7.5t-32.5 -1.5q-24 0 -38.5 8t-23 22.5t-11.5 33.5t-3 41t7 43.5t15.5 42.5t15.5 43t7 45q0 29 -6 40t-16 11q-9 0 -33.5 -13.5t-48.5 -37.5q-13 -13 -24.5 -31l-23 -36t-24 -34t-26.5 -25q-19 -15 -40 -18t-39 -3
q-17 0 -21.5 9.5t-4.5 23.5q0 11 0.5 25.5t2.5 30.5t4.5 32t7.5 29q4 12 11.5 24t16 24t15.5 23.5t11 22.5q6 17 12 37t12 28q-12 0 -27.5 -1t-31 -1.5t-30.5 -2t-27 -2.5h-23q-11 2 -23.5 9t-12.5 23q0 20 21 23.5t52 3.5q17 0 41 -6.5t43 -6.5q15 0 30 9.5t20 22.5
q7 20 13 47.5t11 56l9.5 55t9.5 44.5q6 23 10.5 51.5l9.5 59.5q3 17 5.5 36t7.5 35t14.5 26.5t27.5 10.5q10 0 19 -6.5t16 -16.5q-1 -50 -13.5 -103t-30.5 -105.5t-38.5 -102.5l-37.5 -93q-1 -1 -1 -4t4.5 -3.5t9.5 -0.5q21 -1 48 5.5l48 11.5q11 3 23 11l24 16.5t24 15
t23 6.5q9 0 21 -6t12 -18q0 -19 -20 -32t-48 -20.5t-58 -11.5t-51 -5q-56 -5 -82 -41t-26 -88q0 -5 1 -11.5t3.5 -12.5t7 -10.5t12.5 -4.5q10 0 31.5 13t39.5 30l20 24.5t21 23t23.5 17.5t26.5 7q18 0 30.5 -9.5t20.5 -24.5t12 -32.5t4 -33.5q0 -23 -5.5 -45.5t-12.5 -45.5
t-12.5 -47.5t-5.5 -51.5q0 -29 17.5 -41.5t44.5 -12.5q17 0 36 3.5t29 3.5q8 0 14 -4.5t6 -18.5z" />
    <glyph glyph-name="afii10050" unicode="&#x490;" horiz-adv-x="523" 
d="M313 601q14 3 34 4t40 3q40 3 64 8.5t44 29.5q10 9 16 23.5t9 28.5q4 17 10 32t25 15q4 0 10.5 -1.5t13.5 -5.5q17 -9 25 -28.5t8 -43.5q0 -14 -3 -28t-8 -25q-11 -29 -26 -46t-33 -26t-38 -12t-42 -3l-59 1h-27q-28 0 -55.5 -2t-52 -8.5t-45.5 -20t-36 -36.5
q-26 -40 -37.5 -83.5t-16 -91.5t-4.5 -101t-2 -111v-3q0 -14 3.5 -36t3.5 -44q0 -26 -10.5 -45t-41.5 -19q-17 0 -27 8t-15.5 20.5t-7.5 27.5t-2 30t1 27.5t1 18.5q0 34 7 75.5t17.5 84.5t23 85l23.5 78q16 50 31.5 87t38 63t55.5 42.5t84 27.5h1z" />
    <glyph glyph-name="afii10098" unicode="&#x491;" horiz-adv-x="405" 
d="M58 269q13 37 28.5 60t37 37.5t52 23.5t73.5 17q17 3 34 4l34 2q36 2 61.5 17.5t30.5 55.5q0 1 0.5 2t0.5 2q4 20 9 30.5t25 10.5q12 0 21 -6.5t15 -16t9 -20.5t3 -20q0 -41 -16 -63.5t-41.5 -33t-56 -12.5t-58.5 -2h-8q-22 0 -46.5 -1t-47.5 -5t-42 -13t-30 -25
q-17 -25 -23 -50t-6 -54q0 -30 3.5 -64.5t3.5 -75.5v-66q0 -28 -9.5 -50t-40.5 -22q-18 0 -28.5 12t-15 29t-5.5 34t-1 28v7q0 53 8.5 115t25.5 113z" />
    <glyph glyph-name="afii61352" unicode="&#x2116;" horiz-adv-x="898" 
d="M603 667q18 -7 25 -21t7 -30t-5.5 -32t-13.5 -27q-16 -35 -39 -93.5t-44.5 -126t-36.5 -137.5t-15 -127q0 -36 8 -66q6 -21 6 -40q0 -38 -19 -66t-51 -39q-8 -3 -14 -3q-11 0 -19.5 5.5t-15 13.5t-11 18t-7.5 18q-3 31 -3 75t1.5 94t1.5 102q0 76 -7 145t-31 112
q-10 9 -19.5 12.5t-19.5 3.5q-11 0 -22.5 -3.5t-23.5 -8.5q-43 -18 -71 -58.5t-45.5 -89.5t-27 -99t-15.5 -89l-3 -16q5 -17 6.5 -36t1.5 -38q0 -38 -6 -76.5t-13.5 -71.5l-13.5 -57.5t-7 -36.5q-7 -15 -21 -23t-29 -8q-10 0 -22 5q-21 20 -29 44t-8 50q0 43 13.5 87
t23.5 81q23 36 39.5 82l33 96t35.5 101t47.5 98t69 86.5t100.5 65.5q10 0 21 -4t22 -9.5t21 -12l18 -11.5q12 -13 17.5 -37.5t7.5 -55.5t2.5 -65t2 -64.5t6 -55.5t15.5 -38q2 -1 6 -1q9 0 15.5 11t11 25.5t7 29.5t4.5 24q0 2 0.5 3t0.5 2q7 81 31 146t46 105zM716 393
q-38 0 -59.5 12.5t-29.5 47.5q-1 5 -1 11v10q0 30 16 56t40.5 46t54 31.5t56.5 11.5q18 0 34 -6.5t26 -24.5q6 -11 8 -21.5t2 -21.5q0 -32 -11 -59.5t-30.5 -48t-46.5 -32.5t-59 -12zM601 309q0 4 4 10t10 11.5t13 10.5t12 7q3 0 12 0.5t19 0.5h25q11 0 21 -0.5t17 -0.5
q10 0 29.5 -1t38 -5t32.5 -11.5t14 -20.5q0 -17 -6 -23t-24 -9l-40 -2q-21 -2 -38.5 -2.5t-45.5 -0.5h-9q-11 0 -25.5 0.5t-27.5 4t-22 10.5t-9 21zM755 526q-23 0 -40 -14.5t-17 -37.5q0 -7 3.5 -8t8.5 -1h6q8 0 19 2t20.5 6.5t16.5 11.5t7 16q0 11 -7 18t-17 7z" />
    <glyph glyph-name="twosuperior" unicode="&#xb2;" horiz-adv-x="329" 
d="M248 746q17 -20 17 -42q0 -18 -9 -35.5t-19 -34.5q-5 -7 -9 -14.5l-8 -15.5q-26 -32 -43.5 -69.5t-19.5 -79.5q4 -5 10.5 -5t13.5 2q25 11 55 19.5t61 3.5q9 -5 10 -13.5t-3 -14.5q-35 -18 -63.5 -29.5l-55.5 -21.5l-44 -16q-8 -4 -21 -2t-24 10q-10 20 -10 37
q0 22 12.5 40.5t28.5 36.5l18 23t15 24q4 8 7.5 17.5t8.5 17.5q12 26 21 54.5t10 56.5q-4 4 -9.5 7t-10.5 3q-8 0 -16 -3t-16 -7q-6 -3 -9 -4t-10 -3q-17 -8 -36 -18.5t-27 -27.5q-1 -2 7 -11q9 -8 10 -13.5t-21 -7.5q-2 1 -9 1q-11 2 -21 5t-18 14q3 25 17 44t34.5 33.5
t44 25.5t45.5 19q5 2 11 3.5t11 3.5h11q14 1 28 -0.5t25 -12.5z" />
    <glyph glyph-name="threesuperior" unicode="&#xb3;" horiz-adv-x="329" 
d="M277 728q3 -6 4 -13t1 -14q0 -22 -11.5 -41t-26.5 -36v-4q0 -9 5 -16.5l10 -14.5q8 -8 13.5 -16t6.5 -18q6 -23 6 -48q0 -15 -3 -30t-12 -28q-27 -22 -58.5 -41t-68.5 -19q-17 0 -36 6q-14 9 -18 21.5t-4 24.5q0 11 1 16q8 11 18.5 19.5t24.5 8.5q7 0 15 -3
q4 -5 5.5 -8.5t3.5 -7.5q2 -5 2.5 -8.5t3.5 -5.5q26 5 51 17t41 35q5 13 5 28q0 10 -6 24q-13 13 -27.5 17.5t-30.5 8.5l-4 1l-23 6.5t-27 11.5q5 16 14.5 21.5t21.5 9.5q8 3 12.5 5t8.5 5h-1l9 9q8 8 15 17t7 18q0 2 -2 8v-1q-7 12 -17.5 16t-21.5 4q-8 0 -17.5 -1
t-17.5 -3h-8q-8 0 -16.5 -5.5t-17.5 -12.5l-17.5 -11.5t-16.5 -5.5q-15 0 -29 26q0 2 -0.5 3t-0.5 3q0 8 4 13.5t9 11.5l3 3q23 14 57.5 24t68.5 10q28 0 52.5 -9t38.5 -30z" />
    <glyph glyph-name="onesuperior" unicode="&#xb9;" horiz-adv-x="329" 
d="M289 691q-14 -26 -23 -38l-19 -26q-25 -35 -44 -73t-21 -78q2 -7 12.5 -10.5l21.5 -7.5q11 -2 19.5 -6t8.5 -11q0 -8 -23 -22l-61 -24q-12 5 -23 5q-8 0 -17 -2t-17 -4q-9 -2 -17.5 -3t-16.5 -1q-14 0 -22 6t-8 25v6q11 9 22 12.5t22 6.5q15 4 28.5 10t19.5 20l6 11
q17 24 32.5 51t15.5 55q-9 7 -18 7q-10 0 -16 -5q-8 -2 -14 -7t-11 -10q-9 -8 -18.5 -14t-26.5 -7v20q30 24 57.5 51l52.5 52l11 11l38 40q8 8 22 8q10 0 18 -4.5t11 -12.5z" />
    <glyph glyph-name="asciicircum" unicode="^" horiz-adv-x="422" 
d="M384 333q-33 42 -57.5 87t-55.5 96q-17 3 -20 3q-14 0 -29 -15t-30 -34.5t-28.5 -40t-24.5 -30.5q-9 -8 -20.5 -19.5t-24.5 -22t-25.5 -18t-23.5 -7.5q-16 0 -22 18l-4 8q16 13 37 41.5l42.5 60.5l41.5 61t35 44l51 49t41 36q13 -16 27.5 -43.5t29 -60t28 -66.5t24 -64.5
t16.5 -54t6 -33.5z" />
    </font>
</defs>
</svg>
